<svg id="Layer_1" data-name="Layer 1" xmlns="http://www.w3.org/2000/svg" viewBox="0 0 171.09 265.49"><defs><style>.arrow{fill:#1d1d1d}</style></defs><path class="arrow" d="M342.93 292.52c.27-.57.81-.89.82-.62.31-1.3.69-1.12.14-1.62.08-.88.94-1.41.75-.45l.74-2.29-.77 1.19c-.35-.63 1.22-1.91.8-2.63l-1.14 2.27-.12-.21a4.81 4.81 0 01-1 1.86c-.06-.1-.22-.15 0-.55-1.56 2.65.52 1.25-.6 3.57a2 2 0 01.38-.52zM340.32 294l.08 1.31-1.12 1.42c.21.16-.33 1.38.35.76a3 3 0 01.35-.73c.38.48-1.07 2.18-.3 2.05.66-1.29.88-1.41 1-2.4a12.39 12.39 0 011.85-2.26c.13-.38-.14-.61.05-1.07l-.15.3-.76-.39a3.25 3.25 0 01-.55 1.14l.22-2.32c-1 .18-1.68 2.17-2.4 2.69 1.06-.5-.17.89 1.38-.5zM342.54 293.08zM245.9 391a.71.71 0 00-.67-.31l3.34 4c.07-.27-.68-1.59.06-.91-.09-.5-1.13-1.4-1.48-1.36l.5.07c-1.1-.64-1-1.81-.27-1.38l-.07-.08-3.41-1.47c.7.93 1.1.29 2 1.44zM180.38 308.11c.56.37.67.36.67.24a3.36 3.36 0 00-.67-.24zM243.11 389.15l-1.07-.47a3.89 3.89 0 001.07.47zM253.85 389.51a.09.09 0 00.06-.06l-.51-.18a4.74 4.74 0 00.45.24zM227 371.66l-.23-.25a3 3 0 00.23.25zM261 393.25a.92.92 0 01-.31.43c.12-.24 0-.25.16-.5a.52.52 0 00-.16.2c-.2.3-.34.51-.48.68a.72.72 0 01-.65.3c0 .64.35.47.59.26a.57.57 0 01.14 0 2.38 2.38 0 00.54-.87c.06-.13.1-.31.17-.5zM205.37 328.49h.06s-.04-.02-.06 0zM205.67 328.41l-.24.06c.17.03.57.34.24-.06zM243.7 389.15a1 1 0 01-.59 0l.79.34c-.06-.09-.13-.22-.2-.34zM246 389.54l1.31 1.42.74.32c-.58-.48-1.21-1.09-2.05-1.74z" transform="translate(-174.4 -149.32)"/><path class="arrow" d="M228.49 374.4c-2.5-3.21 1.26.32.31-1.31-.75-.85-1.3-.93-1.82-1.43 2.19 2.4-1.29.41.81 2.91-.85.05-2-1.44-2.52-2.44-.2-1.41 1 .59 1.76.42-.87-1-.83-.73-1.47-.95-1.07-1.75-3.15-3-3.1-4.49-1-1.11-1.18-.85-2-1.33-.69.28 1 2 .82 2.79 0-.13-.05-.38.07-.39l.63 1.13c-.51-1.13.69-.28 1.11.21s.86 1.12.63 1.13l-.55-.49c.36.89 1.61 1.35 1.88 2.36-.11.14-.39-.11-.5-.1a19.82 19.82 0 012.9 2.56l-1.14-.33c1.41.57 3 3.07 3.9 4.94-.05-.25-.23-.63 0-.52.87.85 1 1.87.39 1.66 1.18.56 2.34 3.83 4 4.6 2.48 1.14 4.95 2.26 7.43 3.35a4 4 0 01-.7-.54c.07-.91-.21-1.14 1-.63-1-.66-1.09 0-2.19-1.31.67.32 1.34 0 .38-1.32-3-2.77-6.14-3.78-9.21-6.27.3-.41-1.64-2.72-2.41-4a5 5 0 012.28 1.75l-1.63-2.31z" transform="translate(-174.4 -149.32)"/><path class="arrow" d="M235.57 381a1.17 1.17 0 00-.12-.31.77.77 0 00.12.31zM231.37 376.67l-.25-.26zM244 387.72c.26.09.4.21.66.3a5 5 0 01-.42-.31c-.24-.09-.31-.11-.24.01zM243.8 388.89h-.24l.14.23c.1-.01.15-.12.1-.23zM223.07 359.29l-.3-.25c.14.19.23.24.3.25zM226.48 370.26c.87 1.11.69-.29 1.87 1.32l-.31-.5a38.59 38.59 0 013.52 4.42c-.35 0 .34 1-.14 1.15a6.19 6.19 0 002.31 1.91c.31.66 1.31 1.27 1.72 2.11 0-.47 1.53.46-.1-1.09.14.12.12 0 .26.11-.58-1.36-1.44-1.42-2.2-2.4-.24-.75 1.08.69.74.07-1.14-1.06-2.67-4-3.41-3.35a2.08 2.08 0 01-.69-1.5c-1.94-.78-3.51-5.58-4.6-4.76a11.85 11.85 0 001.8 2zM242.4 385.94c0-.07-.12-.16-.16-.22zM250.93 402.37c-.42 0-.89-.12-1.32-.16-2.33-2.4-2.92-3.48-4.83-5.7-.05-.25.24 0 .39.08-1.41-1.51-3.23-4-4.51-4.9-.41-.51-1.28-2-.66-1.69a3.32 3.32 0 01-.77-.73c.19-.28.59.58.81.42-.17-.24-.19-.36-.31-.35.53.2.53-1.09 2 .69 0 1.16-1.07-1.17-1.39-.24.48.59.67.32.79.3.6.76.42.88.24 1 .44.12.93 1.28 1.56 1.43 1.25 1.4-.55.32.24 1.25h1.11l1.18 1.67c2.12 2.06.85-1.26 3.38 1-.62-.05-.32 1.46.55 2.76-.63-.69-2.17-1.65-2.75-2.74.59 1.73-1.57-1.74-1.58-.58a6.83 6.83 0 012.31 2.42l-.37-.3c.69 1 1.93 1.05 2.71 2.49.54.58.26.63 0 .65l.39.3.17.14.22.21c.35.32.51.51.44.58zm-1.51-1.5l-.63-.87a2 2 0 00.63.87zM332.26 306l.24-.21a.85.85 0 00-.24.21zM275.76 380.77l.43-.45a2.92 2.92 0 00-.43.45zM282.61 368.6l.41-.8a2.18 2.18 0 00-.41.8zM327.74 311.57l-.05.14zM299.66 347.94a2.22 2.22 0 00.42-.33c-.08-.02-.23.1-.42.33zM282.53 368.74h.05v-.11zM269.86 383.84l-.19.36a1.15 1.15 0 00.19-.36zM272.27 384.71a3.2 3.2 0 00-.19.36zM261.6 395.87l-.09.39a1.1 1.1 0 00.09-.39zM270.41 386.06a1 1 0 000 .18c.06-.11.06-.18 0-.18zM337.35 303.3v.05l.07.07zM337.47 301l.35-.63a3.12 3.12 0 00-.35.63zM307.23 338.37c.23-.12.64-.48.62-.19.09-.46-.29-.67-.62.19zM339.24 309.71a2.15 2.15 0 01.06-.55c-.09.33-.18.61-.06.55zM339.3 309.16c0-.16.09-.33.12-.48a3.06 3.06 0 00-.12.48zM310.19 346.86a.4.4 0 00-.24.14c.12 0 .19 0 .24-.14zM338.25 299.94c-.08-.22 1.25-3-.27-.93-.47-.43.68-1.55.92-2.22-.4.35-.21-.42-.48-.42a3.65 3.65 0 01-.54 1.22c-.38.06-.07-.76.38-1.27-.73.51.14-1.14-.7-.3a16.68 16.68 0 00-2.21 5.73 16.06 16.06 0 012.29-3.5l.18.71c-1.14.83-1.3 1.7-2.09 2.74l1.9-2.25c1.14-.89.72-.07.19.89.18-.22.32-.4.43-.4zM341.06 304.3a1.11 1.11 0 000-.13zM264.31 412.29l-.17.69c.16-.46.2-.65.17-.69zM269.93 403.23v.09a.26.26 0 000-.09zM262.34 393.51h-.07s.04.01.07 0zM269.9 403.18v.05s.02-.05 0-.05zM288.65 377.06a1.8 1.8 0 00-.31.08c0 .07.09.07.31-.08zM284 381.2h-.12zM304.37 338.29a5 5 0 00-.38.65 3.37 3.37 0 00.38-.65zM269.93 403.32a3.85 3.85 0 01-.16.58 4.25 4.25 0 00.16-.58zM292.53 368l-.07.18.09-.07z" transform="translate(-174.4 -149.32)"/><path class="arrow" d="M294.8 365.71a1.19 1.19 0 000 .29c.51-1.05 1.95-2.62 1.61-3.17-.2.34-1.66 1.77-1.74 1.29-.36.72-1.39 1.42-1.56 1.82 1-.86.48.19.09 1-.63.53-.28-.41-.79.07l-1.09 1.51 1.05-1.23.14.73.06-.16c1.5-2.32.83.33 2.23-2.15zM294.82 366a1.58 1.58 0 00-.16.44.69.69 0 00.16-.44zM302 357.2a3.7 3.7 0 00.18-.46zM248.86 392.4c-.09.14.68 1.58 1 1.28l-.86-1.18zM316.63 330.3a4.78 4.78 0 00-.34.42.53.53 0 000 .12c.11-.05.26-.37.34-.54z" transform="translate(-174.4 -149.32)"/><path class="arrow" d="M294.82 363.6a1.08 1.08 0 00-.13.52.94.94 0 00.13-.52zM317.5 330.84c.23-.1.58-.25.74-.19a7.86 7.86 0 00.54-1.17 5.51 5.51 0 01-1.28 1.36zM318.79 329.44z" transform="translate(-174.4 -149.32)"/><path class="arrow" d="M248.39 391.55l-.34-.27.23.1-.6-.93-.35-.3a.34.34 0 00.19.05l-.19-.3c-.9-.39-2.54-1.87-3.14-2.19a10.36 10.36 0 01-1.79-1.77c.37.47.94 1 1 .68-.57-1.09-.36-2-2.16-3.23l.77.95-2.46-1.55c-.29-1 1.23.78 1.74.86-1.71-1.37-1.83-3.54-3.08-3.81a1.52 1.52 0 00-.11-2.17c.18 1.14-.8-.44-.76.58-.51-.21-.82-1.34-1.15-1.18h.24c-.85-2.36-2.28-2.25-3.22-2.83-1.88-2.17-2.39-3.43-3.85-5.26a1.9 1.9 0 000-2c-.61-.09-2-1.68-2.6-1.53.79 1.5 1.19.84 1.88 1.57 0 1-.43.41-.06 1.54-.34-.88-2.67-3.2-2.81-4.34l.27.25c-.65-1.51.32-2.57-1.92-4.26l-1-.85a.62.62 0 00.2 0c-1.15-1.74-.29-1.65-2-3.24.14.12.12 0 .26.12-.5-1.26-1.78-2-2.46-2.71 0-.76.47-.15 1 0a14.67 14.67 0 00-4.57-4.4l-.63-1.37c.67.6 1.7 1.2 1.78.81-.55-.61-.64-.35-1.24-1.35a5.52 5.52 0 011.5.44c-1-2.24-1.19.19-1.4-1.71a1.22 1.22 0 00-1.39-.58l-.4-1.38c-.47.15-1.47-1.2-2.18-2.05-.24 0 .12 1 .51 1.24-.34.15-1.17-.7-1.6-1.31.64-.81-3-3.88-1.58-3.84-2.26-2.54-5.25-6.22-7-7.7-.25-.73-1.18-1.9-.26-1.5a14.91 14.91 0 00-2.52-2.35 10.05 10.05 0 01-2.41-2.39c-.06-.25.8.91 1 .63-1.44-1.07-1.76-2.71-3.82-4.53a.68.68 0 00.68.26c-.09.15-1-.59-1.6-1-.21-.35.44.3.38.06a28.15 28.15 0 00-5.23-5.05c-.92-.72-1.89-1.37-2.83-2.1s-1.87-1.53-2.88-2.36c1.14.95 2 .89 2.15.69-.35-.33-.7-.67-1.08-1a14.3 14.3 0 01-2.34-1.24c0-.16-.27-.55.18-.37-1.78-2.42-4.27-1.88-6.83-4.28l4.19 1.54-.58-1 1.89.68c-.69-1-2-.92-1.8-1.39.28 0 .71.42.89.23-.76-.82-1.05-.58-1.77-1a13.94 13.94 0 014 1.93c1.34.94 2.64 2 3.61 2.61.33.18-.4 0-.51 0 .74.58 1 1.18 2 1.86.82.19-.21-.61-.61-1 .3-.22.5 0 1 .4-.22.46 2.52 2.56 2.72 3.56 2.56 2.35.49-1.3 2.74 1.27l.32 1.11a22.52 22.52 0 015.14 4.45l-.33-.34c-.39-.07-.15.41-.08.66 1 1.39 2.43 2.12 2.69 3.25a44.26 44.26 0 015.71 4.78c-.2.92-2.3-1.84-3.23-2.25l1.26 1.55a4.1 4.1 0 00-2.1-1.46c1 1.44 1.86 1.47 3 2.64-.24 0-.19.28.28.87l.52-.13s0 .12.13.33l2 2.14c-.22-.62.1-.91-.36-1.52-.06.39-.5-.08-1-.69.66.33-.25-.76 0-.9a41.5 41.5 0 002.86 3.37l-.15.53c.81 1.22 1.91 2.31 2.4 3.18l-.37-.11c.93 1.48 2.2 2.68 2.74 4.2 1.33 1 2.83 2.28 4 3 .87.22 2.05 4.13 3.72 5.09a11.21 11.21 0 01-1.57-1.09c.6 1 1.71 1.34 1.42 2-1.32-2.25-.32.39-1.13-.47a11.76 11.76 0 002.06 2.35c-1.14-1.61 1.09.08-.27-1.4a13.82 13.82 0 013.58 4.2c-.23.14-.2.39.11 1l.63.23c.43.75-1.33-1.1-.45.4 1.56 1.08 2.78 4.59 4.22 4.52.39 1.39-1.88-1.82-1.18.19-1.05-.72-1.58-2.35-2.3-2.32.81.85-.17.64.25 1.26l1.06.84-.15-.24c1.72 1.45 3.5 4.41 5.2 6.61 1.88 1.54 3.54 2.3 5.16 4.59-.79-.44 1.13 2.06-.46 1 .53 1.23 1.61 2 1.83 1.88a8.28 8.28 0 01-.65-1.21 4.94 4.94 0 011.75 2.13c-.16-.24-.14-.12-.26-.11.67 1.21.66.33 1.37 1-.17.52 1.24 1.79 1.62 2.64l1.31.62c-.78-.3.66 1.08.49 1.48a7 7 0 012.52 2c-.54-.32.58 1.21.26 1.49 1.24 2.16 3.47 2.4 4.49 4.57-.12 0-.64-.18-.29.41a18.24 18.24 0 011.4 1.5c.2.2.35.3.44.23a11.76 11.76 0 013.11 1.84c.28-.42-.91-1.54-1.49-2l-.76-.16c.19-.91-1.21-1.24-1.3-1.74 1.4.33 3.38 3 5.07 4.19-.27-1.37-1.89-3.46-3.43-5.17l.42 1-.78-.92.36 1.23c-.67-.94-1.4-1.61-2-2.42.78.92.56 1.71.21 1.12-.5-1.34-1.14-.88-1.77-1.69.33.47.8 1.05.27.86-.84-1.94-1.48-2.12-2.17-3.94-.48.69-1.51-1.73-2.2-1.53l.48.71-1.52-1.1c-.53-1.72 1.45.73.23-1.55-1.41-1.87-2-1.3-3.22-2.71a6.62 6.62 0 012.9 2.24l-.38-.85a13.17 13.17 0 012.37 2.65c-1.5-1 .37.73.52 1.6.45-.18-.29-1 .81-.22a15.63 15.63 0 01-1.73-2.34c1.92 2.7 3.12 1.29 4.65 3.77-1-.9-.22.78-.29 1.05.44.45 1.34 1.36 1.77 1.69l.21-.8c1.3 1.11.58 2.48 2.37 3.52.47-.06-1-1.4-.71-1.18 2 1.77 1.83 3.2 3 5.35a1.45 1.45 0 011.35.07c-.47.07-.23.67-1.06.15a3.18 3.18 0 00.82.94l.13.1.06.05h.25c0-.18.14-.24.27-.32a.94.94 0 00.32-.26.74.74 0 01-.37.37c0 .11-.28.75.07.23-.21.41-.76.83-1.26.42a1 1 0 01.13.2l.05.11h-.24c-.04 0-.26-.35-.51-.7.29.85 0 1-.4 1.08 0-.13.12 0 .1-.14-.37-.6-.8-.92-.87-.66-.84-.1.36 1 .43 1.5l.41.3a2.54 2.54 0 001.82-.7c.31 0 .27.66.48 1.33l.11-.63a2.24 2.24 0 01.31 1.64.55.55 0 00-.12-.37.54.54 0 010 .19v.11l.32.12c.07.07.09-.17.09-.17l.07-.16c0 .15 0 .29-.05.4v.36a1 1 0 000 .24 2.19 2.19 0 00.07.59 6.06 6.06 0 01.21 1.46l.58-1.49c-.45.23-.11-.61 0-.95.19.58.48-.76.7-1v.13a2.54 2.54 0 00.81-1.21 4 4 0 01-.28-.65 1.36 1.36 0 00-.23-.43c-.05 0 0-.06 0-.13v-.51a2.93 2.93 0 01-.36.36c0-.06-.05 0-.07 0a.21.21 0 01-.15-.07 3.36 3.36 0 00-.27-.28s.06 0 0 0 .1-.16.08-.18-.07-.1-.19 0l-.09.06-.07-.07a4.23 4.23 0 00.1 1.58c.24.18 0-.51.18-.43a1.34 1.34 0 01-.38 1.22 4.11 4.11 0 01-.21-.42l-.15.66a6.84 6.84 0 010-1.37c-.15-.48-.12.36-.26.35v.95a.83.83 0 00-.08-.34.84.84 0 01-.09-.34 1.48 1.48 0 010-.21v-.3a8.52 8.52 0 00.07-.94 3.37 3.37 0 01-.12-.48v-.23l.08.38c0-.62.53 1.13.45.1l-.3-.59c0-.06-.05 0 0-.12.26-.34.56-.71.92-1.12-.81 1.34.27.41.24 1.1a4.62 4.62 0 001.32-2.66c.53-.1.92-.15 0 .92.47.58 1-1.52 1.7-1.16 2.81-3.59.4-4.43 4.54-7.9l.1.35c1.89-2.78 3.43-4 5.24-6.43l2.15-1.29c-.25.48-.77 1.94 0 1.68-1.35.36-2 1.46-3.1 2.14.07.23.52-.06.76-.15-.51.57-1 .63-1.58 1.48.15.07 1-.63.55.05l-1.27.72c-1 1.55.28 1.44-1.3 2.94a3.86 3.86 0 01.48-2.32c-.72.69.66-1.17-.12-.65-.45 1.5-1.29 1.68-2.22 3.41a1.78 1.78 0 01.3-.74l-2 2c.73-.3-1.15 2.06-.55 2.2 2.05-2.17 1.25-1.69 3.65-4.08a5.94 5.94 0 00-.85 2.88.44.44 0 00-.15.11c.09.74.54.44 1.26 1.05.46-1.59 1.54-2 2.41-3.63-.18-.59-1.19.35-1.66 1.12l.76-1.42v.39l2.75-2.91a2.33 2.33 0 00-.5 1.42 7 7 0 011.26-1c-.45-.24-.67-.53-.33-.9a10.2 10.2 0 014.08-2.95l.17-.24c-.66 0 .49-2 .61-2.9.38.38 1.09-.77 1.77-1.14-.21-.69-1.18-.85-2.12-.5-.7 1.64-.21 1.08-.15 2.21l-1.41 2.41v-.78c-1.06.9-1.46 2.31-1.86 1.82.16-.82 1.15-1.56 1.3-2.38l-.77.54c.6-1.62 1-.23 1.94-2-.87.18.09-.16.36-1-.72.26-2.12 2.66-2.42 1.63.35-1 3-1.85 3.2-3.44v.12a5.33 5.33 0 001.62-3c.75-.43 1.17-1.56 1.69-2.26l.19.18.69-1c0 .76-.92 1.12-1.55 2l.47.21c-1.25.57-1.1 1.77-1.41 2.79.59-1.35 2.66-3 2.11-3.83l.92-.35.13-.43c.69-.27.73.61 0 1.65-.24.09-.35.13-.39 0a4.27 4.27 0 01-1.24 2.25l.28-.74c-1.15 1.32-2.05 2.66-2.09 3.44a62.72 62.72 0 004.95-5.56c-.41-1.24-.4-2.28-1-3.19a16.28 16.28 0 013.06-4l.09.22a4.26 4.26 0 001-1.47c.62-.41.17.7.57.39l1-2c.31.38-.75 1.94-1.24 2.67.06-.16.19-.48.08-.43-.74.74-1.27 2.75-2.07 2.71-.21.47.21-1.12-.83.23-.9.75-.66 1.41-.57 1.63s1.4-1.2 1.26-.51c.52-.73.45-1.23 1.34-2-.51.73-.78 2-1.41 2.15-.7 1.69.42 2.26 1 1.64-.41-.08 1.59-2.87-.22-1.33.23-1.13 1.37-2.64 1.89-3.92l.05.1.86-1.44c0 .28-.22.76 0 .92l.74-2.32c-.35 1.36.73-.49 1.24-.88-.2-.43.06-1.36-.62-.75s-.14.59-.61 1.36l.17-1.41.12-.06v-.92c1-1.44.6 1.3 1.39-.85l-.76-.14c1.48-2.1 3.93-4.55 4.63-6.32.08.66.51 1.19 1.21.79a22.17 22.17 0 00-1.9 3c-.22.12 0-1.66.83-2.65-1.31-.09-1.06 3.05-2.14 2.54-2 2.45-.29 2.61-2.32 4.47.43.32-.2.76.11 1.14 1.16-.18 1.92-3 3.1-4.32 0 .17-.17.5-.12.61a6.24 6.24 0 001.26-2.32l-.11.06c.37-1.58.83-.6 1.51-1.25.11-.34.91-1.34.47-1.37l1.29-1.14-.55-.24c.46-.81.9-.78 1-1.69l-.43-.31-1.37 1.88c.47-1.09-.26-.55.32-1.7-.26 1.53.79-.72 1.28-.59l.25-1v.28c.62-.5.3-.87.82-1.58a4.54 4.54 0 00-1.83 2.43 19.66 19.66 0 011.2-3.17c.35-1 1.07-1.37 1.63-2.14-.79 1.65 1.68.31-.57 3.19-.05-.11.13-.34.24-.41-.83.06-1.12 1.87-1.3 2.67.43 0 .09.78 1-.29-.46.26-.12-1.45.85-2.41l.58.64 1.11-1.58-.07.17c.84-.32 1-1.8 2-2.74.27-1 2.56-3.93.94-3.09 1.12-.71 1.17-2 1.87-3.11l-1.24 1.16c.65-1.95.64-1.26.8-3.1.28 0 .64-.17.64.23 1.6-2.11 4.1-4.89 4.53-6.5 1.18-1.41 2.12-1 3.45-3.22.25-.49-.87-.17.39-1.32.12-.05-.56 1.64.59.16.36-1.44 2.27-2.18 2.95-3.85.76-.54 1.7-1.8 1.87-1.23a10.79 10.79 0 00-2.24 3.05c-.11-.35-.89.59-.38-.37-1.7 1.42-.67 1.29-2.13 2.62.07.24 1.07-.41 1.21-.85.53.43-2.23 3.19-.47 2.37 1.38-1.57.68-3 2.4-3.89-.15.83-1.15 1.47-1.18 2.64l1.16-1 .31-1.15v.12c2.17-1.61 1-2.32 2.24-4.33-1.23.73-.72-1-1.59-.41.93-1.26 1.71-2.07 2.25-1.64-1.41 2.59.47.59-.73 3.1.48-.18.37 1.14 1.46-.05.78-1.71-.79.05.19-1.49.11 0 .23-.09.27 0 .25-.87.71-.67 1-1.69v.27c1.1-.7.48-1.35 1.5-1.89-.67 0 .11-.82.27-1.53-.82.72-1.75.71-3.05 2.38.16.45.43.47 0 1.27l.84-1.1c-.14.28-.2.52-.31.78l-1 .89c.84-1.48 0-1.16.14-2 1.1-1.07.71-1.05 1.42-1.71.4.45 2.62-1.66 4-2.82l-.51.63c-.49 1.23.93-.39 1.08-.33l.32-.92c-.07.16-.1.44.2.17.67-1.07.15-1.36.8-2.43.32.11.09 1.26.69.73a2.91 2.91 0 002.24-1.84 2.41 2.41 0 01.39-1 1.3 1.3 0 00-.06.19l.92-.72c-.07 1.1-1.3 1.43-1.39 2.53l.39.38a5.6 5.6 0 00-.9 2.1 11.42 11.42 0 001.43-2.25c.37 0 .06.93 0 1.05l-.13-.33c-1.25 1-.92 2.16-2.15 3.62-.19.22-.12 0-.16-.06-.52 1.54-2 2.31-2.41 3.9l.09-.56c-.45.95-1.32 2.83-2.19 4.7l.15.14c.24-.09-.25.49-.57.74-.45.93-.88 1.83-1.26 2.54a2.47 2.47 0 00.81-.56c0-.39 1.35-1.68.76-1.84.8-.45 1.31-1.81 1.86-2.17-1 .67.1-.94 0-1.29.52-.07 1-1.33 1.31-.92.24-.1-.59.24-.67.8-.41 1.21 1.66-1.48 1 0 .94-1.69 2.58-3.59 3.41-5.42l-.81.76c.58-.65 1.71-2.37 2-2.37-.33.56-.78 1.17-1.2 1.89.4.35 1.18-1.61 1.49-1.5l.68-2.47-.63.85c.13-.73 1.7-2.31 2.65-3.63.09 1.18-1.35 2.06-2.1 3.63-.49 1.18 1-.24.48.83a2.11 2.11 0 00.81-1.22l.37-.31c-.05 1.25-1.55 3.12-2.05 4.73a.8.8 0 000-.38 11.11 11.11 0 00-2.26 2.88 1.77 1.77 0 00.75-1c.15.07-.48 1-.6 1.45.83-.76.43.07.95-.42A6.81 6.81 0 01337 313c-.48.2 0-.51-.35-.63-.41.83-1.27.67-1.8 1.93 1.2-1.28.26.81.05 1.41l.2-.21c-.06.67-.34 1-.86 1.13.34-.66.86-1.13.43-1.22a8 8 0 00-.82 1.25l.09-.55-1.48 1.89a8.13 8.13 0 00.18 1.86c-.59.24-.9 1-1.15 1.49l.05-.28c-.88.61-2.16 2.51-2.05 2.85-.68.39 1.85-5.21-1.27-1.05-1.26 1.51 0 1.56-.5 2.63a.12.12 0 00-.16-.07c-.6.62-.37.92-.7 1.55a2.64 2.64 0 001-1.14c.14.46-1.17 1.35-1.34 2.06.06-1.05-1.23 1.11-1.06.4a6.71 6.71 0 00-2.31 3.74c-1.32.41-1.15 1.62-2.55 2.85a7.18 7.18 0 01.72-.94c.24-1.13-1.37 1.35-.74-.21-.15.32.19.18.34-.14.34-.53.52-1.12.25-1.14l-1.27.92.23-.49-1.87 1.46c0 .11.27 0 .39 0-1.82 2-3.27 4.62-4.62 6.51.92 1.12-2.61 5.13-2.87 7.22-.08-.64-.53-1.25-.94-1.13a5.84 5.84 0 01.76-2.18c.27 0 1.12-.88.93-.1 1.29-2.31-.71 0-.73-1-1.46 2.56-1.67 4.47-2.36 6.23l-.17-.05-.47 1.37c.68-.93 1.33-.47.31.65l.06-.17c-.73.55-1.32 2.27-2.07 3.38l-.09 1c-.76 1.11-1.51.71-2.18.81-1.18 1.75-1.25 3.16-1.74 4.66-.68.37-2.56 3-2 1.31-.82 1.77 1.05 2.62-1.83 4.69l.23-.91c-1.81 2.64-4.09 6.63-5.31 7.5-.26-1.7-3.52 2.19-4.84 1.78.32.07-.37 1-.37 1.25a1.08 1.08 0 00-.76.83c1-.75.44 1.51 1.56-.58a7.84 7.84 0 01-2.3 4.95l-.38-.38 1.46-1.42c-.43-.1.28-.87.42-1.31-2.7 2.65-.6-1.18-3.08 1.77 0 .5.06.23-.49 1.07.29-.36.07-.67-.43-.1l-.16.82c-1.54.43 1-2-.19-1.59.67-1.39 2.19-3.48 1.37-3.56-1.78 1.67-.49 2.48-2.38 4.18h-.4c-.43.8-.18 1.21-.29 1.76-.15-.07-.39 0-.8.42-.47 1.57-1 2.41-1.36 3.93 2-3.13 2.43-2 4.56-5.21-.23.59-1.87 2.71-1.42 3.31l-.38-.37a11.75 11.75 0 01-2.33 3.26l.38-.9c-1.05 1.77-2.81 2.05-3.16 3.84a4.82 4.82 0 00.84-1.08 13.27 13.27 0 01-2.14 2.72l-.78 2.35c-.2-.18-1.1 1-1 .15-1.34 1.06-1.21 2.16-1.65 3-1.45 1 .65-1.32.2-1.89a17.54 17.54 0 00-2.1 2.74 27.68 27.68 0 00-2.1 4c.51-.56.78-.81.85-.68-.18 0-1 1.32-1.52 2.05l-.14.88c-.92 1.09-.88.64-.38-.7a16.94 16.94 0 00-1.06 2.17 4.53 4.53 0 01-1.24 1.84 25.92 25.92 0 011.86-3.5 26.08 26.08 0 001.47-2.48c-.3.54-.59 1-.85 1.38a13.54 13.54 0 01-2 2.48 16 16 0 00-3 4.58c-.06-.22.37-1.57-.18-.65-.11.21-.2.39-.26.53-.23.13-.38-.08-.44 0s0 .2 0 .39c.06.37.22.88 0 .88l.33.31c.11.09.19.06.28.1a4.37 4.37 0 011.81-2.08l-.22.93c-.09-.14-.79 1-1 1.15l-.09 1.27c0-.44-.18-.57-.42-.48-.23-.26-.56-.88-.91-1.35a5.92 5.92 0 00-1.05-1.18 6.73 6.73 0 011.16 3.1 5 5 0 01-1.77-2 5.69 5.69 0 00-1.93-2.19c.19-.09 1.77 1.53.44-.26-1.1-1.32-1.07-.53-1.9-1.26 1 .39.91-.34 1.9-.14a24.66 24.66 0 002.54 2.62l-1.45-2.37c1.49 1.6 1.08.34 1.2.18-1.16-1.76-1.59-2-2-2s-.71 0-1.49-1c-.9-.5 1.5 1.87.16.88-1.54-1.91-.44 0-2.36-1.87l.41.1c-.4-.95-1.12-1.19-1.8-1.9-.39-.34-.46.28-.79.57s-1 .18-2.65-1.75c.27.09.39.09.43.05a11.65 11.65 0 005.34-.52c-.57-.66-1.15-1.36-1.75-2.07l-.89-1.08-.76-.95c-1-1.3-2-2.67-3-4.07.14-1.16 2.11 1.41 2.27 1L253 396c-.33.17-2.19-2.42-1.77-.93 2 1.93 2.46 3.14 4.79 4.72 0-.69-.58-1.28-1.26-2a7 7 0 01-1.74-2.32 6.32 6.32 0 001.35 1.34l-3-4.13-.42-.17c.71 1 1.2 1.68 1.25 1.79-1-1.29-2.23-2-2.78-1.7l.17.23-.53-.32zm-64.95-81.95a.86.86 0 00.32 0c-.11.02-.1.1-.32 0zm84 86l-1.83 2.25c-.56.68-1.08 1.33-1.54 2a13.19 13.19 0 012.82-1.42c.51 0 .08.89-1.77 3.73l-.19.48a11.05 11.05 0 001-1.32c.38-.56.8-1.2 1.18-1.83.09-.33.22-.84.34-1.39l.33-1.65a10.67 10.67 0 00.3-2.07c-.51.1-.54.78-1 1.28zm2.58 0c.85-.88.46-.83.38-1.13-.24.36-.48.71-.7 1.07.14-.04.3-.05.3.11zm.14-1.22a.81.81 0 01-.23.21zm-14.25 4.49l.09.08-.53-.7a3.05 3.05 0 00.44.67zm1.32 2.48l.39-.24-.51-.68a1.44 1.44 0 00.12.97zm5.65 7.22c.23-1.45 1.23-3.19 1.07-4.16 0-.32-.21-.08-.45.21l-.78 1.22a2.58 2.58 0 01-.1.69c.28-.33.51-.41.48.4-.51 0-.61.57-.78 1.38a2.65 2.65 0 01-.12.37c0 .12-.11 0-.18 0a1.38 1.38 0 01-.57-.57c-.12.1 0 .37.2.71.11.16.24.34.38.52l.21.26a1.34 1.34 0 00.18-.07 5.8 5.8 0 00.46-.91zm62.94-88a2.89 2.89 0 00.52 0l-.39.94c-1.21 1.24-2.8 1.73-3.19 3.42a3.31 3.31 0 01-1.68.55c.25-.26.48-.49.7-.68 1.91-4.09 2.38-.98 4.04-4.2zm-13.21 15a.36.36 0 000-.28 37.56 37.56 0 01-3.84 8.44c.6-.1 1.9-1.48 2.54-2.12v.94l-.61.19-.33 1.4c.5-.14 1-1.1 1.64-1.56-.05-.11.72-2.4.82-3.12l-1.34 1.36a22 22 0 002.13-3.36c-.21-.17-1.5 1-1.15 1.51-.43-.05.66-1.68-.38-.88a12.17 12.17 0 012.92-4l.64.24c.9-.81-.15-1.12 1-2-.94 1.47.75.2 0 1.33.46-.2.56.41 1.35-.72 0-1.44 1.31-.83 1.37-2.15.66-.4-.07.93.9-.11.66-1.57.35-1.7-.08-2.17-1.09 1.1-.43 1.86-1.32 2.75l.7-2.63a2.38 2.38 0 00-.78.78 3.27 3.27 0 00.47-1.29c0-.25.07-.46.11-.66-.9 1.11-1.69 2.1-2 2.11l-.12-.34a2 2 0 00-.92 1.46c-.76 1-1.17 2.32-1.66 2.31l.07-.56c-.91 1.36-.98 1.56-2.13 3.14zm-30 41.55c1.46 0 2.91-.12 5.64-3.64l-.17.32c2-1.27 2.09-3.94 4.38-5.6a7.82 7.82 0 00-.65 3l.66-1.3c.23.69.86-.63 1.53-1.44v1.17c-.55.38-1.63 1.61-1.48 1.67.16-.33-2.06 1.11-2.78 2.28.47.22 2.15-2.15 1.95-.64.46-1.1.93-.9 1.55-1.93-.46 1.1.34.64.08 1.52.37-.54.74-1.08 1.1-1.63.17.07-1.52 2.45 0 1.58.3-.76 1.86-2.25 1.47-2.6l.15.06c1-1.1-.18-1 1.15-2.24-.2-.18-.55 0-.9.55s0 .79-.64 1.73c-.64.15.88-1-.16-.85-.51.09-1.6 2.54-1.7 1.4l1-1.09c-.39-.35.28-1.17-.07-1.41.39-.82 1.36-1.15 1.54-2.16-.05-.5-1-.35.17-1.39 1.33-.5 3.19-3.46 3.79-4.61l.34-1.13c-.32-.09-1.15 1.83-1.1 1l.86-1.54.09.22a5.73 5.73 0 00.69-1.59c0 .66-.8 1.65-.2 1.73.54-.63.79-.63 1.11-1.33-.06.16-.09.31 0 .34 1.1-1.3.35-1.7.42-2.15.28-1.81-1.47 1.08-1.83.59l2.33-4.31c-.07.45-.14.9.14.89.84-.89.38.2 1.24-1.25-.71-.29.71-2.06 1-3.3.55-.31.66-.38 0 .67.49.13 1.18-1.36 1.52-1.83.07-.35.31-.87.41-1.24-.46.29-.61-.05-.23-1.06l-.06-.1c-1 1.4-2.88 3.41-3 4.6l-.05-.39c-1.4 1.48-1.53 4.16-2.8 4.46-.27-.27-.28.29-.71 0l-.43 1.46v-.38l-1.24 2.16-.05-.11c-.23 1.26-.42 2.25-.57 3 .19.13.3.11.22.53a2.29 2.29 0 01-.46.86c-.4.47-.91.63-1.45 1.17l1.27-1.95c-.22-.38-.66-.43-1.53.35.25-.39.11-.72-.25-.28 0 .11-.65 1.39-.08 1.11-1.14 1.9-4.06 4.12-5.54 7.17 1.12-2.15-1.59 1.18-.08-1-1.63 1.06-.52 1.62-1.79 3-.27 0 .68-.78.61-1.4-2.16 2.28-2.62 4.73-4.76 6.93l-.46-.22zm-3.54 5l-1.07 1.44.12-.12-.86 1.59c.85-.7 1.73-.89.92.43-.07-.23-.55 0-.29-.53-.89.58-2.57 2.1-1.62 2.13.75-1.94 1 .27 1.62-1.24-.18.94-.87 1.42-1.22 2.15.22-.88-.81-.45-1.74.37-.25.48-1.28 1.51-1.68 2.32.55 0 .27.8 1.26-.24a4.85 4.85 0 01-1.44 1.74c.17-.33.53-.86.37-.93-.69.2-1.11.75-1.49.93l-.51.76a.52.52 0 01.26-.08l-.31 1c.66-1.19.54-.36.74-.18-.39-.36-.58.64-.85 1l1.05-.44c-.07.55-1.36 1.08-.77 1.22a23 23 0 003-3.79l-.83.33c1.13-1.87 1.41-.56 2.95-2.42.33-1 2.34-2.79 1.77-3.34 0 .38 1.51-.69 1.79-1.55.06-1.17 1.83-3.33 1-2.92-.5.57-.87 1.59-1.62 1.74l.84-1.2-.92.46c.46-.23.12-.45-.47-.66zm-18.41 14.42z" transform="translate(-174.4 -149.32)"/><path class="arrow" d="M337.9 302.65c.09-.45.7-1.28.26-1.33.37.22-.99 1.55-.26 1.33zM339 301.87c-.05-.12-.21-.17 0-.56l-.63 1.11zM342.09 302.42a3.93 3.93 0 01.79-2.05c1.09.23-.69 1.6-.16 2.53 1.16-1.56.72-2.56 1.5-3.95-.78.45-2.74 2.99-2.13 3.47z" transform="translate(-174.4 -149.32)"/><path class="arrow" d="M168.3 154.55l.41-1.03-.11.06-.41 1.03.11-.06z"/><path class="arrow" d="M321.45 316.43c-.31-.13-.49.58-.66.9a2.11 2.11 0 00.66-.9zM205 322.38c-.92-1-1.89-2-2.83-3.06s-1.89-2-2.89-3c.86.85 1.65 1.69 2.54 2.67zM306.62 339.53c.93-2 1-3.15 2.18-5.12-2.24 2.12-1.35 3.84-3.25 5.57zM304.86 337.47c.71 0-.32 1.83.23 1.8.68-1.34-.12-.9.67-2z" transform="translate(-174.4 -149.32)"/><path class="arrow" d="M144.41 185.77l-.13.7.21-.48-.08-.22zM125.61 196.96l.01-.28-.74.83.73-.55z"/><path class="arrow" d="M300 345.72z" transform="translate(-174.4 -149.32)"/><path class="arrow" d="M144.97 187.21l.67-.68.05-.54-.72 1.22z"/><path class="arrow" d="M311.89 341.59l.31-.83c-.06.17-.92 1.02-.31.83z" transform="translate(-174.4 -149.32)"/><path class="arrow" d="M121.93 202.42l-.36 1.01.1-.06.36-1-.1.05z"/><path class="arrow" d="M309.7 348.24c.71-.27-.8 1.55.2.71.51-.95.1-.72-.2-.71zM300.2 357.49a1.17 1.17 0 00-.18.41zM300.2 357.49c.25-.39.65-.68.71-1a1.83 1.83 0 00-.71 1zM297.33 362l.27-.33c-.05.49 0 .3.1-.12.24-.38.1-.44.05-.55v-.32l-.07.39c-.39.56-.61.93-.35.93zM279 372.3c1.13-1.05 1.45-1.29 1.68-1 1-1 .41-1.26.86-2-.98 1.28-1.33 1.42-2.54 3zM281.57 369.3l.34-.46a2.67 2.67 0 00-.34.46z" transform="translate(-174.4 -149.32)"/><path class="arrow" d="M129.74 209.63l-.06 1.13.13-.35-.07-.78z"/><path class="arrow" d="M277.39 373.9c.21-.2.49-.56.74-.65-.23-.25-.94.85-.74.65zM286.7 374.08c.27 0 .81-.82 1.14-1.08-.41.42-1.23.34-1.14 1.08zM275.59 378.24c.21-.21.69-.38.79 0 .14-.46.03-1.32-.79 0z" transform="translate(-174.4 -149.32)"/><path class="arrow" d="M110.4 226.87l.24-.09.52-.96-.76 1.05z"/><path class="arrow" d="M291.38 376.79c.45-1.21-2 .8-1-1-2.08 1.76.61.25-.73 1.71.89-.82 1.67-.92 1.73-.71z" transform="translate(-174.4 -149.32)"/><path class="arrow" d="M289.67 377.46a3.59 3.59 0 00-.39.39zM276.55 388.37a2.42 2.42 0 00.14-.4 1.9 1.9 0 00-.14.4zM285.81 382.46l.69-1.79c-.47 1.2-2.47 3.45-1.86 3.73a4.82 4.82 0 001.49-2.19zM263.38 390.86l.29-.81c-.23.25-.45.51-.68.77.26-.18.32.54.39.04zM262.87 391l.12-.15a.51.51 0 00-.12.15zM278.51 385.6a5.37 5.37 0 001-1.24c-.28.08-1.31 1.1-1 1.24z" transform="translate(-174.4 -149.32)"/><path class="arrow" d="M87.79 244.78l.08-.31-.14.28.06.03z"/><path class="arrow" d="M261.24 393.56v-.17V393.56zM271 401.92a5.64 5.64 0 00.81-1.62c0-.28-.06-.47-.17-.42s-.46.62-.68 1l-.73 1.12c.76-.19.38-.65 1.38-1.82-.19.52-.38 1.12-.61 1.74zM240.13 369.37c.49.09 1.43 1.64 1.23 1.91-.26-.1-1-.8-.75-.18l1.53.62c.75 1.82-1.75-.47-2.56-1.05 1.1 1.61 1.88 1.74 3.15 3.36a3.27 3.27 0 01-.45-1.32c.43-.42 1.4 1.26 2.29 2.31-.34-.84.14-.58.72-.23a.56.56 0 00.22.14l.2.12-.1-.13c.06 0 .1-.11.11-.27-.85-.8-1-1.8-1.45-2.38-.31 1.17-1.71-1.85-2.51-2.41l-.72-.8-.24-.31c0-.13.21-.12.72.25-.45-.29-1.42-1.69-1.58-1.38l-2.32-3.12a1.21 1.21 0 01-.07-.36c-.12-.07-.18-.06-.21 0-3.35-4.56-6.65-9.21-10-13.92.43.74.67 1.47 1.08 2.25-1.27-.72.74 1.24 0 1.27a3.68 3.68 0 01-1.14-1.61c-.36 0-.15.77-.5.91.93 2 2.32 1.44 3.36 3.3-.35.14-1-.21-.15.89l-.26-.24c1.61 1.58.32 1.89 1.94 2.45l-.45.28a16.9 16.9 0 012.75 3h-.12c2.29 2.16 1.12 1.33 3.36 4l-1.43-.91c.5 1.11 1.19.93 1.65 1.66-.12 0-.31.4-.87-.2 1.08.94 2.16 1.88 3.25 2.79.97.52.24-.43.32-.69z" transform="translate(-174.4 -149.32)"/><path class="arrow" d="M242.73 374a3.69 3.69 0 00.45.62zM226.67 349.21l.7 1a6.46 6.46 0 00-.7-1zM247.35 378c-.24-.74.64.18.87.15l-1.63-2c-.15.13-.49.07-.6.23z" transform="translate(-174.4 -149.32)"/><path class="arrow" d="M246.43 375.33a1.54 1.54 0 01-.72-.28l.88 1.11c.12-.11.13-.32-.16-.83z" transform="translate(-174.4 -149.32)"/><path class="arrow" d="M63.71 232.97l-.3-.36-.57-.46.87.82z"/><path class="arrow" d="M234.3 376c.09.63.93 1.33 1.21 1.56a14 14 0 00-1.21-1.56z" transform="translate(-174.4 -149.32)"/><path class="arrow" d="M58.21 229.84l-.87-.84.02.13.85.71z"/><path class="arrow" d="M219.78 343l-.36-.46a3.92 3.92 0 00.36.46z" transform="translate(-174.4 -149.32)"/><path class="arrow" d="M226 351c-1.12-2.63 1.45 1.22 1.57.06l-1.08-1.1h.24l-1.12-1.49c-.07.51.08.76-.27.9-1.31-2.12-.1-.89-.77-2.65l-1.65-2.24.22.12a.8.8 0 00-.34-.28c-1.88-2.52-3.76-5-5.69-7.55-1.25-1.23 0 1.16-1.15.44 1.17 1.62 2.59 4.24 3.28 4-.13 0-.36 0-.2.39l1.15.59-.48-1c1.16.59 3.22 3.72 3.3 4.48-1.39-1.61-1.37-.33-2.76-3-.07.22 0 .85-.49.37 2.24 2.69 3.7 5.42 6.24 7.96zM204.94 323.18h.07c-.07-.05-.1-.05-.07 0zM205.62 324.15l1.64.88-1.74-2-.51.16c.24.11 1 .67 1.11 1.08zM208.85 326.31c-1-.94-1.45-.51-1.18.24-1-.81.07-.92-1-1.21-.31.29.87 1.35 1.16 1.58z" transform="translate(-174.4 -149.32)"/><path class="arrow" d="M40.37 185.26l-.42-.16.51.8-.09-.64z"/><path class="arrow" d="M214.34 334.42l-.51-.8a1 1 0 00-.22.52zM212.48 331.54a12.49 12.49 0 00-.76-1.16c.28.38.52.77.76 1.16zM213 332.49v-.07l-.57-.88zM213.83 333.62c.24-.37.48-.77-.43-1.8l-.35.6z" transform="translate(-174.4 -149.32)"/><path class="arrow" d="M53.51 222.54l-.83-.73.02.13.82.73-.01-.13z"/><path class="arrow" d="M224.59 366.63a5.35 5.35 0 00-.57-.39 1.42 1.42 0 00.57.39zM219.63 364.53c-.38-1.27 1.45 1.1.26-.91.2-.39 1.23.21 1.71 1.22-.35.14-.81-.74-.72 0 .76.35.68.74 1 .21a9.9 9.9 0 002.15 1.16c-1.06-1.06-2.38-3.92-4-5.05-1.13-.46-1.51.57-2.29 1.11-.15.29 1.32 2.54 1.89 2.26zM220 366.7a2.92 2.92 0 00.7.87c.21-.27-.42-.5-.7-.87zM218.21 351.68c-.17 0-.91-.77-1-.45l1 1.2a.8.8 0 010-.75zM218.75 353l-.46-.52a2.43 2.43 0 00.46.52zM218.24 351.57v.11s.03-.02 0-.11zM210.27 328.28c.22-.14-.34-.62-.63-.86a3.78 3.78 0 00.63.86zM191.26 308.49l-.33-.59a1.26 1.26 0 00.33.59zM179.24 307.42a.27.27 0 01-.18 0 .23.23 0 00.18 0zM179.06 307.44c-.45-.11-1.29-1.14-1.85-1.16h.1l-.8-.36a10.37 10.37 0 002.55 1.52z" transform="translate(-174.4 -149.32)"/><g><path class="arrow" d="M260.55 152.91c-.07-.51.22-1 .37-.78-.43-1 0-1.07-.73-1.17-.39-.65.08-1.39.4-.64l-.25-.9 5.12-.1.23 1 .11-1-5.79.11v.14a.37.37 0 01-.15-.13l6.1-.12c.32.47-.26 1.75.37 2.08v-2.08l-6.75.14 6.8-.14.18.09a.46.46 0 010-.09l-7.09.14a3.42 3.42 0 01.08 1.63c-.1 0-.26 0-.3-.37.06 2.52 1.09.63 1.38 2.71a1.38 1.38 0 01-.08-.52zM259.16 155.11l.8.85-.13 1.48c.26 0 .52 1.07.72.33a1.7 1.7 0 01-.12-.64c.57.14.36 1.94.92 1.49-.2-1.16-.09-1.35-.58-2.05a7.77 7.77 0 01.29-2.36c-.1-.31-.45-.34-.53-.74v.27l-.85.08a2.33 2.33 0 01.16 1l-1.07-1.67c-.78.59-.24 2.26-.54 3 .71-.9.42.62.93-1.04zM260.53 153.47zM267.05 282.52a.54.54 0 00.31.53l.07-4.14c-.23.13-.53 1.31-.65.51A1.65 1.65 0 00267 281l-.34-.31c.42 1-.45 1.6-.7 1v.08l1.64 2.68c.13-.97-.55-.76-.55-1.93zM262.7 367.47c-.05-.54-.13-.61-.21-.56a2.09 2.09 0 00.21.56zM268 285.07l.51.84a3.07 3.07 0 00-.51-.84zM260.1 279.19a.09.09 0 00-.1 0l.27.37zM269.5 303.93v.28a1.27 1.27 0 000-.28zM257.25 268l.49 1.83c-.24-.24-.18.64-.45.25 0 .14.12.8.25.62v-.37c.69 1 1 .39 1.48 2a1.76 1.76 0 00-.26-2c0-.18-.06-.33-.09-.48l-1-1.54zM260.17 341.66h-.06a.07.07 0 00.06 0zM259.89 341.54l.22.1c-.11-.11-.19-.49-.22-.1zM267.55 284.76a1 1 0 01.45.31l-.38-.62a2.6 2.6 0 01-.07.31z" transform="translate(-174.4 -149.32)"/><path class="arrow" d="M266.05 283.32l-.07-1.55-.35-.58c.13.6.21 1.29.42 2.13zM270 301.49c0 3.22-.8-.81-1 .66.07.9.46 1.22.56 1.78-.26-2.56 1.28.39 1.14-2.19.7.39.73 1.88.5 2.75-.71 1-.47-.88-1.13-1.13.08 1 .21.86.57 1.31-.21 1.62.73 3.39-.25 4.32.11 1.18.44 1.12.77 1.8.73.16.44-1.73 1-2.15-.06.09-.19.26-.29.21l.19-1c-.29 1-.73-.16-.77-.68s0-1.12.19-1l.14.57c.25-.72-.48-1.63-.06-2.38.17 0 .24.25.34.3a13 13 0 01-.74-3l.7.76c-.77-1-.48-3.36 0-4.95-.13.17-.22.49-.36.3-.15-.95.37-1.65.74-1.2-.58-.94.6-3.5-.15-4.78l-3.54-5.86a2.34 2.34 0 01.18.69c-.64.51-.57.8-1.15-.14.32.91.83.58.83 1.94-.31-.54-1-.69-1.13.6.55 3.26 2.29 5.46 3.13 8.51-.49.1-.41 2.49-.56 3.64a3.4 3.4 0 01-.72-2.21c0 .56-.09 1.52-.13 2.23z" transform="translate(-174.4 -149.32)"/><path class="arrow" d="M268.54 293.91a1.09 1.09 0 00-.1.25.49.49 0 00.1-.25zM269.11 298.67h-.05v.29zM266.43 285.5c-.13-.2-.17-.34-.31-.54a4 4 0 01.12.41c.07.14.13.21.19.13zM267.31 284.86l.19.11a2.09 2.09 0 00.05-.21.18.18 0 00-.24.1zM265.16 313.63l.09.31a.4.4 0 00-.09-.31zM269 305.05c0-1.12-.72-.15-.67-1.74l-.06.47a22.93 22.93 0 01-.08-4.49c.29.16.38-.81.83-.64a4.13 4.13 0 00-.61-2.32c.17-.57-.22-1.45 0-2.17-.28.3-.89-1.06-.61.72 0-.15-.1-.06-.13-.2-.41 1.13.22 1.6.2 2.58-.28.58-.41-1-.53-.42.22 1.23-.43 3.83.59 3.78a1.39 1.39 0 01-.37 1.27c1.05 1.44-.63 5.22.75 5.25a7.56 7.56 0 00-.25-2.12zM266.47 287.37v.22zM270.74 273.34l.89.48a57.37 57.37 0 01-.11 6c-.12.18-.2-.11-.23-.25.07 1.64-.17 4.09.22 5.29 0 .52-.33 1.88-.59 1.36a2.14 2.14 0 01.12.84c-.33.07-.08-.66-.35-.68 0 .23-.09.32 0 .38-.27-.4-1.11.38-1.05-1.44.77-.68.06 1.26.91.87 0-.61-.31-.54-.41-.6 0-.76.24-.74.43-.69-.25-.3.13-1.26-.26-1.68 0-1.49.63.1.64-.88l-.84-.57.19-1.62c-.25-2.35-1.47.31-1.89-2.38.43.36 1.2-.7 1.4-2 0 .75.54 2.14.27 3.1.69-1.35 0 1.87.82 1.18a4.21 4.21 0 01-.16-2.67l.07.29c.1-.93-.76-1.65-.41-2.92 0-.64.22-.52.42-.4-.11-.53-.27-1.02-.08-1.01zm.16 1.39l-.1.85a1.28 1.28 0 00.1-.85zM259.76 167l.06-.26a.5.5 0 00-.06.26zM260.84 242.19v-.49a3 3 0 000 .49zM258 231.18l-.2-.71a1.59 1.59 0 00.2.71zM259.91 172.81a.54.54 0 01.05.11zM259.75 209.08a1.49 1.49 0 00.19-.4c-.09.02-.15.17-.19.4zM258.06 231.31l-.05-.09zM258.38 247a2 2 0 00.08.31.85.85 0 00-.08-.31zM260.78 246.35a1.84 1.84 0 00.08.3zM259 263.31l.12.66a1.79 1.79 0 00-.12-.66zM260.22 248.1l.12.1c-.03-.09-.08-.14-.12-.1zM262.13 162.66h.1zM260.82 161.1l-.09-.58a2 2 0 00.09.58zM260.93 199.45c.12-.17.26-.59.4-.4-.18-.33-.61-.3-.4.4zM267.55 165.68a1.74 1.74 0 01-.3-.36c.13.24.24.45.3.36zM267.25 165.32c-.07-.12-.14-.25-.21-.35a2.5 2.5 0 00.21.35zM268.06 203.77a.36.36 0 00-.11.21c.11.02.14-.1.11-.21z" transform="translate(-174.4 -149.32)"/><path class="arrow" d="M260.84 160.05c-.2-.1-.75-2.61-.76-.48-.63-.06-.35-1.35-.53-1.91-.13.42-.41-.19-.63 0a2.66 2.66 0 01.26 1.07c-.28.22-.51-.47-.42-1-.31.69-.54-.83-.75.13a10.63 10.63 0 001.58 4.88 9.71 9.71 0 01-.23-3.42l.56.38c-.44 1.1-.05 1.75-.06 2.82l.19-2.41c.41-1.14.54-.39.68.49 0-.3.02-.5.11-.55zM265.68 161.47a.44.44 0 00-.06-.1zM270 263.3l.21.21c-.06-.17-.13-.23-.21-.21zM270.12 258.16h.05zM258.4 256.71a.13.13 0 00-.08 0c.03.14.06.09.08 0zM270.07 258.16h.05s-.04-.01-.05 0zM268.12 233.18a1.49 1.49 0 00-.18.2c.06.05.11 0 .18-.2zM267.32 238.11a.7.7 0 00-.06.09zM258.51 200.67a3 3 0 000 .57 1.91 1.91 0 000-.57zM270.17 258.19a1.25 1.25 0 01.18.25.84.84 0 00-.18-.25zM265.31 225.69l.06.15v-.09zM265.69 223.11a1 1 0 00.19.18c-.24-.92 0-2.6-.58-2.8 0 .32-.32 1.93-.66 1.66.15.64-.24 1.59-.15 1.93.31-1.05.49-.12.69.59-.16.64-.47-.12-.57.44l.08 1.48.06-1.29.56.39-.05-.14c-.26-2.19.81-.19.43-2.44zM265.88 223.29a1 1 0 00.14.35.43.43 0 00-.14-.35zM266.69 214.3a3.21 3.21 0 00-.1-.39zM265.75 280.09c.16 0 .52-1.31.1-1.29l-.16 1.14zM263.72 189.91a3.08 3.08 0 000 .43l.07.08c.06-.09-.03-.37-.07-.51zM264.44 221.76a.88.88 0 00.2.39.7.7 0 00-.2-.39zM264.73 189.8c.12-.18.3-.45.46-.5 0-.37-.24-.62-.33-1a3.1 3.1 0 01-.13 1.5zM264.85 188.27z" transform="translate(-174.4 -149.32)"/><path class="arrow" d="M265.55 280.85l.08.34-.11-.18-.15.88a2.88 2.88 0 01.07.36.28.28 0 00-.11-.13l-.05.28c.42.71.71 2.46 1 3a6.75 6.75 0 01.23 2c0-.47-.06-1.1-.31-.92-.28 1-1 1.41-.42 3.08v-1l.9 2.21c-.42.76-.45-1.1-.78-1.41.42 1.71-.87 3.1-.07 3.91-.49.09-1.31.26-1.29 1.38.58-.79.34.68.95 0 .27.39-.21 1.24.16 1.32l-.2-.11c-.83 1.88.37 2.54.74 3.37.14 2.29-.2 3.33-.18 5.2-.33.06-1.24.54-1.23 1.29.43.36.57 2.05 1.13 2.24.29-1.33-.43-1.11-.54-1.91.62-.65.59 0 1-.94-.26.72.19 3.32-.39 4.11l-.07-.29c-.38 1.28-1.79 1.47-1 3.64l.32 1a1 1 0 00-.17-.09c-.12 1.67-.75 1.19-.3 3 0-.14-.1 0-.14-.2-.35 1 .25 2.12.35 2.92-.49.47-.46-.13-.79-.44a9.8 9.8 0 001 5l-.33 1.18c-.17-.71-.63-1.6-.92-1.39.07.66.29.54.17 1.46a4.35 4.35 0 01-.93-1c-.58 1.89 1.06.47.07 1.77a1 1 0 00.76 1.05l-.52 1.07c.46.15.43 1.49.47 2.38.19.11.52-.69.35-1 .37.08.5 1 .47 1.63-1 .18-.05 4-1.16 3.19.19 2.72.1 6.54.42 8.35-.29.57-.37 1.77-.79 1-.1 2.18.83 3.36.44 5.51-.13.17.05-1-.28-.92.31 1.44-.55 2.55-.41 4.76a.54.54 0 00-.3-.54c.17 0 .29.91.42 1.49-.11.31-.1-.43-.23-.26-.7 4.21.44 7.52.12 11.74.09-1.21-.53-1.7-.79-1.73l-.08 1.18a10.67 10.67 0 01.43 2.11c-.13.09-.28.44-.41.06-.8 2.29.95 3.72.44 6.55l-1.16-3.4-.5.83-.5-1.56c-.41.88.36 1.73-.13 1.8-.13-.2-.06-.66-.32-.69-.24.86.12.95.17 1.61-.89-1.79-.66-5.16-.79-7-.06-.29.22.26.32.32a10 10 0 00.23-2.12c-.38-.6-.33.43-.4.88-.37-.08-.33-.31-.35-.83.49-.08.34-2.8 1-3.43 0-2.75-1.28.37-.92-2.3l.6-.77a16.59 16.59 0 01-.4-5.35v.37c.23.26.4-.14.53-.32.31-1.31-.3-2.54.3-3.32a38.8 38.8 0 01-1-5.84c.76-.43.52 2.29.94 3l.07-1.58a2.9 2.9 0 00.62 2c.2-1.38-.42-1.86-.54-3.18.19.11.32-.06.36-.67l-.48-.19s.08-.08.12-.26l-.19-2.35c-.23.49-.66.49-.69 1.09.29-.2.32.31.29.92-.3-.55-.3.57-.56.55a25 25 0 000-3.5l.46-.23c.17-1.15 0-2.38.15-3.15l.22.26c.21-1.38 0-2.75.48-4-.47-1.25-.83-2.83-1.33-3.85-.56-.57.88-3.59.12-5 .07-.09.4 1 .6 1.45.13-.92-.57-1.68.06-1.95-.29 2.07.49-.09.62.85a7.72 7.72 0 00-.23-2.48c-.06 1.57-.83-.59-.63 1a9.11 9.11 0 01-.34-4.4c.26 0 .39-.16.52-.7l-.37-.46c.09-.68.41 1.35.59 0-.6-1.45.52-4.27-.67-4.94.51-1.07.41 2.08 1.05.47.41 1-.14 2.26.46 2.59-.14-.94.52-.32.55-.92l-.34-1.05v.22c-.51-1.76-.14-4.52-.17-6.75-.54-1.91-1.39-3.23-1.26-5.5.34.68.4-1.87 1-.42.35-1 0-2.09-.26-2.12a6.74 6.74 0 01-.25 1.1 3.23 3.23 0 010-2.23c0 .23 0 .14.13.19.24-1.09-.3-.53-.42-1.33.46-.24.17-1.75.42-2.47l-.61-1.07c.41.59.18-1 .57-1.17a4.74 4.74 0 01-.64-2.55c.21.48.33-1 .76-1.05.45-2-1.1-3.29-.45-5.14.1.06.37.44.49-.11a11.06 11.06 0 01-.08-1.64c0-.22-.07-.37-.17-.37a8.07 8.07 0 01-1.15-2.76c-.49.1-.32 1.41-.18 2l.47.5c-.74.45.1 1.39-.15 1.75-.85-1-.58-3.62-1.08-5.23-.7 1-.85 3.09-.8 4.94l.31-.81v1l.53-.93c-.1.92 0 1.72 0 2.55 0-1 .69-1.34.57-.79-.5 1.07.29 1.14.24 2 .06-.46.08-1.06.35-.66-.62 1.62-.25 2.07-.9 3.54.81-.17 0 1.86.7 2.1l.08-.69.47 1.47c-.7 1.34-.65-1.21-1.17.84-.13 1.89.72 1.86.75 3.35a4.47 4.47 0 01-.81-2.89l-.25.72a8.4 8.4 0 01-.12-2.88c.53 1.38.18-.64.63-1.26-.47-.12-.41.76-.76-.29a11 11 0 01-.18 2.36c.27-2.68-1.57-2.45-1.13-4.77.19 1.08.68-.37.91-.49a18.35 18.35 0 00-.25-2l-.68.36c-.26-1.36 1.17-1.81.51-3.39-.4-.21-.16 1.38-.23 1.09-.39-2.15.72-2.91 1.26-4.81a1.42 1.42 0 01-1-.77c.41.22.62-.27.9.48a4 4 0 00-.25-2c-.26 1.33-.58-.55-.82-.8.08-.69.4.22.52.64.11-.55.72-1.2.11-1.52.43 0 1.1 1.56 1.2 2.59l.08-.69c.21.48.15.57.07 1.25.34-.67.7-.59 1-.43-.07.09-.1-.05-.17 0-.11.55 0 1 .23.85.56.51.36-.76.65-1.13l-.1-.84-1.8-2.9a4.72 4.72 0 01.54-2.69l-.49-.26c.07-1.07.23-2.07.85-1.38-.17 0-.13.18-.16.41a.28.28 0 01.15.15l.09.06c-.14-1.15-.24-1.86-.26-1.93.69 1.95.89.11 1.76.44l-.26-2c-.29 1.18-.42 0-.54-.41.5-.11 0-1.58.09-2.27l.1.06a7.27 7.27 0 000-2.55c-.16 0-1-1-1.43-1.48-.2 1.36-.39.55-.69.66v-.43c-.14-.19-.19.26-.35.3.22 1.45.28 2.94 1 3.54.31-.45-.29-.76-.08-1.26a5.2 5.2 0 01.33 2.85l-.41.39.2 1.21c-.21-.51-.64-.21-.71-1.48-.38.16.08 1.26-.06 2l.54.4c-.31-.16-.39 1.51-.78.32l-.43-1.93-.37.53-.09-1.62.28.38c-.35-2.61 1.09-.76.46-3.39-.65-.83-.72-1.71-.55-3.32.15 1.17.47.12.85.56.28-1.18-.26-1.59-.51-2.21.35-.3.63-.51.57.55.73.14-.11-1.4.64-1.49 0-3.52-2.4-2.83-1.46-6.94l.3.16c-.38-2.61 0-4.12-.26-6.54l.77-1.9c.12.42.7 1.57 1.07 1-.78.93-.51 1.91-.92 2.91.2.1.35-.3.47-.48 0 .6-.35.91-.22 1.7.16 0 .35-.91.45-.25l-.48 1.08c.23 1.45 1.15.72.93 2.42a2.93 2.93 0 01-1.15-1.63c-.09.78-.26-1-.51-.32.63 1.12.13 1.66.53 3.15-.09-.18-.22-.23-.26-.59l-.27 2.16c.37-.54.4 1.78.95 1.58.24-2.3-.09-1.62.22-4.25a4.35 4.35 0 001.2 2.16.24.24 0 00-.05.14c.54.4.69 0 1.65 0-.67-1.2-.12-2-.51-3.41-.52-.27-.67.82-.53 1.52l-.35-1.25.24.25.17-3.16a1.75 1.75 0 00.56 1.11 4.51 4.51 0 01.31-1.24c-.5.09-.85 0-.84-.36a6.89 6.89 0 011.13-3.92v-.24c-.51.34-.92-1.44-1.44-2.07.52 0 .31-1.05.58-1.64-.6-.31-1.44.11-1.93.83.55 1.37.55.77 1.34 1.41l.53 2.21-.49-.49c-.21 1.1.43 2.15-.2 2.07-.42-.58-.16-1.54-.59-2.11l-.22.73c-.62-1.29.59-.66.16-2.22-.54.57 0-.14-.4-.8-.37.53.15 2.73-.75 2.27-.4-.81 1.06-2.73.15-3.79l.11.05a3.81 3.81 0 00-.75-2.72c.29-.67-.13-1.6-.17-2.32h.27l-.12-1c.48.48 0 1.2.07 2.08l.49-.11c-.57 1 .32 1.69.75 2.48-.44-1.15.09-3.24-.87-3.51l.49-.71-.18-.34c.36-.53.95 0 1.07 1-.12.18-.18.27-.28.22a3.14 3.14 0 01.5 2.06l-.27-.61a5.26 5.26 0 00.66 3.22 51.77 51.77 0 00.18-6.05 15.51 15.51 0 00-2.77-1.53 10.46 10.46 0 010-4.21l.21.11a3.3 3.3 0 00-.08-1.49c.26-.59.54.39.69 0l-.37-1.87c.47.11.49 1.68.53 2.43 0-.14-.12-.42-.18-.33-.19.87.62 2.48-.05 2.86.12.43-.51-.85-.53.58a1.05 1.05 0 00.56 1.37c.27 0 .35-1.51.68-1 0-.74-.39-1-.14-2 0 .74.58 1.74.18 2.13.5 1.46 1.74 1.24 1.8.55-.39.17-.5-2.66-1-.74-.51-.86-.52-2.43-.84-3.56l.1.05-.14-1.4c.14.2.26.62.52.63l-.73-1.93c.5 1.09.32-.68.53-1.18-.41-.2-.72-1-.94-.22s.23.47.27 1.21l-.65-1 .06-.09-.53-.63c0-1.43 1.22.61.68-1.22l-.71.25c.08-2.13.83-4.87.48-6.36.42.4 1.07.58 1.44 0a14.66 14.66 0 000 2.88c-.12.18-.86-1.15-.72-2.16-1.16.51.74 2.53-.44 2.66-.37 2.58 1.17 1.91.51 4.1.52 0 .26.61.73.72.85-.65-.07-2.91.21-4.34 0 .14.12.42.22.47a4.09 4.09 0 00-.19-2.13l-.06.09c-.53-1.23.38-.77.6-1.5-.08-.29.06-1.3-.33-1.13l.48-1.33-.58.08c-.05-.75.34-.92 0-1.58h-.53l-.15 1.84c-.19-.93-.51-.25-.64-1.27.59 1.13.28-.82.77-.94l-.31-.75.14.19c.26-.6-.21-.7-.16-1.4a3 3 0 00-.24 2.4 13.89 13.89 0 01-.69-2.62c-.24-.79.15-1.35.19-2.1.24 1.43 1.59-.53 1.27 2.34-.1-.05-.08-.28 0-.37-.67.39.08 1.71.35 2.33.38-.17.49.48.68-.63-.24.37-.88-.91-.59-2l.84.17.06-1.53v.14c.52-.58-.14-1.62.15-2.68-.31-.75-.14-3.66-1-2.39.5-1-.18-1.77-.31-2.79l-.31 1.29c-.63-1.5-.24-1.08-1.21-2.27.23-.12.41-.4.65-.16 0-2 .14-4.95-.57-6.12 0-1.43 1-1.69.53-3.69-.13-.42-.77.36-.57-1 .06-.1.65 1.26.55-.22-.67-1 .28-2.49-.32-3.85.21-.73.08-2 .59-1.74a7.07 7.07 0 00.33 3c-.31-.15-.27.83-.53 0-.33 1.75.35 1.12.13 2.69.21.1.54-.82.35-1.15.68 0 .42 3.06 1.2 1.65 0-1.67-1.44-2.12-.75-3.58.43.56.1 1.48.85 2.19l.24-1.19-.52-.85.1.05c.57-2.12-.77-1.92-1.18-3.78-.44 1.1-1.2-.21-1.47.61-.13-1.25-.07-2.17.62-2.2.64 2.32.73.11 1.5 2.25.23-.36 1 .48 1.05-.81-.54-1.44-.55.45-.83-1 0-.09.11-.18.22-.13-.39-.66.1-.79-.33-1.58l.15.19c.38-1-.52-1.08-.09-1.95-.5.36-.44-.56-.78-1.08-.16.87-.88 1.37-.78 3.08.42.2.64.06.86.76l-.09-1.11a6 6 0 00.27.63l-.17 1.08c-.34-1.35-.75-.71-1.19-1.27.13-1.25-.15-1 0-1.81.59.06.93-2.43 1.26-3.88v.67c.41 1 .47-.73.63-.78l-.33-.75c.05.15.2.34.27 0-.15-1-.74-.94-.88-2 .32-.09.85.76 1 .12a2.15 2.15 0 00.66-2.31 1.7 1.7 0 01-.29-.85 1.16 1.16 0 00.06.15l.32-.92c.59.75-.2 1.57.4 2.32h.53a3.74 3.74 0 00.57 1.77 7.41 7.41 0 00-.24-2.13c.33-.16.61.56.65.66l-.31-.14c-.39 1.24.58 1.81.54 3.34 0 .23-.06.09-.16.05.55 1.21-.11 2.45.61 3.63l-.29-.38c.25.81.83 2.39 1.4 4h.2c.12-.19.13.42.06.74.28.79.54 1.56.74 2.18a1.79 1.79 0 00.23-.76c-.25-.25-.1-1.72-.65-1.5.31-.69-.2-1.77 0-2.28-.32.92-.54-.61-.85-.76.33-.32-.08-1.35.39-1.24.12-.19-.29.45 0 .83.47.94.32-1.76.78-.59-.38-1.49-.31-3.49-.8-5l-.16.87c.05-.69-.12-2.32.1-2.45.08.51.09 1.11.21 1.76.53 0-.06-1.58.26-1.66l-.95-1.88v.84c-.34-.51 0-2.28 0-3.58.75.72.1 2 .45 3.31.31 1 .67-.64.88.29a1.34 1.34 0 00-.08-1.15l.11-.38c.69.81.63 2.69 1.23 3.92a.56.56 0 00-.23-.23 6.51 6.51 0 000 2.88 1.17 1.17 0 00-.05-1c.16 0 .26.84.45 1.17.16-.88.39-.18.47-.73a4.36 4.36 0 01.11 1.72c-.24.36-.35-.29-.68-.2.22.7-.54 1.06-.13 2.09.09-1.4.72.34 1 .81v-.24c.4.43.43.8.09 1.12-.18-.56-.09-1.12-.47-.94a5.17 5.17 0 00.19 1.17l-.29-.38.15 1.86a7.51 7.51 0 001.36 1c-.29.45 0 1.07.12 1.49l-.15-.19c-.26.83 0 2.65.34 2.8-.25.59-2-4.1-1.64.05.05 1.58 1 .95 1.35 1.85a.13.13 0 00-.16 0c-.05.69.32.75.49 1.31a1.69 1.69 0 000-1.21c.41.2 0 1.45.34 2-.64-.67-.2 1.34-.53.82a4.72 4.72 0 00.65 3.55c-.75 1 .15 1.64-.17 3.16a5.91 5.91 0 010-1c-.52-.85-.21 1.58-.7.26.09.28.26 0 .18-.28-.07-.51-.3-1-.53-.85l-.4 1.25-.13-.43-.56 1.89c.1.05.23-.13.29-.22-.22 2.18.17 4.65.13 6.56 1.4.32.7 4.67 1.59 6.19-.41-.41-1.12-.62-1.41-.36-.06-.34-.64-1-.54-1.81.22-.13.45-1.09.72-.48-.2-2.15-.6.3-1.14-.32.19 2.38 1 3.76 1.39 5.25l-.16.05.33 1.13c.08-.93.87-.9.61.3v-.15c-.32.69.09 2.1 0 3.17l.47.72c0 1.06-.89 1.12-1.39 1.48 0 1.67.68 2.63 1.11 3.81-.36.54-.41 3.05-.89 1.73.35 1.5 2.34 1.17 1.26 3.77l-.37-.66c.1 2.47.84 6 .47 7.14-1.3-.91-1.29 3.1-2.55 3.54.29-.12.39.81.55.94a.72.72 0 000 .9c.25-1 1.31.68.8-1.17a5.48 5.48 0 011.5 4.18h-.52l.15-1.62c-.38.17-.36-.67-.54-1-.29 3-1.23-.39-1.16 2.69.34.3.2.1.34.9 0-.37-.38-.44-.39.17l.42.58c-.88 1.07-.57-1.78-1.19-.86-.41-1.19-.64-3.24-1.31-2.86-.24 1.94 1.26 1.74 1 3.77l-.29.21c.2.72.66.83.94 1.22-.16 0-.28.22-.33.68.68 1.2.81 2 1.55 3.11-.55-3 .52-2.53 0-5.58.22.48.38 2.63 1.11 2.76h-.53a7.48 7.48 0 01.38 3.23l-.3-.76c.37 1.66-.8 2.75.08 4a3 3 0 00-.05-1.12 8.23 8.23 0 01.08 2.85l.86 1.92c-.26 0-.29 1.19-.7.6-.41 1.38.37 2 .5 2.83-.57 1.41-.24-1.22-1-1.37a11 11 0 00.42 5.11c.11-.4.2-.59.33-.57-.17.06-.13.84-.14 1.28l.34.3c-.23.73-.43.62-.69 0-.07.69.59 1.53.08 2.24-.4-1.19 0-2.7-.28-3.32.32 2.48-1.06 2.49-.67 5.63-.16 0-.47-.5-.49.11.11 1.4.71.37 1.08.82a2.46 2.46 0 01.46-2.21l.27.29c-.14 0-.16.72-.3.92l.56.18c-.62-.08-1.12 1-.89 1.85.46-.86.44-.62 1.16-.85.66 1.21-.69 1.35 0 2.7-.2-.1-.33-1.28-.5-.27 0 .84.45.74.6 1.3-.51-.64-.9-.48-1.52-1.18a8.32 8.32 0 00-.19-2.06l-.46 1.23c-.07-1.26-.58-.93-.78-1-.56 2.15.77 1.63.61 3 .35.67.1-1.3.46-.25-.09 1.3.34.3.54 1.76l-.23-.24c-.32.44.06.88.1 1.4s1.83-.62 1.83 1.72a.52.52 0 00-.29-.16l-4.66-2.08a67 67 0 01-.53 7.8c-.88.62-.67-2-1.06-1.8l.2-1.25c.36.08.06 2.61.72 1.5-.21-2.2.21-3.19-.51-5.29-.87.63.12 2.75-.57 4.09a4 4 0 00-.14-1.52l-.43 4.08.2.33c.11-1 .2-1.65.23-1.73-.1 1.29.36 2.39 1 2.49v-.23l.19.47zM262 364.76a.64.64 0 00-.2-.2c.12.05.2.01.2.2zm1.74-109.3c-.11 1.73-.29 3.47-.37 5.12 1.26-3 2.21-5.08 2.16-.08l.08.33a10.12 10.12 0 00.1-2.84 27.29 27.29 0 00-2.18-3.61c-.35.3 0 .75-.08 1.3zm2.09-1.21c.14-1-.14-.76-.38-.91l.08 1c.1-.1.19-.17.33-.09zm-.63-.86a.74.74 0 01-.05.26zm-.51 19v-.1l-.07.7a1.83 1.83 0 00.1-.56zm.64-2l-.46-.24-.06.66a.73.73 0 00.55-.36zm1.57-6.37c-.54-.41-.54-1.76-1.17-1.85-.16-.08-.23.2-.29.52l-.06 1.13a.45.45 0 01.25.23c.09-.39.25-.66.63-.49-.85 1 .59.92.36 2 .47.44.49-1.14.31-1.48zm-2.51-84.85a3 3 0 00.37-.3l.33.76c-.1 1.4-1 2.53-.16 3.76a2.66 2.66 0 01-.91 1.22 5.59 5.59 0 01.09-.78c-1.21-3.4 1.18-1.83.31-4.6zm-.67 16a.31.31 0 00-.15-.2 20.28 20.28 0 011.61 7.29c.45-.33.77-1.84.94-2.55l.54.62-.4.4.49 1.08c.35-.31.26-1.19.51-1.79-.1-.05-.75-1.93-1.08-2.45l-.33 1.52a12.33 12.33 0 00-.18-3.21c-.26 0-.63 1.37-.06 1.53-.38.17-.42-1.41-.82-.4a8.53 8.53 0 010-3.94l.65-.17c.23-1-.8-.63-.45-1.78.16 1.4.71-.25.79.86.23-.36.69 0 .61-1.14-.89-.9.51-1.19-.28-2.05.25-.59.54.62.62-.54-.49-1.31-.82-1.23-1.45-1.29-.14 1.24.86 1.37.74 2.39l-1.14-2a1.52 1.52 0 00-.1.88 2.27 2.27 0 00-.47-1 7.09 7.09 0 01-.33-.46c0 1.14 0 2.16-.22 2.34l-.31-.14a1.33 1.33 0 00.2 1.36c.07 1 .51 2 .12 2.26l-.29-.38a29 29 0 01.27 2.99zm-.15 41.19c1.11-.76 2.12-1.6 1.89-5.16l.08.28c.68-1.8-1-3.49-.2-5.67a5.45 5.45 0 001.37 2.16l-.33-1.14c.61.31.29-.82.31-1.65l.73.73c-.2.5-.27 1.8-.1 1.76-.09-.28-.9 1.72-.68 2.8.48-.11.27-2.4 1.08-1.39-.35-.9.14-1 0-2 .34.9.67.22 1 .89l-.17-1.55c.16 0 .38 2.25 1 1-.26-.62 0-2.27-.48-2.3h.16c.1-1.16-.75-.5-.46-1.93-.27 0-.45.26-.39.77s.48.49.57 1.38c-.41.4 0-1.07-.65-.45-.35.31.31 2.34-.47 1.7l.1-1.16c-.53 0-.51-.86-.93-.83-.2-.71.39-1.38-.08-2.1-.34-.3-1 .23-.7-1 .77-.94.59-3.69.46-4.72l-.35-.9c-.32.09.07 1.73-.36 1.15l-.15-1.4.2.1a4 4 0 00-.3-1.36c.38.43.24 1.45.79 1.24.1-.66.3-.76.19-1.37 0 .13.09.25.17.23.22-1.34-.63-1.28-.82-1.61-.73-1.34-.64 1.36-1.21 1.19l-.36-3.91c.18.33.37.67.59.54.24-1 .43 0 .38-1.38-.75.11-.49-1.69-.94-2.63.3-.45.36-.55.38.43.49-.12.28-1.43.32-1.89-.13-.27-.21-.73-.32-1-.24.4-.55.24-.77-.6l-.11-.05c-.1 1.39-.6 3.54-.09 4.4l-.24-.24c-.4 1.61.93 3.47 0 4.22-.36-.06-.08.32-.6.3l.43 1.18-.25-.25.15 2-.1-.06c.5 1 .9 1.69 1.22 2.28.23 0 .3-.06.48.26a1.51 1.51 0 01.11.77c-.06.5-.38.83-.51 1.44l-.08-1.87c-.4-.15-.8 0-1.06.93 0-.37-.33-.52-.37-.06.11.05.27 1.22.57.77.16 1.77-.84 4.64-.08 7.32-.46-1.92-.51 1.56-.69-.59-.61 1.5.63 1.29.54 2.81-.22.13 0-.83-.42-1.18-.23 2.54 1.05 4.28.86 6.73l-.48.11zm.61 4.86l.17 1.44v-.15l.39 1.42c.19-.87.72-1.44 1-.22-.2-.1-.44.25-.56-.17-.29.82-.58 2.61.16 2.14-.7-1.57.94-.36.42-1.6.48.66.27 1.32.48 1.95-.4-.65-.91.15-1.1 1.13.12.42 0 1.58.19 2.29.45-.26.7.36.82-.79a3.09 3.09 0 010 1.81c-.07-.29-.13-.8-.29-.76-.42.47-.4 1-.58 1.33l.07.73a.65.65 0 01.15-.18l.4.81c-.21-1.08.21-.49.47-.48-.52 0-.07.7-.06 1.07l.57-.8c.27.39-.41 1.37.14 1.17a13.1 13.1 0 000-3.91l-.43.63c-.3-1.74.75-1.07.73-3-.39-.81 0-2.93-.82-3 .24.25.7-1.21.35-1.88-.73-.74-.83-3-1.16-2.3 0 .61.39 1.42-.08 1.91l-.15-1.18-.39.77c.11-.4-.28-.34-.86-.15zm-4.59 26.15v-.05z" transform="translate(-174.4 -149.32)"/><path class="arrow" d="M262.17 162c-.2-.33-.21-1.17-.59-1 .42 0 .13 1.47.59 1zM262.54 161c-.11-.06-.27 0-.3-.38l.16 1zM265.4 159.79a2.56 2.56 0 01-.54-1.68c1-.35.35 1.35 1.34 1.69 0-1.53-.9-2-1-3.21-.45.64-.59 3.19.2 3.2z" transform="translate(-174.4 -149.32)"/><path class="arrow" d="M92.35 11.1l-.27-.84-.06.09.27.84.06-.09z"/><path class="arrow" d="M258.39 179.11c-.32.08 0 .6.1.88a1.42 1.42 0 00-.1-.88zM256.4 345.35v6.47c-.03-1.82.03-3.58 0-6.47zM261.07 200.48c-.35-1.73-.93-2.49-1.11-4.25-.6 2.34 1.09 3.05.46 5zM258.46 199.92c.61-.3.75 1.33 1.19 1.07-.17-1.17-.59-.54-.56-1.6z" transform="translate(-174.4 -149.32)"/><path class="arrow" d="M94 42.5l.33.52-.12-.42-.21-.1zM84.76 58.49l-.14-.18-.18.87.32-.69z"/><path class="arrow" d="M258.88 207.43l.14.19z" transform="translate(-174.4 -149.32)"/><path class="arrow" d="M95.33 43.15l.11-.79-.28-.38.17 1.17z"/><path class="arrow" d="M266.6 199.47l-.21-.7c.04.14-.19 1.1.21.7z" transform="translate(-174.4 -149.32)"/><path class="arrow" d="M84.58 63.81l.25.84.06-.08-.25-.85-.06.09z"/><path class="arrow" d="M268.4 204.93c.47-.5.16 1.39.55.39-.09-.89-.32-.52-.55-.39zM265.37 215.28a.91.91 0 00.07.35 2.15 2.15 0 00-.07-.35zM265.37 215.28c0-.38.17-.75 0-1a1.17 1.17 0 000 1zM265.54 219.53v-.34c.24.34.2.18 0-.12 0-.36-.17-.34-.27-.38l-.19-.22.18.29c.04.56.07.89.28.77zM257.73 235.37c.17-1.24.26-1.56.62-1.5.12-1.17-.52-1-.67-1.7.09 1.33-.09 1.61.05 3.2zM257.68 232.17v-.46a2 2 0 000 .46z" transform="translate(-174.4 -149.32)"/><path class="arrow" d="M95.06 65.18l.57.77-.08-.28-.49-.49z"/><path class="arrow" d="M257.55 237.21a1.81 1.81 0 01.13-.78c-.37-.07-.16 1.01-.13.78zM264.69 232.39c.23-.12.09-.92.17-1.24-.04.46-.71.85-.17 1.24zM259.06 240.76c0-.23.26-.58.57-.43-.18-.33-.83-.78-.57.43z" transform="translate(-174.4 -149.32)"/><path class="arrow" d="M90.24 85.35l.12-.18-.23-.85.11 1.03z"/><path class="arrow" d="M270 231.6c-.44-.95-1 1.53-1.42-.12-.44 2.13.62-.17.56 1.41.15-.89.7-1.38.86-1.29zM269.15 232.89a2.9 2.9 0 000 .43c-.02-.17-.01-.32 0-.43zM266.41 246.38a2 2 0 00-.15-.32 1.54 1.54 0 00.15.32zM269.52 237.91l-.66-1.44c.44 1 .41 3.38 1.06 3.22a3.25 3.25 0 00-.32-2.11zM257.67 254.34l-.25-.62-.08.77c.1-.22.57.18.33-.15zM257.32 254.64v-.15a.3.3 0 000 .15zM266.09 243.66a3.07 3.07 0 00-.09-1.25c-.12.17-.24 1.33.09 1.25z" transform="translate(-174.4 -149.32)"/><path class="arrow" d="M84.2 109.38l-.11-1.02.04 1.11.07-.09zM83.05 114.13l-.13.17.22.85.13-.18-.22-.84z"/><path class="arrow" d="M270.31 257.32c.08-.7-.51-1.24-.63-1.06v1.35c.51-.34 0-.38.12-1.16zM257.71 298.77c-.33-.31-.1-1.77.23-1.84.14.2.25 1 .47.51l-.81-1.18c.57-1.53 1.07 1.2 1.35 2 .15-1.57-.39-2.05-.34-3.72a2.51 2.51 0 01-.49 1.05c-.6 0-.29-1.51-.31-2.63-.27.71-.48.29-.7-.23a.42.42 0 00-.08-.2l-.08-.18v.13a.35.35 0 00-.26.11c.14.94-.37 1.64-.39 2.24 1-.56.16 2.06.44 2.82l.07.88v.32c-.1.07-.23 0-.41-.53.18.42.07 1.8.39 1.68l-.08 3.16a.81.81 0 01-.16.27c.06.11.1.13.15.12l-.4 13.77c.1-.67.34-1.25.47-2 .6 1.08.15-1.14.74-.81a2.28 2.28 0 01-.05 1.57c.3.17.59-.41.95-.33.45-1.72-1-2-.72-3.73.36.08.66.61.65-.5l.07.28c-.35-1.79.87-1.36-.09-2.51l.52.05a11 11 0 01-.36-3.29l.1.06c-.52-2.51-.07-1.4-.25-4.2l.58 1.3c.28-1-.38-1.19-.29-1.88.1 0 .49-.09.57.56l-.85-3.41c-.34-.8-.4.17-.63.29zM258.61 294.51a3 3 0 000-.63c.01.23.01.43 0 .63zM256.25 318.26v-1a3.82 3.82 0 000 1zM257.59 289.62c-.29.58-.37-.45-.57-.55v2.1c.21 0 .43.21.62.17zM256.58 291.77a1.33 1.33 0 01.37.55v-1.15c-.13 0-.27.13-.37.6z" transform="translate(-174.4 -149.32)"/><path class="arrow" d="M93.02 142.5l.01.37.14.57-.15-.94z"/><path class="arrow" d="M266.37 297.64c.32-.44.11-1.29 0-1.58a7.5 7.5 0 000 1.58z" transform="translate(-174.4 -149.32)"/><path class="arrow" d="M95.3 147.2l.15.95.06-.09-.21-.86z"/><path class="arrow" d="M258 325.5v.46a2 2 0 000-.46z" transform="translate(-174.4 -149.32)"/><path class="arrow" d="M257.86 317.44c-.68 2.21-.43-1.49-1.22-.81l.2 1.22-.2-.11v1.49c.36-.29.39-.52.75-.44-.22 2-.46.61-1 2v2.22l-.1-.19a.46.46 0 00.1.34l-.08 7.46c.23 1.37.69-.72 1.18.31.07-1.58.55-3.9-.17-4.06.1.06.29.17.39-.15l-.56-.93-.23.86a6.92 6.92 0 01.09-4.41c.14 1.69.89.88.4 3.2.19-.1.53-.51.61 0-.09-2.69.35-5.14-.16-8zM257 345h-.07.07zM257.12 344l-.65-1.37v2.08l.49.18c-.11-.19-.33-.93-.12-1.21zM256.12 341.1c.16 1.08.75 1 1.05.48.22 1-.66.49-.07 1.2.42 0 .23-1.23.17-1.51z" transform="translate(-174.4 -149.32)"/><path class="arrow" d="M82.41 183.86l.23.31.1-.74-.33.43z"/><path class="arrow" d="M257 333.49l-.1.74a1.27 1.27 0 00.49-.2zM256.67 336.16a8.7 8.7 0 00-.14 1.08zM256.86 335.32h-.08l-.11.82c.06-.28.13-.55.19-.82z" transform="translate(-174.4 -149.32)"/><path class="arrow" d="M256.94 334.23c-.42.1-.86.22-.8 1.29l.64-.18z" transform="translate(-174.4 -149.32)"/><path class="arrow" d="M94.5 154.04l.2.86.07-.09-.21-.86-.06.09z"/><path class="arrow" d="M268.35 308.26a4.64 4.64 0 00.21.52 1 1 0 00-.21-.52zM271.05 312c-.45 1-.51-1.4-.75.45-.39.15-.86-.74-.64-1.6.36.08.2.86.59.33-.4-.59-.11-.8-.66-.62-.31-1-.7-1.11-1-1.78.2 1.19-.45 3.64.21 5.16.63.85 1.55.38 2.5.42.2-.12.37-2.25-.25-2.36zM272.05 310.46a1.9 1.9 0 000-.89c-.37.06 0 .51 0 .89zM264.49 320.84c.14.09.27.94.51.77l-.12-1.28a.61.61 0 01-.39.51zM264.83 319.77l.05.56a1.48 1.48 0 00-.05-.56zM264.41 320.9l.08-.06s-.05-.02-.08.06zM256.29 339.21c-.26 0-.13.54-.07.83a2.48 2.48 0 00.07-.83zM256.18 360.45l-.23.49a.86.86 0 00.23-.49zM262.84 368.56a.33.33 0 01.13.11.24.24 0 00-.13-.11zM263 368.67c.19.35-.21 1.38.1 1.78l-.1-.05.15.72a6.38 6.38 0 00-.15-2.45z" transform="translate(-174.4 -149.32)"/></g></svg>