<svg id="Layer_1" data-name="Layer 1" xmlns="http://www.w3.org/2000/svg" viewBox="0 0 172.49 292.61">
  <defs>
    <style>
      .cls-1 {
        fill: #1d1d1d;
      }
    </style>
  </defs>
  <title>arrow5-black</title>
  <g>
    <path class="cls-1" d="M340.78,291.26c.21-.59,1-.75,1.14-.41,0-1.47.73-1.07-.46-1.93-.23-1.05,1.05-1.32,1.12-.23l.33-2.47-.86,1.11c-.88-.9,1.37-1.77.32-2.82l-1.07,2.25-.29-.3a2.42,2.42,0,0,1-.92,1.83c-.15-.16-.45-.28-.26-.68-1.56,2.55,1.45,1.75.54,4.13A1,1,0,0,1,340.78,291.26Z" transform="translate(-173.37 -131.33)"/>
    <path class="cls-1" d="M336.92,291.93l.74,1.68-1.26,1.28c.43.3.09,1.61,1,1.13a1.39,1.39,0,0,1,.26-.76c.86.78-.81,2.29.44,2.48.52-1.35.85-1.41.53-2.63a6.24,6.24,0,0,1,2.15-2c.06-.42-.52-.83-.39-1.32a2,2,0,0,1-.13.31l-1.49-.83c.11.53-.24.77-.44,1.17-.21-.93-.43-1.86-.66-2.78-1.71-.25-1.92,1.93-2.91,2.25C336.45,291.82,334.9,293,336.92,291.93Z" transform="translate(-173.37 -131.33)"/>
    <path class="cls-1" d="M340.34,291.78l0,0Z" transform="translate(-173.37 -131.33)"/>
    <path class="cls-1" d="M244,392.5a.77.77,0,0,0-.91-.1l4.15,4.9c.12-.55-.73-2.42.26-1.66,0-.81-1.38-1.75-2-1.54l.79-.12a1.25,1.25,0,0,1-1-1.39.78.78,0,0,1,1-.67l-.08-.08-4.73-.43C242.21,392.48,243.07,391.4,244,392.5Z" transform="translate(-173.37 -131.33)"/>
    <path class="cls-1" d="M179.39,309.31c.6.3.77.23.82.05A2.47,2.47,0,0,0,179.39,309.31Z" transform="translate(-173.37 -131.33)"/>
    <path class="cls-1" d="M240.47,391.31l-1.47-.14A3.72,3.72,0,0,0,240.47,391.31Z" transform="translate(-173.37 -131.33)"/>
    <path class="cls-1" d="M256.23,385.17a1,1,0,0,0,.11-.14c-.16.09-.32.18-.49.26h0A2.29,2.29,0,0,0,256.23,385.17Z" transform="translate(-173.37 -131.33)"/>
    <path class="cls-1" d="M222.63,374.84l-.26-.23A1.38,1.38,0,0,0,222.63,374.84Z" transform="translate(-173.37 -131.33)"/>
    <path class="cls-1" d="M260.73,381.15a7.16,7.16,0,0,1-.29,1.23c.1-.62,0-.51.14-1.22a3.64,3.64,0,0,0-.15.62h0c-.19.86-.33,1.45-.46,2a3.31,3.31,0,0,1-.62,1.39c0,1.29.35.52.58-.19a.72.72,0,0,1,.13-.15,16.93,16.93,0,0,0,.51-2.42Z" transform="translate(-173.37 -131.33)"/>
    <path class="cls-1" d="M207.26,327l.11,0A.18.18,0,0,0,207.26,327Z" transform="translate(-173.37 -131.33)"/>
    <path class="cls-1" d="M207.78,326.74l-.41.2C207.62,326.89,208.09,327.14,207.78,326.74Z" transform="translate(-173.37 -131.33)"/>
    <path class="cls-1" d="M241.42,391a2.23,2.23,0,0,1-.95.28l1.11.1A2,2,0,0,1,241.42,391Z" transform="translate(-173.37 -131.33)"/>
    <path class="cls-1" d="M244.9,390.45l1.41,1.39,1.06.14A23.41,23.41,0,0,0,244.9,390.45Z" transform="translate(-173.37 -131.33)"/>
    <path class="cls-1" d="M223.84,377.86c-2.62-3.19,1.92-.16,1.12-1.92-.84-.81-1.71-.67-2.33-1.1,2.48,2.24-2.34,1.17,0,3.59-1.41.46-2.66-1-3-2.15.34-1.83,1.47.31,2.71-.25-1-.94-1-.6-2-.61-1-1.86-3.86-2.5-3.05-4.6-1.12-1-1.58-.58-2.66-.86-1.29.7.65,2.24.05,3.37,0-.17.1-.5.31-.56l.5,1.23c-.3-1.3,1.29-.71,1.77-.24.3.37.91,1.11.5,1.24l-.67-.41c.17,1,2.05,1.05,2,2.32-.23.23-.58,0-.78.09,1.47.32,2.06,1.22,3.61,2.13l-1.74.09c2.07.11,3.49,2.78,4.1,4.95.05-.33-.07-.77.31-.74,1,.76.79,2.1-.16,2.11,1.68.22,2,4.22,4.24,4.52q5.19.63,10.35,1.11a2.3,2.3,0,0,1-.86-.42c.56-1.31.22-1.49,1.88-1.35-1.24-.46-1.76.52-2.88-.77.92.12,2.16-.67,1.25-2-3.56-2.38-8.08-2.3-11.93-4.28.69-.7-1.39-3-2.08-4.31a3.64,3.64,0,0,1,2.93,1.31c-.38-.61-1.1-1.61-1.6-2.38Z" transform="translate(-173.37 -131.33)"/>
    <path class="cls-1" d="M232.3,383.54a1,1,0,0,0-.05-.36A.49.49,0,0,0,232.3,383.54Z" transform="translate(-173.37 -131.33)"/>
    <path class="cls-1" d="M227.5,379.6a.26.26,0,0,0,.09-.05l-.28-.24Z" transform="translate(-173.37 -131.33)"/>
    <path class="cls-1" d="M242.52,388.89c.37,0,.54.1.91.11a4,4,0,0,1-.52-.24C242.7,388.71,242.54,388.73,242.52,388.89Z" transform="translate(-173.37 -131.33)"/>
    <path class="cls-1" d="M241.7,390.61l-.39.16a1.56,1.56,0,0,0,.11.26C241.6,390.92,241.72,390.78,241.7,390.61Z" transform="translate(-173.37 -131.33)"/>
    <path class="cls-1" d="M222,360.09l-.4-.2C221.7,360.07,221.83,360.11,222,360.09Z" transform="translate(-173.37 -131.33)"/>
    <path class="cls-1" d="M222.46,373.18c.91,1.1,1.28-.72,2.48.9l-.28-.53c1.36.8,2.62,3,3.71,4.36-.58.19.06,1.26-.78,1.64.88.82,1.76,1.62,2.87,1.53.2.77,1.53,1.13,1.79,2.1.19-.65,2.26-.11.36-1.46.17.09.19-.07.37,0-.29-1.6-1.66-1.27-2.44-2.25,0-.92,1.43.43,1.18-.26-1.36-.92-2.44-4.27-4-3a1.43,1.43,0,0,1-.43-1.71c-1.39-.08-2.2-1.56-2.92-2.81s-1.34-2.27-2.46-1.46a6.36,6.36,0,0,0,2.08,1.79Z" transform="translate(-173.37 -131.33)"/>
    <path class="cls-1" d="M240.91,387.16c0-.08-.12-.16-.15-.23Z" transform="translate(-173.37 -131.33)"/>
    <path class="cls-1" d="M251.13,411.7c-.42.44-.86.85-1.31,1.25a59.85,59.85,0,0,1-4.67-5.24c-1.25-1.56-2.4-3.08-4.14-5.09-.1-.49.42-.12.68.06-.63-.66-1.31-1.44-2-2.26l-1.92-2.26a7.48,7.48,0,0,0-2.44-2.07c-.41-.52-1.07-2.24-.24-2.06a1.87,1.87,0,0,1-.88-.66c.44-.49.67.52,1.1.2-.15-.25-.13-.42-.33-.34.75,0,1.38-1.79,2.81,0-.61,1.66-1.15-1.12-2.11.35.48.6.92.12,1.12,0,.59.77.25,1-.08,1.23.64-.05.86,1.36,1.8,1.25,1.31,1.37-1,.73-.23,1.66l.88-.27c.31-.06.68-.06,1-.1l2,2.81c1.79,1.66,2.11.9,2.55.22s1-1.32,2.81.1c-.45.15-.58.91-.39,1.94a10.08,10.08,0,0,0,1.43,3.48,20.38,20.38,0,0,0-2.2-1.74,7.75,7.75,0,0,1-2.23-2.44c1,3.27-2.63-2.86-2.68-.57a9.62,9.62,0,0,1,4,4.05l-.49-.33a5.23,5.23,0,0,0,2.18,1.56,4.75,4.75,0,0,1,2.29,2.26c.89.95.55,1.29.23,1.53C250.48,410.88,251.26,411.27,251.13,411.7Zm-2.08-1.87-1.12-1.57A3.3,3.3,0,0,0,249.05,409.83Z" transform="translate(-173.37 -131.33)"/>
    <path class="cls-1" d="M329.18,303.62l.29-.16A.5.5,0,0,0,329.18,303.62Z" transform="translate(-173.37 -131.33)"/>
    <path class="cls-1" d="M272.59,378l.45-.43A2.34,2.34,0,0,0,272.59,378Z" transform="translate(-173.37 -131.33)"/>
    <path class="cls-1" d="M277.25,364.09l.24-.9A1.49,1.49,0,0,0,277.25,364.09Z" transform="translate(-173.37 -131.33)"/>
    <path class="cls-1" d="M324.7,309.08l0,0a.88.88,0,0,1,0,.16Z" transform="translate(-173.37 -131.33)"/>
    <path class="cls-1" d="M295.39,345.31a1.63,1.63,0,0,0,.58-.23C295.81,345,295.61,345.11,295.39,345.31Z" transform="translate(-173.37 -131.33)"/>
    <path class="cls-1" d="M277.21,364.26l.06,0,0-.15Z" transform="translate(-173.37 -131.33)"/>
    <path class="cls-1" d="M264.76,379.55a4.13,4.13,0,0,0-.14.42A.94.94,0,0,0,264.76,379.55Z" transform="translate(-173.37 -131.33)"/>
    <path class="cls-1" d="M269,382a1.35,1.35,0,0,0-.12.41Z" transform="translate(-173.37 -131.33)"/>
    <path class="cls-1" d="M261.42,386.47l-.09.56v0h0A1.84,1.84,0,0,0,261.42,386.47Z" transform="translate(-173.37 -131.33)"/>
    <path class="cls-1" d="M266.7,383a1.86,1.86,0,0,0,.1.25C266.83,383.1,266.79,383,266.7,383Z" transform="translate(-173.37 -131.33)"/>
    <path class="cls-1" d="M336.25,302.53l0,0,.15.13Z" transform="translate(-173.37 -131.33)"/>
    <path class="cls-1" d="M335.35,299.51l.27-.66A1.43,1.43,0,0,0,335.35,299.51Z" transform="translate(-173.37 -131.33)"/>
    <path class="cls-1" d="M304.17,336.38c.33-.06.87-.34,1,0C305.08,335.84,304.35,335.4,304.17,336.38Z" transform="translate(-173.37 -131.33)"/>
    <path class="cls-1" d="M342.41,312.09a2.85,2.85,0,0,1-.17-.73C342.24,311.76,342.24,312.11,342.41,312.09Z" transform="translate(-173.37 -131.33)"/>
    <path class="cls-1" d="M342.24,311.36a4.09,4.09,0,0,0,0-.61A3.16,3.16,0,0,0,342.24,311.36Z" transform="translate(-173.37 -131.33)"/>
    <path class="cls-1" d="M313.06,348.64a.4.4,0,0,0-.34.08C312.94,348.82,313,348.77,313.06,348.64Z" transform="translate(-173.37 -131.33)"/>
    <path class="cls-1" d="M336.17,298.53c-.26-.33.67-3.33-.9-1.33-1-.77.41-1.67.51-2.41-.52.25-.55-.64-1-.76a2,2,0,0,1-.34,1.3c-.61-.1-.49-1,0-1.43-1,.3-.3-1.38-1.33-.72-.92,2.24-1.48,3.88-1,6.33.55-1.31,1.1-2.79,2.15-3.45l.64,1c-1.51.54-1.37,1.59-2.18,2.57l2.09-2c1.5-.61,1.18.25.74,1.24C335.78,298.64,336,298.48,336.17,298.53Z" transform="translate(-173.37 -131.33)"/>
    <path class="cls-1" d="M342.91,305.58l.06,0a.88.88,0,0,0,0-.17Z" transform="translate(-173.37 -131.33)"/>
    <path class="cls-1" d="M264.57,421.87,264.4,423A3.21,3.21,0,0,0,264.57,421.87Z" transform="translate(-173.37 -131.33)"/>
    <path class="cls-1" d="M337.56,304Z" transform="translate(-173.37 -131.33)"/>
    <path class="cls-1" d="M270.35,412.42v.17A.81.81,0,0,0,270.35,412.42Z" transform="translate(-173.37 -131.33)"/>
    <path class="cls-1" d="M262.13,383l-.07-.15A.21.21,0,0,0,262.13,383Z" transform="translate(-173.37 -131.33)"/>
    <path class="cls-1" d="M270.32,412.28a.49.49,0,0,1,0,.14C270.34,412.36,270.34,412.3,270.32,412.28Z" transform="translate(-173.37 -131.33)"/>
    <path class="cls-1" d="M291,379.07a1.73,1.73,0,0,0-.44,0C290.58,379.14,290.71,379.17,291,379.07Z" transform="translate(-173.37 -131.33)"/>
    <path class="cls-1" d="M285.71,382.7h0Z" transform="translate(-173.37 -131.33)"/>
    <path class="cls-1" d="M299.23,335a2.52,2.52,0,0,0-.36.68A1.83,1.83,0,0,0,299.23,335Z" transform="translate(-173.37 -131.33)"/>
    <path class="cls-1" d="M270.36,412.59a7.55,7.55,0,0,1-.15,1A6.26,6.26,0,0,0,270.36,412.59Z" transform="translate(-173.37 -131.33)"/>
    <path class="cls-1" d="M292.8,368.24l0,.22a.43.43,0,0,1,.12,0Z" transform="translate(-173.37 -131.33)"/>
    <path class="cls-1" d="M295.4,366.16a1.59,1.59,0,0,0,.15.39c.34-1.19,2-2.63,1.18-3.51-.2.35-1.93,1.58-2.28.9-.25.81-1.6,1.27-1.7,1.72,1.28-.67.88.48.64,1.42-.77.43-.65-.69-1.24-.28l-1,1.54,1.11-1.17.58,1.07V368C294.09,365.55,294.27,368.87,295.4,366.16Z" transform="translate(-173.37 -131.33)"/>
    <path class="cls-1" d="M295.55,366.55a1.38,1.38,0,0,0,0,.53A.49.49,0,0,0,295.55,366.55Z" transform="translate(-173.37 -131.33)"/>
    <path class="cls-1" d="M303.52,358.19a3.67,3.67,0,0,0,.11-.51C303.62,357.78,303.55,358,303.52,358.19Z" transform="translate(-173.37 -131.33)"/>
    <path class="cls-1" d="M248.24,393.29c-.21.27.57,2.25,1.08,1.52l-.87-1.45Z" transform="translate(-173.37 -131.33)"/>
    <path class="cls-1" d="M316.12,329.9a2.79,2.79,0,0,0-.35.42.94.94,0,0,0,0,.16C316,330.47,316.07,330.1,316.12,329.9Z" transform="translate(-173.37 -131.33)"/>
    <path class="cls-1" d="M294.41,363.31a.94.94,0,0,0,0,.63A.82.82,0,0,0,294.41,363.31Z" transform="translate(-173.37 -131.33)"/>
    <path class="cls-1" d="M317.79,331.07a2.07,2.07,0,0,1,1.11.1c.29-.36.14-.89.3-1.36A2.73,2.73,0,0,1,317.79,331.07Z" transform="translate(-173.37 -131.33)"/>
    <path class="cls-1" d="M319.21,329.77s0,0,0,0A.06.06,0,0,0,319.21,329.77Z" transform="translate(-173.37 -131.33)"/>
    <path class="cls-1" d="M247.81,392.22a4.77,4.77,0,0,1-.44-.24l.33,0-.58-1.1a1.76,1.76,0,0,1-.39-.26.34.34,0,0,0,.26,0l-.15-.34c-1.24-.11-3.13-1.38-3.93-1.54a5.48,5.48,0,0,1-2-1.6c.36.47,1,1,1.23.47-.37-1.25.41-2.63-1.88-3.46l.78.94-3.21-1c0-1.24,1.6.49,2.37.35-2.07-1.08-1.21-4-3.12-3.79.68-.71,1.82-1.9.88-2.94-.25,1.48-1.08-.23-1.51,1.16-.74,0-.68-1.45-1.31-1.07l.4-.14c-.23-2.84-2.63-2-3.89-2.34-2.05-2.06-2.31-3.51-3.84-5.3.47-.46,1.55-2,.95-2.76-1,.17-2.53-1.31-3.58-.82.59,1.64,1.57.56,2.37,1.22-.47,1.37-.91.75-.82,2.09-.16-1-2.94-3-2.62-4.5l.34.2c-.39-1.7,1.73-3.58-1.2-4.78l-1.3-.64a2.23,2.23,0,0,0,.34-.12c-1.11-1.78.28-2.05-1.88-3.35.17.1.21-.06.38,0-.24-1.44-2-1.79-2.83-2.45.42-1,.84-.41,1.62-.5-1-2.1-3.78-3.21-5.55-3.71l-.41-1.52c.83.49,2.27.79,2.58.24-.63-.56-.9-.17-1.42-1.22a8,8,0,0,1,2.28-.11c-.56-2.54-2.06.8-1.52-1.64-.42-.62-1.39-.46-2-.1l0-1.67c-.84.42-1.87-.91-2.63-1.71-.4.12-.28,1.3.25,1.42-.64.36-1.6-.38-2-1,1.43-1.39-3.13-3.78-.76-4.44-2.51-2.34-5.57-5.95-7.59-7.16,0-.9-1-2.08.31-2a7.94,7.94,0,0,0-2.86-2,5.33,5.33,0,0,1-2.6-2.21c0-.32.8.91,1.23.41-1.73-.81-1.44-3-3.69-4.61a.77.77,0,0,0,.91.05c-.2.25-1.25-.37-1.95-.67-.14-.4.53.23.56-.1a15.42,15.42,0,0,0-5.38-4.84c-1-.62-2.06-1.16-3.06-1.8a25.63,25.63,0,0,1-3-2.19,2,2,0,0,0,2.72,0c-.35-.33-.69-.67-1.07-1-.85.13-1.68-.57-2.68-.79.07-.26-.1-.74.44-.69-.68-1.43-1.92-1.71-3.29-1.88s-2.81-.35-4-1.67c1.62.14,3.27.3,4.94.48l-.29-1.37,2.25.22c-.48-1.26-2.28-.55-1.8-1.41.36-.07.78.35,1.11-.06-.65-1-1.16-.45-1.93-.79a8.55,8.55,0,0,1,4.57,1.24c1.46.84,2.82,1.83,3.88,2.41.38.12-.56.16-.74.27.78.56.8,1.39,1.9,2,1.11-.12,0-.85-.38-1.32.55-.49.74-.25,1.3.12-.55.82,2.44,2.73,2.24,4.17,2.7,2.26,1.37-2.22,3.51.54l-.07,1.52a13.25,13.25,0,0,1,5.72,4l-.35-.33c-.57.08-.43.67-.46,1,.81,1.57,2.79,1.86,2.63,3.37,2.19.67,4.92,2.64,6.8,4-.77,1.38-2.81-1.47-4.1-1.6l1.28,1.56a3,3,0,0,0-2.66-1c.9,1.54,2.26,1.16,3.61,2.23-.39.15-.45.48,0,1.08l.9-.44c0,.06,0,.18.05.4l2.29,2c-.06-.76.6-1.3.13-1.92-.28.57-.77.12-1.23-.5.91.14,0-.93.38-1.24a20.18,20.18,0,0,0,3,3.31l-.51.81c.74,1.29,2.05,2.24,2.44,3.2l-.57,0c.82,1.57,2.34,2.62,2.53,4.4,1.75.65,3.61,1.75,5.22,2.16,1.34-.12,1.47,4.58,3.81,5.06,0,.17-1.4-.48-2.11-.71.53,1.05,2.23,1,1.44,2-1.16-2.37-.71.68-1.67-.08a6.34,6.34,0,0,0,2.34,2.15c-1.15-1.62,1.78-.4.2-1.73a7.4,7.4,0,0,1,4,3.9c-.44.29-.51.62-.3,1.3h.94c.38.79-1.69-.84-.92.74,2.09.71,2.47,4.79,4.89,4,0,1.65-2.27-1.54-2,.8-1.4-.46-1.53-2.37-2.74-2,.95.75-.59.94-.17,1.56l1.36.62-.13-.26c2.18,1.13,3.73,4.23,5.5,6.35,2.36,1.17,4.72,1.4,6.26,3.7-1.06-.22.84,2.25-1.26,1.65.27,1.4,1.64,2,2.07,1.66-.54-1-.11-.42-.48-1.33a2.56,2.56,0,0,1,1.82,2c-.14-.25-.17-.09-.37,0,.49,1.34.9.13,1.71.73-.52.79,1.13,1.84,1.32,2.83l1.81.21c-1.1,0,.53,1.16.05,1.8,1,.36,2.34.31,3.06,1.55-.71-.18.32,1.4-.32,2,.45,1.19,1.54,1.6,2.58,2a6,6,0,0,1,1.44.75c.38.3.82.86.65,1.13s-.73.32-.69.7c.33,0,.54.44.77.57h0c.11.07.23,0,.37-.12.8-.34,1.44-.9,2.18-1.13.46-1,0-.89-.3-.79s-.47.44-.72.65c.41-.67.29-.7.09-.66s-.51.16-.38-.07a2.39,2.39,0,0,1,1.46-.49,1,1,0,0,0,1-.31c.47-1.55.54-1.8.28-1.84-.11.16-.22.34-.32.52l-.11-.1a6.51,6.51,0,0,0-.6.91.27.27,0,0,0-.17-.26c-.11-.1-.07.06-.49-.5a2.09,2.09,0,0,1,.23.35l0,.09v0l0,.07a2,2,0,0,1-.27.36c-.2.24-.41.42-.39.28a1,1,0,0,0,.12-.24.62.62,0,0,0-.17-.28.88.88,0,0,0-.53-.25c-.4-.06-.87,0-1.17-.44.3.5.75,1.08,0,1.07-.38-2.3-1.31-2.23-1.5-4.44-1.12,1.21-1.56-1.65-2.77-1l.43.74-1.89-.77c0-2.12,2,.29,1.12-2.25-1.32-1.91-2.61-.8-3.84-2.15A4.27,4.27,0,0,1,251,373.9l-.19-1c.73,0,1.9,1.67,2.5,2.49-1.92-.6.23.82,0,2,.82-.48,0-1.22,1.41-.71a7.89,7.89,0,0,1-1.61-2.39c1.72,2.8,4.35.23,5.55,2.93-1.16-.75-.75,1.21-1,1.62a14.08,14.08,0,0,0,2,1.48l.73-1.22a1.23,1.23,0,0,1,.42.39l-.12.1a4.14,4.14,0,0,0-.47.47c-.32.34-.5.7,0,.19s.14-.26.24-.38c.31-.3.08-.06-.2.49a7.06,7.06,0,0,0-.71,2.06l.9-2a11.56,11.56,0,0,1-.79,1.88c-.05.47.29,0,.45-.35a2.83,2.83,0,0,1,.25-1,7.55,7.55,0,0,0,.3-.92,6.08,6.08,0,0,1-.34,1.2c-.05.28-.27,1.86.06.38a7.77,7.77,0,0,1-.5,1.68c-.22.49-.48.8-.63.8l.1.32c-.26.38-.25.2-.34-.12a7.69,7.69,0,0,1-.66,2.32c0-.17.09-.2.11-.37-.08-.43-.3-.33-.45.19-.66,1,0,1.07-.1,1.88l.41.12a11,11,0,0,0,1.75-3.63c.31-.3.28,1,.49,2.13l.1-1.41a5.56,5.56,0,0,1,.34,3c0-.53-.06-.45-.12-.6a3.14,3.14,0,0,1,0,.43l0,.25a1,1,0,0,0,.37-.18l.11-.48-.14,1.58a8.26,8.26,0,0,0,.05,1.2c.05.39.11.89.17,1.35a14.32,14.32,0,0,1,.1,1.72l.22-.73.37-1.25c-.45-.21-.13-1.28-.06-1.81.2,1.36.48-.77.7-.88l0,.29c.28.14.66-.55.81-1.23-.12-.39-.43-2.64-.77-3.77-.43,0-.42-.69-.69-1.33,0,0,.08,0,0-.14a6.25,6.25,0,0,0-.32-.71,15.86,15.86,0,0,0,.13,3.13c.25.67,0-1,.18-.57.14,1.34-.13,1.45-.37,1.78l-.23-1.06-.13,1a21.27,21.27,0,0,1,0-2.52c-.16-1.1-.12.5-.26.28v.29l0,1.53a5.08,5.08,0,0,0-.13-1,5.48,5.48,0,0,1-.06-.61c0-.24,0-.4,0-.81l0-.6c0-.36,0-.72,0-1L261,380.9l0-.39.09.83c-.05-1.22.57,2.85.47.8-.35-1.73-.45-1.84-.22-1.61.07.39.42,1,.73,1.82.42.35-.06-.82-.3-1.33.41.6.77,1.06.56,1.16.37.71.4.57.43.44s.06-.25.51.38c.16-.23.09-.63-.09-1.09a6.2,6.2,0,0,0-.8-1.32l-.42-.55c-.09,0,0-.25,0-.42a3.15,3.15,0,0,1,.21-.52A5.32,5.32,0,0,1,264.4,377l.33.55c1.65-3.08,3.48-4.08,5.12-6.68l2.72-.77c-.16.54-.25,2.39.76,2.37-1.94-.14-2.33,1.12-3.81,1.54.22.37.78.17,1.12.16-.51.57-1.29.4-1.76,1.35.28.17,1.3-.41.89.34l-1.63.42c-.88,1.72,1.14,2.2-.63,3.58-.39-.87-.78-2.31-.38-3.09-.8.64.49-1.36-.5-1,0,1.95-1.21,1.79-1.87,3.83,0-.3-.14-.5.12-.92l-2.25,1.84c.61.42.26,1,1.05,1.75a1.27,1.27,0,0,0,.43-.27l.06-.06.13-.17.27-.36a11.55,11.55,0,0,1,2.11-2.08,5.53,5.53,0,0,0,0,3.7c-.05,0-.11,0-.19.08.5,1.09,1.07.87,2.53,2.1-.05-2.05,1.47-2.14,2-4-.57-.94-1.69-.08-2.08.79l.52-1.66.16.55,2.9-2.83c-.46.61-.17,1.2-.08,1.8A4.09,4.09,0,0,1,274,379c-.83-.57-1.31-1.08-1-1.45a6.66,6.66,0,0,1,4.95-2.21l.14-.26c-1.05-.36-.21-2.56-.48-3.83.78.72,1.32-.56,2.2-.75a4.47,4.47,0,0,0-3.59-1.78c-.26,2,.23,1.45.89,3.08l-1,2.75-.32-1.1c-1.23.76-1.15,2.6-2,1.69-.15-1.1,1-1.67.87-2.77l-.94.39c.13-2,1.43.16,2-1.86-1.27-.16.06-.18.06-1.27-1,0-2,2.75-3,1.12,0-1.27,3.82-1.14,3.29-3.29l.11.18c1.44-1.3,1.06-2.48,1-3.43,1-.23,1-1.61,1.51-2.3l.39.35.59-1.06c.38,1-.9,1.07-1.45,1.95l.84.53c-1.68.17-.84,1.93-.8,3.2.24-1.6,2.68-2.82,1.38-4.28H281l0-.54c1,0,1.48,1.21.88,2.3-.32,0-.49,0-.6-.17a2.65,2.65,0,0,1-.84,2.52l.08-.9c-1.15,1.27-1.89,2.72-1.56,3.8a34.73,34.73,0,0,0,5-5.31c-1.29-1.92-1.78-3.32-3.2-4.86.64-1.4,1.57-3.13,2.93-3.7l.26.33a2,2,0,0,0,.85-1.42c.82-.22.64,1,1.14.79l.64-2.13c.7.63-.32,2.12-.76,2.83,0-.17.09-.52-.07-.51-.86.57-.69,3-2,2.51-.09.53-.22-1.37-1.23-.12-1.06.55-.33,1.57-.08,1.91.4.34,1.64-.92,1.77-.06.47-.72.11-1.4,1.18-2-.46.71-.27,2.29-1.22,2.15-.27,1.94,1.82,3.29,2.44,2.72-.71-.32,1.15-3.07-1-1.9-.2-1.41.89-2.85,1.12-4.26l.13.16.72-1.45c.1.35,0,.88.43,1.19l.11-2.65c.07,1.58,1-.27,1.65-.54-.54-.65-.54-1.7-1.4-1.25s.06.7-.37,1.45l-.38-1.72.16,0-.47-1.18c1-1.37,1.63,1.93,1.95-.43l-1.35-.53c1.52-2,4.62-4,5-5.88a2.49,2.49,0,0,0,2.44,1.53,11,11,0,0,0-1.91,3c-.33.06-.69-2.08.23-3-2.3-.71-.44,3.39-2.52,2.25-2.34,2.17.69,3.18-1.88,4.6.86.61,0,.88.73,1.51,1.86.32,1.84-2.94,3.26-4.06,0,.18-.07.55.06.71a3.24,3.24,0,0,0,1.12-2.38l-.17,0c-.07-1.83,1.17-.39,2-.91.05-.38,1-1.29.21-1.52l1.71-.88-1.05-.55c.43-.83,1.2-.6,1-1.7l-.88-.58-1.53,1.79c.32-1.19-.69-.81-.2-2,.23,1.84,1-.57,1.95-.18v-1.13l.11.36c.86-.36.14-1,.73-1.66-1.06.58-2.05.78-2.1,2.29a11.57,11.57,0,0,1,.68-3.53c.17-1.11,1.24-1.3,1.86-2.06-.64,1.8,3,1.16.43,3.89-.13-.16.06-.39.23-.43-1.4-.29-1.1,1.92-1.06,2.86.76.23.5,1,1.59.07-.67.13-.85-1.91.4-2.72l1.28,1.08,1.21-1.55,0,.2c1.29-.05.94-1.88,2.22-2.68,0-1.15,2.56-4,.21-3.66,1.56-.44,1.09-2.1,1.72-3.34l-1.55,1c.21-2.35.5-1.41-.06-3.86.46.13,1,.06,1.16.61,1.7-2.17,4.43-4.88,4.36-6.93,1.23-1.42,2.93-.41,4-2.88.16-.57-1.47-.67,0-1.68.17,0-.1,2,1,.51-.12-1.85,2.55-2,2.8-4,.93-.4,1.8-1.71,2.37-.81-1.09.94-2.23,2.64-2.06,3.19-.34-.54-1.11.41-.79-.71-2,1.18-.43,1.49-2.1,2.67.23.36,1.51-.06,1.51-.62,1.06.87-2,3.42.41,3.13,1.44-1.55-.36-3.87,1.91-4.33.18,1.1-1.1,1.51-.58,3.16l1.38-.8-.07-1.46.12.18c2.64-1.2.47-2.77,1.41-5-1.59.41-1.64-1.77-2.73-1.37.85-1.3,1.7-2,2.77-1.17-1,2.92,1,1.05.38,4,.66,0,1.14,1.78,2.28.65.4-2-1.22-.32-.43-2,.16,0,.33,0,.44.17,0-1.09.82-.58.83-1.85l.06.36c1.42-.42.11-1.63,1.47-1.88-1.06-.31-.22-1.07-.33-2-.95.58-2.44.1-3.69,1.76.47.71.92.87.67,1.79l.79-1.12c-.08.31-.06.61-.11.93l-1.15.74c.6-1.65-.55-1.61-.76-2.68,1.22-.94.61-1.1,1.41-1.67.86.82,3.37-1,5-1.87-.2.18-.39.47-.52.6-.17,1.45,1.31-.07,1.59.08l.08-1.08c0,.19,0,.54.4.33.57-1.11-.42-1.75.11-2.86.59.31.78,1.73,1.5,1.32.62.12,2.35.32,2.83-1.36-.14-.24,0-.67.18-1.14,0,.08,0,.16,0,.21l1.2-.5c.4,1.41-1.49,1.26-1.12,2.67l.82.68a3.42,3.42,0,0,0-.47,2.39c.81-.82.73-1.17,1.28-2.34.65.24.54,1.27.52,1.41l-.38-.5c-1.6.71-.5,2.44-1.81,3.85-.2.2-.16,0-.28-.16-.11,1.85-2.15,2.18-2,4.19l-.14-.73c-.27,1.08-.71,3.3-1.21,5.49l.3.28c.34,0-.15.56-.54.76h0c-.26,1.09-.52,2.14-.76,3a1.71,1.71,0,0,0,1-.39c-.17-.55,1.32-1.72.31-2.22,1.06-.25,1.2-1.91,1.92-2.14-1.28.44-.31-1.28-.66-1.81.79.14,1-1.36,1.66-.66.33,0-.84.06-.7.79-.08,1.48,2-1.25,1.68.44.69-1.9,2.46-3.74,2.95-5.84l-1,.65c.65-.61,1.71-2.41,2.16-2.28-.29.6-.76,1.21-1.11,2,.83.67,1.2-1.63,1.77-1.32v-3l-.66.84c-.14-.91,1.76-2.28,2.79-3.58.68,1.59-1.35,2.09-1.87,3.83-.28,1.35,1.59.16,1.18,1.35a1.21,1.21,0,0,0,.8-1.26l.49-.25c.47,1.64-1.18,3.46-1.25,5.44a1,1,0,0,0-.17-.51,5.83,5.83,0,0,0-2.36,2.89c.72-.25.65-.62.75-1,.29.16-.3,1.15-.28,1.72,1-.66.74.3,1.35-.13a3.65,3.65,0,0,1-1.31,1.82c-.68.06-.3-.72-.87-1-.26,1-1.74.33-2,1.84,1.33-1.22.81,1.25.76,2l.23-.2c.23.92-.05,1.32-.83,1.18.21-.77.83-1.18.09-1.51a4.48,4.48,0,0,0-.71,1.36l-.12-.74-1.39,1.94a16.47,16.47,0,0,0,1.2,2.72c-.84,0-.95,1-1.11,1.54l-.06-.37c-1.11.42-2.2,2.48-1.86,3-.89.22.38-6.45-2.52-2.11-1.26,1.51.7,2.17.49,3.45a.38.38,0,0,0-.28-.17c-.65.57-.14,1.1-.34,1.83.55-.2,1-.75,1-1.12.46.72-1.18,1.31-1.1,2.22-.43-1.44-1.39.95-1.48,0a3.78,3.78,0,0,0-1.83,4c-1.91-.11-1,1.64-2.68,2.6.2-.19.32-.72.69-.92-.17-1.41-1.54,1.14-1.3-.65-.09.36.4.34.48,0,.28-.54.29-1.26-.16-1.41l-1.59.62.12-.55-2.32,1.05c.13.16.45.14.61.13-2,1.76-3.12,4.54-4.51,6.35,2.09,1.88-2,5.36-1.58,7.9a3.61,3.61,0,0,0-2.13-1.87c.12-.42-.38-1.75.33-2.43.46.11,1.51-.61,1.54.3,1.13-2.36-1.22-.36-1.69-1.56-1.33,2.61-.83,4.94-1.25,6.87l-.3-.13-.21,1.53c.76-.89,2.08,0,.83,1l0-.19c-1,.38-1.27,2.3-2.08,3.4l.3,1.27c-.82,1.1-2.29.25-3.39.08-1.24,1.74-.74,3.54-.91,5.3-1,.18-3,2.81-2.76.86-.58,2,2.92,4-.93,5.51l-.05-1.14c-1.81,2.77-3.62,7.31-5.16,8-1.23-2.53-4.57,1.41-6.86.17.55.26-.08,1.28.05,1.61-.4,0-.89.14-.8.82,1.19-.59,1.43,2.37,2.18-.07a5.8,5.8,0,0,1-1.2,6L290,385l1.59-1.33c-.73-.35,0-1.1,0-1.67-2.94,2.48-1.54-2-4,1,.27.73.22.37-.24,1.3.29-.38-.21-.92-.71-.36l.15,1.1c-2.2-.15.6-2.42-1.08-2.38.35-1.66,1.71-3.9.38-4.42-2,1.51.46,3.31-1.66,4.81l-.61-.18c-.29.93.31,1.65.41,2.38-.27-.18-.6-.17-1.05.2.05,2-.42,2.94-.17,4.93,1.53-3.48,2.8-1.66,4.56-5.17-.07.74-1.59,3-.59,4l-.77-.72a6.1,6.1,0,0,1-2,3.48l.15-1.09c-.76,2-3.4,1.5-3.05,3.83a2.26,2.26,0,0,0,.78-1.09c-.34,1.15-1,1.75-2.42,3.25-.33,1.35-.71,2.72-1.12,4.22-.33-.43-1.8,1.57-1.62-.11a5.24,5.24,0,0,0-1.85,2.77c-.34,1-.49,2.17-.89,3-2.17,1.42,1.14-2.84.51-4.28a14.24,14.24,0,0,0-1.71,2.21c-.53.8-1,1.64-1.47,2.49a27.63,27.63,0,0,0-2.05,5.19c.52-.43.81-.55.88-.18-.19-.32-1.05,1.23-1.55,2l-.12,1.53c-1,.72-.94-.12-.43-2a13.7,13.7,0,0,0-1.1,2.63c-.37,1-.79,1.85-1.29,1.7a17.39,17.39,0,0,1,1.92-4,11.88,11.88,0,0,0,1.5-2.83c-1.21,2.57-2,3-2.84,3.43a4.15,4.15,0,0,0-1.31.94,10.43,10.43,0,0,0-1.66,2.76l-.26.06c-.06-.55.39-1.62-.21-1.68a1,1,0,0,0-.41.19l-.07.06h-.07a.14.14,0,0,0-.1.05c-.12.1-.12.39-.09.74,0,.71.27,1.7,0,2a3.35,3.35,0,0,0,.41.28,1.27,1.27,0,0,1,.34.05,1.24,1.24,0,0,1,.57.33.93.93,0,0,1,1.21-.17l-.21,1.47c-.08-.34-.56.37-.87.58a1.36,1.36,0,0,1-.21-.34l-.09,1.83a6,6,0,0,0-.24-1.57,8.35,8.35,0,0,0-.57-1.38,4.82,4.82,0,0,0-1.62-2.23c1.1,2.68.82,2.28,1.19,4.9-.8.12-1.29-1-1.77-2s-1-2.09-1.93-2.12c.18-.4,1.76,1,.43-1-1.1-1.37-1.05.19-1.87-.29,1-.44.87-1.77,1.84-2.55a9.92,9.92,0,0,0,2.53,2.26l-1.46-3.05c1.48,1.46,1.06-.61,1.17-1.08-1.17-2.18-1.59-2.07-2-1.76s-.69.87-1.48-.26c-.88.07,1.51,2,.18,1.6-1.54-2-.43.54-2.34-1l.4-.27c-.41-1.44-1.11-1.07-1.79-1.7-.39-.22-.44,1.12-.76,2.09s-.94,1.55-2.63-.35c.27-.15.39-.29.43-.43a28.22,28.22,0,0,0,5.19-7.43,77.17,77.17,0,0,1-7-9.46c.52-2.05,2.53.81,2.79-.09l.85,1.54c-.39.67-2.33-2.39-2.05-.07a22.09,22.09,0,0,1,2.52,2.61,4.25,4.25,0,0,0,2.59,1.56,3,3,0,0,0-1.27-2.51,4.33,4.33,0,0,1-1.71-2.57,2.38,2.38,0,0,0,1.34,1.07c-.9-1.4-1.83-2.85-2.74-4.35l-.5.05c.62,1,1.07,1.8,1.11,1.94-.91-1.3-2.36-1.55-3.29-.71l.17.28-.68-.2ZM183,310.15a1.56,1.56,0,0,0,.46-.18C183.26,310.07,183.23,310.2,183,310.15Zm84.32,83.68-1.72,1.81a19,19,0,0,0-1.54,1.74c1.09.4,2.4.45,2.87,1.05s.13,2-1.73,4.85l-.19.65a9.27,9.27,0,0,0,2.21-3.06c.17-1.07.41-3.38.56-5.08a15.19,15.19,0,0,0,0-3.29c-.54-.43-.42.67-.86.91Zm3,3c1-.83.48-1.09.31-1.71-.23.42-.49.84-.72,1.27C270,396.35,270.16,396.44,270.25,396.8Zm0-2.11c-.09.1-.18.18-.25.16Zm-14.33,4.07.09.06-.52-.8A2.13,2.13,0,0,0,255.9,398.76Zm1.35,3.44.38-.95-.52-.77A4.55,4.55,0,0,0,257.25,402.2ZM263,412.35a1.57,1.57,0,0,1,0-.23c.24-2.34,1.17-4.09,1-6.15,0-.63-.22-.5-.46-.31l-.78,1.13a5.5,5.5,0,0,1-.05.77,2.52,2.52,0,0,1-.05.37h.08c.26-.1.45.2.44,1.59-.15-.25-.27-.35-.36-.34-.25-.13-.34.7-.47,1.49,0,.19-.07.4-.11.57a.48.48,0,0,1-.18.17c-.14,0-.31-.08-.55-.49a2.3,2.3,0,0,0,.56,1.77l.16.2.08.1s0,0,.06,0a1,1,0,0,0,.26-.16A1,1,0,0,0,263,412.35Zm63.13-91.51a7.28,7.28,0,0,0,.8.2l-.15,1.14c-1.31,1.15-3.59,1.06-3.39,3.25a4.39,4.39,0,0,1-2.41-.05,4.55,4.55,0,0,1,.79-.61C322.78,319.94,325,324.55,326.1,320.84ZM312,335.16a.53.53,0,0,0-.09-.37c-.35,4.53-1.44,7.53-2.64,9.25,1,.14,2.59-1,3.38-1.57l.46,1.21-1,0,.08,1.64c.8.06,1.26-.93,2.1-1.25-.14-.16.1-2.75-.07-3.65l-1.62,1.16c.51-.27,1.67-2.45,2-3.4-.42-.32-2,.63-1.21,1.44-.76-.26.33-1.89-1.06-1.33.13-1.69,2.07-3.22,3-3.87l1.16.63c1.1-.65-.79-1.58.66-2.26-.83,1.54,1.32.62.57,1.78.66-.05,1.12.82,1.85-.33-.68-1.95,1.73-.47,1.18-2.25.87-.23.34,1.24,1.4.28.29-1.83-.27-2.17-1.19-3-1.23,1,.21,2.36-.79,3.15l-.16-3.29a1.25,1.25,0,0,0-.87.7,2.52,2.52,0,0,0,.12-1.57c-.07-.32-.11-.6-.14-.85-.9,1.11-1.71,2.09-2.27,1.94l-.36-.53c-.75.05-.91,1-.79,1.56-.74,1.06-.81,2.6-1.62,2.35L314,332A28.77,28.77,0,0,1,312,335.16Zm-30.48,41c2.3.75,4.5,1.27,7.09-2.39l-.11.37c2.53-.83,1.38-4.53,4.27-5.7-.16,1.57-.16,1.47.4,3.82l.41-1.51c.71,1.07,1.11-.46,1.81-1.26l.55,1.63c-.71.26-1.87,1.46-1.59,1.62.1-.38-2.78.56-3.34,1.86.84.53,2.39-2,2.8,0,.21-1.32,1.06-.81,1.56-2-.22,1.33.85,1.06.86,2.19l1-1.77c.3.17-1.28,2.73.7,2.21.12-.94,2-2.28,1.15-2.95l.29.16c1.12-1.07-.76-1.43.84-2.58a.75.75,0,0,0-1.23.34c-.15.6.37,1.1-.23,2.11-1-.1.94-1-.66-1.26-.79-.12-1.41,2.77-2.12,1.13l1.1-1c-.8-.68-.09-1.49-.79-2,.25-.95,1.7-.94,1.52-2.23-.32-.72-1.74-.93-.39-1.82,2-.05,3.74-3.15,4.26-4.37l.06-1.32c-.59-.27-1.12,1.87-1.42.79l.76-1.62.26.34a3.39,3.39,0,0,0,.45-1.76c.35.87-.61,1.78.45,2.16.64-.58,1.06-.47,1.29-1.23,0,.18,0,.36.13.43,1.31-1.18-.16-2-.25-2.59-.31-2.18-2,.73-2.87-.06l2.08-4.47c.08.55.16,1.09.63,1.2,1.06-.76.74.42,1.58-1-1.34-.69.31-2.3.2-3.77.81-.15,1-.19.36.86.9.39,1.43-1.2,1.81-1.64,0-.42.15-1,.16-1.4-.67.16-1.08-.34-.88-1.46l-.14-.16c-1.14,1.33-3.46,3.07-3.17,4.51l-.25-.51c-1.77,1.26-.78,4.62-2.84,4.43-.57-.46-.35.25-1.23-.34l-.08,1.67-.24-.51-1.13,2.22-.13-.16c.18,1.52.32,2.71.43,3.67.38.26.55.27.61.79a1.26,1.26,0,0,1-.38.92h0c-.46.44-1.23.4-1.88.87l1.21-2a1.77,1.77,0,0,0-2.41-.26c.24-.4-.16-.89-.55-.48.13.16-.43,1.51.39,1.42-1,2-4.72,3.52-5.6,7,.76-2.41-2,.83-.62-1.42-2.1.65,0,2-1.36,3.33-.45-.16.69-.76.28-1.65-2.33,2.08-1.82,5.34-4.1,7.42l-.82-.54Zm-3.07,5.37c-.31.52-.62,1-.93,1.58l.13-.12-.57,1.86c1-.58,2.28-.42,1.66,1.06-.22-.36-.88-.35-.71-.9-1.11.39-3,1.72-1.5,2.24.22-2.4,1.72.87,1.94-1,.19,1.25-.67,1.59-.85,2.46-.09-1.14-1.51-1-2.59-.35-.16.57-1.25,1.49-1.54,2.48.89.34.72,1.36,1.91.25a3.17,3.17,0,0,1-1.63,2c.15-.43.52-1.06.25-1.25-1-.08-1.42.5-1.91.53l-.49.86a.72.72,0,0,1,.34.06l-.17,1.54c.64-1.54.69-.22,1,.24-.64-.91-.68.67-1,1.15.46,0,.92,0,1.4,0,0,1-1.73,1-.91,1.72a14.39,14.39,0,0,0,2.05-2.33c.53-.72,1-1.48,1.59-2.5l-1.21.12c.57-1.2,1.08-1.25,1.7-1.3a2.11,2.11,0,0,0,2-.9c0-1.27,2.31-2.78,1.14-3.85.17.54,2-.22,2.05-1.32-.49-1.64,1.2-3.87.15-3.67-.51.56-.58,1.85-1.69,1.68l.74-1.3-1.23.21C280.08,382.61,279.47,382.14,278.45,381.55Zm-18,6.59v-.05s0,0,0,0Z" transform="translate(-173.37 -131.33)"/>
    <path class="cls-1" d="M336.85,301.92c-.06-.55.57-1.36-.18-1.63C337.39,300.76,335.74,301.86,336.85,301.92Z" transform="translate(-173.37 -131.33)"/>
    <path class="cls-1" d="M338.24,301.38c-.13-.17-.43-.32-.19-.71l-.54,1.16Z" transform="translate(-173.37 -131.33)"/>
    <path class="cls-1" d="M343.79,303.56a2.57,2.57,0,0,1,.42-2.33c2,.8-.47,1.78.87,3.26,1.26-1.55.07-3.05.78-4.5C344.71,300.22,342.53,302.64,343.79,303.56Z" transform="translate(-173.37 -131.33)"/>
    <polygon class="cls-1" points="172.1 174.43 172.33 173.25 172.17 173.27 171.94 174.45 172.1 174.43"/>
    <path class="cls-1" d="M317.1,312.8c-.56-.35-.49.57-.6.94C316.72,313.55,317.11,313.35,317.1,312.8Z" transform="translate(-173.37 -131.33)"/>
    <path class="cls-1" d="M209.65,318.54c-1-1-2-2-3-3.06s-2-2-3.1-3c.92.86,1.76,1.7,2.7,2.68S208.28,317.2,209.65,318.54Z" transform="translate(-173.37 -131.33)"/>
    <path class="cls-1" d="M303.64,337.62c.69-2.22.32-3.68,1.4-5.79-2.83,1.84-.55,4.5-3,5.9Z" transform="translate(-173.37 -131.33)"/>
    <path class="cls-1" d="M299.71,334.14c1.23.35.25,2.26,1.19,2.46.58-1.45-.6-1.23.25-2.35Z" transform="translate(-173.37 -131.33)"/>
    <polygon class="cls-1" points="148.62 206.13 148.76 207.01 148.87 206.47 148.62 206.13"/>
    <polygon class="cls-1" points="121.87 212.02 121.76 211.67 120.86 212.39 121.87 212.02"/>
    <path class="cls-1" d="M295,342.65l.11.35Z" transform="translate(-173.37 -131.33)"/>
    <polygon class="cls-1" points="150.25 208.33 151.01 207.76 150.83 207.06 150.25 208.33"/>
    <path class="cls-1" d="M313.58,342.69l.14-.93C313.69,341.94,312.62,342.65,313.58,342.69Z" transform="translate(-173.37 -131.33)"/>
    <polygon class="cls-1" points="118 217.29 117.85 218.4 118 218.38 118.15 217.27 118 217.29"/>
    <path class="cls-1" d="M312.85,350.18c1.11,0-.69,1.61.66,1C314,350.16,313.31,350.28,312.85,350.18Z" transform="translate(-173.37 -131.33)"/>
    <path class="cls-1" d="M300.62,357.77a.76.76,0,0,0-.12.44A2.25,2.25,0,0,0,300.62,357.77Z" transform="translate(-173.37 -131.33)"/>
    <path class="cls-1" d="M300.62,357.77c.26-.39.81-.59.75-1C300.7,357,300.73,357.29,300.62,357.77Z" transform="translate(-173.37 -131.33)"/>
    <path class="cls-1" d="M297.84,362.34l.3-.31c.13.62.19.41.1-.12.23-.39,0-.53-.17-.69l-.14-.44.07.5C297.6,361.85,297.4,362.22,297.84,362.34Z" transform="translate(-173.37 -131.33)"/>
    <path class="cls-1" d="M273.51,367.5c1.25-.91,1.63-1.09,2.13-.55,1.1-.92,0-1.58.33-2.41C275.05,365.84,274.57,365.87,273.51,367.5Z" transform="translate(-173.37 -131.33)"/>
    <path class="cls-1" d="M276,364.54a4.58,4.58,0,0,0,.31-.46A1.33,1.33,0,0,0,276,364.54Z" transform="translate(-173.37 -131.33)"/>
    <polygon class="cls-1" points="134.65 230.09 135.04 231.54 135.12 231.15 134.65 230.09"/>
    <path class="cls-1" d="M271.75,369c.22-.19.49-.55.83-.55C272.08,367.87,271.53,369.15,271.75,369Z" transform="translate(-173.37 -131.33)"/>
    <path class="cls-1" d="M286.45,373.86c.44.17.87-.76,1.26-1C287.27,373.29,285.94,372.77,286.45,373.86Z" transform="translate(-173.37 -131.33)"/>
    <path class="cls-1" d="M271.09,374.3a.88.88,0,0,1,1.21.34C272.31,374.09,271.72,372.81,271.09,374.3Z" transform="translate(-173.37 -131.33)"/>
    <polygon class="cls-1" points="111.12 244.59 111.46 244.59 111.79 243.47 111.12 244.59"/>
    <path class="cls-1" d="M295.19,380c.13-1.51-2.86.13-2.06-2-2.45,1.5,1.08.65-.33,2.09A2,2,0,0,1,295.19,380Z" transform="translate(-173.37 -131.33)"/>
    <path class="cls-1" d="M292.8,380.14a2.07,2.07,0,0,0-.42.37C292.55,380.37,292.69,380.25,292.8,380.14Z" transform="translate(-173.37 -131.33)"/>
    <path class="cls-1" d="M277.59,389.25a1.69,1.69,0,0,0,0-.49A1.3,1.3,0,0,0,277.59,389.25Z" transform="translate(-173.37 -131.33)"/>
    <path class="cls-1" d="M289.17,385.41l.21-2.22c-.14,1.49-2.17,3.71-1.06,4.43a2.84,2.84,0,0,0,1.25-2.41Z" transform="translate(-173.37 -131.33)"/>
    <path class="cls-1" d="M261.72,381.16c-.08-.19-.15-.37-.23-.55l-.12-.09C261.48,380.69,261.94,381.66,261.72,381.16Z" transform="translate(-173.37 -131.33)"/>
    <path class="cls-1" d="M261.34,380.5l0,0S261.34,380.48,261.34,380.5Z" transform="translate(-173.37 -131.33)"/>
    <path class="cls-1" d="M279.3,386.29a2.65,2.65,0,0,0,.89-1.3C279.86,385,278.74,385.93,279.3,386.29Z" transform="translate(-173.37 -131.33)"/>
    <polygon class="cls-1" points="88.61 252.63 88.69 252.13 88.55 252.49 88.61 252.63"/>
    <polygon class="cls-1" points="87.63 250.33 87.59 249.96 87.59 250.25 87.59 250.78 87.62 251.15 87.63 250.79 87.63 250.33"/>
    <path class="cls-1" d="M271.48,411.29c.88-1.2,1-3.5.65-3.45l-1.48,2.47c.8.65.41-.74,1.39-1.81Z" transform="translate(-173.37 -131.33)"/>
    <path class="cls-1" d="M245.34,365.43c.76-.13,1.52,1.52,1.06,2-.36,0-1.17-.62-1.13.11l2.19.09c.31,2.12-2.62.23-3.65-.16,1,1.65,2.2,1.43,3.45,3a2.57,2.57,0,0,1-.06-1.59c.89-.78,1.63,1,2.55,2-.14-1,.51-.87,1.27-.67a.39.39,0,0,0,.29.08l.26.06-.1-.12a1,1,0,0,0,.31-.43c-1-.67-.72-2-1.15-2.54-1.08,1.75-1.86-1.67-2.88-2l-.78-.72-.24-.31c.12-.19.4-.26,1.06,0-.6-.16-1.49-1.57-1.89-1.08l-2.29-3.05a1,1,0,0,1,.06-.45.35.35,0,0,0-.34.08c-3.31-4.48-6.59-9.06-9.93-13.77.36.79.42,1.64.75,2.48-1.8-.34.64,1.31-.57,1.69a1.92,1.92,0,0,1-1.14-1.61c-.61.19-.63,1.1-1.27,1.45.62,2.22,3.2.82,4.05,2.79-.65.35-1.55.19-.67,1.26l-.33-.2c1.94,1.33-.36,2.36,2.08,2.34l-.88.58c1.23.35,2.36,1.91,3.11,2.72l-.2.06c2.75,1.77,1.21,1.24,3.63,3.68l-1.92-.53c.29,1.25,1.52.67,1.91,1.43-.2.07-.71.69-1.33.16,1.32.74,2.63,1.47,4,2.18C245.8,366.74,245.08,365.82,245.34,365.43Z" transform="translate(-173.37 -131.33)"/>
    <path class="cls-1" d="M247.26,370.5a1.93,1.93,0,0,0,.44.62A7.24,7.24,0,0,0,247.26,370.5Z" transform="translate(-173.37 -131.33)"/>
    <path class="cls-1" d="M232.7,345l.7,1A3.3,3.3,0,0,0,232.7,345Z" transform="translate(-173.37 -131.33)"/>
    <path class="cls-1" d="M252.73,373.7c0-.9.93-.07,1.32-.22l-1.61-2c-.31.26-.82.35-1.08.62Z" transform="translate(-173.37 -131.33)"/>
    <path class="cls-1" d="M252.59,370.45a1.89,1.89,0,0,1-1,0l.87,1.09C252.68,371.3,252.8,371,252.59,370.45Z" transform="translate(-173.37 -131.33)"/>
    <polygon class="cls-1" points="62.4 252.81 62.08 252.46 61.39 252.09 62.4 252.81"/>
    <path class="cls-1" d="M232.64,377.21c-.15.82.88,1.39,1.22,1.58C233.09,377.82,233.6,378.1,232.64,377.21Z" transform="translate(-173.37 -131.33)"/>
    <polygon class="cls-1" points="54.97 251.12 53.95 250.37 53.92 250.53 54.97 251.12"/>
    <path class="cls-1" d="M224.08,340l-.39-.43A1.91,1.91,0,0,0,224.08,340Z" transform="translate(-173.37 -131.33)"/>
    <path class="cls-1" d="M230.75,347.7c-.63-3,1.86.93,2.6-.66l-1.29-1,.41-.13-1.18-1.45c-.35.71-.22,1-.86,1.32-1.21-2.2.25-1.14-.05-3.17l-1.71-2.21.31.06a.49.49,0,0,0-.43-.22c-2-2.5-3.92-5-5.94-7.51-1.5-1.07-.5,1.56-2.12,1.15,1.19,1.63,2.32,4.51,3.59,3.8-.2.07-.61.19-.51.62l1.64.25-.33-1.12c1.65.25,3.63,3.49,3.4,4.46-1.56-1.5-2.12.2-3.21-2.68-.22.32-.43,1.14-1,.71C226.46,342.57,227.68,345.49,230.75,347.7Z" transform="translate(-173.37 -131.33)"/>
    <path class="cls-1" d="M209.12,319.71l.12-.06C209.15,319.64,209.09,319.66,209.12,319.71Z" transform="translate(-173.37 -131.33)"/>
    <path class="cls-1" d="M209.75,320.76l2.22.47-1.83-2.07-.9.49c.35,0,1.35.45,1.29,1Z" transform="translate(-173.37 -131.33)"/>
    <path class="cls-1" d="M213.94,322.28c-1.23-.84-2.1,0-2,.89-1.24-.66.56-1.32-1-1.24-.64.56.76,1.49,1.11,1.68Z" transform="translate(-173.37 -131.33)"/>
    <polygon class="cls-1" points="46.36 199.57 45.73 199.55 46.21 200.4 46.36 199.57"/>
    <path class="cls-1" d="M219.11,330.88l-.47-.84a2.79,2.79,0,0,0-.6.8Z" transform="translate(-173.37 -131.33)"/>
    <path class="cls-1" d="M217.4,327.81a7.65,7.65,0,0,0-.7-1.23C216.94,327,217.18,327.4,217.4,327.81Z" transform="translate(-173.37 -131.33)"/>
    <path class="cls-1" d="M217.82,328.87l.1-.12-.52-.94C217.56,328.18,217.7,328.53,217.82,328.87Z" transform="translate(-173.37 -131.33)"/>
    <path class="cls-1" d="M218.64,330c.57-.62,1.15-1.29.14-2.27l-.86,1Z" transform="translate(-173.37 -131.33)"/>
    <polygon class="cls-1" points="50.69 243.34 49.67 242.74 49.63 242.91 50.66 243.51 50.69 243.34"/>
    <path class="cls-1" d="M221,369.18a4.21,4.21,0,0,0-.75-.26A1.14,1.14,0,0,0,221,369.18Z" transform="translate(-173.37 -131.33)"/>
    <path class="cls-1" d="M213.74,368.69c-.05-1.51,1.91.79.86-1.33.51-.62,2-.3,2.28.82-.65.35-1-.6-1.22.38,1.11.11.8.67,1.55-.18,1.27.61,2,.27,3.06.54-1.27-.94-2.13-4.13-4.38-4.86-1.67-.08-2.78,1.47-4.35,2.56C211.26,367,212.65,369.34,213.74,368.69Z" transform="translate(-173.37 -131.33)"/>
    <path class="cls-1" d="M213.34,371.42a1.6,1.6,0,0,0,.77.84C214.58,371.8,213.64,371.79,213.34,371.42Z" transform="translate(-173.37 -131.33)"/>
    <path class="cls-1" d="M217.41,352.25c-.29.06-1.16-.6-1.42-.15l1.19,1.1C217,352.87,217.2,352.58,217.41,352.25Z" transform="translate(-173.37 -131.33)"/>
    <path class="cls-1" d="M217.7,353.69l-.52-.49A1.37,1.37,0,0,0,217.7,353.69Z" transform="translate(-173.37 -131.33)"/>
    <path class="cls-1" d="M217.5,352.09l-.09.16C217.47,352.23,217.51,352.2,217.5,352.09Z" transform="translate(-173.37 -131.33)"/>
    <path class="cls-1" d="M215.33,324.34c.43-.3-.27-.69-.62-.89C214.86,323.72,215,324.16,215.33,324.34Z" transform="translate(-173.37 -131.33)"/>
    <path class="cls-1" d="M195,304.59l-.21-.76A1,1,0,0,0,195,304.59Z" transform="translate(-173.37 -131.33)"/>
    <path class="cls-1" d="M178.12,308.79a.5.5,0,0,1-.26.13A.43.43,0,0,0,178.12,308.79Z" transform="translate(-173.37 -131.33)"/>
    <path class="cls-1" d="M177.86,308.92c-.57.06-1.18-1.21-2-1l.17-.13-.91-.2C175.83,308.06,177.12,309.11,177.86,308.92Z" transform="translate(-173.37 -131.33)"/>
  </g>
  <g>
    <path class="cls-1" d="M257.06,135c-.14-.51.47-1,.75-.8-.79-1,.06-1.07-1.4-1.13-.75-.64.21-1.4.84-.66l-.46-.89,10.23-.21.47,1,.2-1-11.57.23,0,.13a.55.55,0,0,1-.29-.12l12.19-.24c.65.48-.52,1.74.76,2.08l-.11-2.07-13.49.26v0h-.06l13.61-.27.34.09a.7.7,0,0,1-.06-.09l-14.17.28a1.84,1.84,0,0,1,.09,1.62c-.2,0-.53,0-.58-.36,0,2.52,2.15.58,2.64,2.65A.77.77,0,0,1,257.06,135Z" transform="translate(-173.37 -131.33)"/>
    <path class="cls-1" d="M254.18,137.28l1.56.82-.33,1.48c.53,0,1,1,1.43.31a1.06,1.06,0,0,1-.22-.65c1.14.12.65,1.94,1.78,1.46-.35-1.15-.11-1.34-1.06-2a4.29,4.29,0,0,1,.68-2.38c-.19-.31-.89-.32-1-.72a2.16,2.16,0,0,1,0,.27l-1.7.12c.37.32.22.65.27,1l-2.07-1.64c-1.57.63-.56,2.28-1.19,3C253.74,137.43,253.08,139,254.18,137.28Z" transform="translate(-173.37 -131.33)"/>
    <path class="cls-1" d="M257,135.58v0Z" transform="translate(-173.37 -131.33)"/>
    <path class="cls-1" d="M268.47,264.57c0,.37.42.48.62.54l.05-4.15c-.45.12-1,1.31-1.28.5-.5.35-.1,1.44.5,1.61l-.67-.31c.85,1-.88,1.59-1.38.95v.09l3.32,2.71C269.84,265.54,268.48,265.74,268.47,264.57Z" transform="translate(-173.37 -131.33)"/>
    <path class="cls-1" d="M263.25,349.57c-.12-.55-.28-.62-.45-.57A2.13,2.13,0,0,0,263.25,349.57Z" transform="translate(-173.37 -131.33)"/>
    <path class="cls-1" d="M270.41,267.15l1,.85A3.52,3.52,0,0,0,270.41,267.15Z" transform="translate(-173.37 -131.33)"/>
    <path class="cls-1" d="M254.49,261.1a.56.56,0,0,0-.18,0l.53.38h0Z" transform="translate(-173.37 -131.33)"/>
    <path class="cls-1" d="M273.89,286.1l.06.27A.76.76,0,0,0,273.89,286.1Z" transform="translate(-173.37 -131.33)"/>
    <path class="cls-1" d="M248.63,249.87l1,1.84c-.47-.25-.34.63-.9.24.08.14.26.79.51.62l0-.37c1.39,1,1.93.4,3,2,.84-1,.09-1.43-.54-2a2.08,2.08,0,0,1-.19-.48l-1.94-1.54Z" transform="translate(-173.37 -131.33)"/>
    <path class="cls-1" d="M256.75,323.54l-.1,0A.19.19,0,0,0,256.75,323.54Z" transform="translate(-173.37 -131.33)"/>
    <path class="cls-1" d="M256.2,323.41l.45.1C256.43,323.4,256.23,323,256.2,323.41Z" transform="translate(-173.37 -131.33)"/>
    <path class="cls-1" d="M269.51,266.82a2.62,2.62,0,0,1,.9.33l-.78-.64A3.21,3.21,0,0,1,269.51,266.82Z" transform="translate(-173.37 -131.33)"/>
    <path class="cls-1" d="M266.48,265.35l-.17-1.55-.71-.59C265.86,263.81,266,264.51,266.48,265.35Z" transform="translate(-173.37 -131.33)"/>
    <path class="cls-1" d="M274.78,283.66c.13,3.24-1.63-.84-2.06.63.17.9.94,1.24,1.17,1.81-.6-2.58,2.56.42,2.22-2.17a1.94,1.94,0,0,1,1.08,2.77c-1.4.95-1-.89-2.3-1.16.19,1,.44.87,1.19,1.33-.37,1.62,1.56,3.42-.36,4.33.26,1.19.91,1.14,1.6,1.84,1.46.18.83-1.73,2-2.13-.12.09-.38.26-.58.2l.34-1c-.54.95-1.45-.18-1.55-.7s0-1.13.34-1l.3.58c.48-.72-1-1.66-.19-2.41.33,0,.47.27.67.32-1-.9-.88-1.73-1.55-3l1.42.79c-1.57-1.07-1.05-3.39-.16-5-.25.17-.44.48-.71.28a1,1,0,0,1,1.44-1.18c-1.17-1,1.11-3.5-.42-4.8l-7.22-6a1.85,1.85,0,0,1,.39.69c-1.28.5-1.13.79-2.31-.16.65.92,1.68.6,1.7,2-.62-.54-2.08-.71-2.25.59,1.18,3.27,4.73,5.52,6.49,8.61-1,.09-.77,2.48-1,3.64a2.77,2.77,0,0,1-1.5-2.25c-.08.56-.14,1.53-.2,2.24Z" transform="translate(-173.37 -131.33)"/>
    <path class="cls-1" d="M271.7,276a.8.8,0,0,0-.19.24A.4.4,0,0,0,271.7,276Z" transform="translate(-173.37 -131.33)"/>
    <path class="cls-1" d="M273,280.8h-.11l.07.28Z" transform="translate(-173.37 -131.33)"/>
    <path class="cls-1" d="M267.28,267.53c-.27-.19-.35-.34-.62-.54a3.31,3.31,0,0,1,.24.42C267,267.55,267.16,267.62,267.28,267.53Z" transform="translate(-173.37 -131.33)"/>
    <path class="cls-1" d="M269,266.92l.4.11c0-.08.05-.14.09-.21A.53.53,0,0,0,269,266.92Z" transform="translate(-173.37 -131.33)"/>
    <path class="cls-1" d="M265.53,295.68l.21.32A.33.33,0,0,0,265.53,295.68Z" transform="translate(-173.37 -131.33)"/>
    <path class="cls-1" d="M273,287.21c-.06-1.13-1.45-.18-1.41-1.77l-.1.46c-.59-1.15-.25-3.14-.27-4.49.58.16.73-.8,1.63-.62a3,3,0,0,0-1.28-2.35c.32-.57-.48-1.46-.07-2.18-.56.3-1.82-1.08-1.2.71-.07-.15-.2-.06-.27-.2-.8,1.12.48,1.61.47,2.59-.55.57-.84-1-1.07-.44.47,1.24-.75,3.83,1.28,3.81.12.9-.33,1-.71,1.26,2.13,1.48-1.1,5.21,1.67,5.29a4.33,4.33,0,0,0-.57-2.14Z" transform="translate(-173.37 -131.33)"/>
    <path class="cls-1" d="M267.39,269.42c0,.06,0,.16,0,.21Z" transform="translate(-173.37 -131.33)"/>
    <path class="cls-1" d="M275.66,255.43l1.8.49c.4,2.69-.14,3.65-.11,6-.25.17-.4-.11-.48-.26.18,1.65-.25,4.1.56,5.32,0,.52-.63,1.88-1.15,1.35a1.25,1.25,0,0,1,.24.84c-.65.07-.17-.66-.7-.68-.05.23-.18.31,0,.37-.55-.4-2.21.36-2.13-1.46,1.53-.67.15,1.27,1.83.89,0-.61-.62-.55-.83-.61.06-.77.48-.74.86-.69-.52-.3.23-1.26-.55-1.68-.1-1.5,1.25.11,1.25-.87l-1.68-.6.35-1.62c-.55-2.36-2.94.29-3.84-2.42.88.37,2.38-.68,2.76-1.92.05.75,1.13,2.15.61,3.11,1.35-1.34.12,1.87,1.65,1.2a2.38,2.38,0,0,1-.37-2.68l.15.29c.19-.93-1.56-1.67-.87-2.94,0-.64.44-.51.83-.39C275.61,255.91,275.29,255.42,275.66,255.43Zm.34,1.39-.18.86A.72.72,0,0,0,276,256.82Z" transform="translate(-173.37 -131.33)"/>
    <path class="cls-1" d="M254.89,149.1l.12-.26A.45.45,0,0,0,254.89,149.1Z" transform="translate(-173.37 -131.33)"/>
    <path class="cls-1" d="M255.65,224.19l0-.49A1.26,1.26,0,0,0,255.65,224.19Z" transform="translate(-173.37 -131.33)"/>
    <path class="cls-1" d="M250,213.22l-.4-.71A1.19,1.19,0,0,0,250,213.22Z" transform="translate(-173.37 -131.33)"/>
    <path class="cls-1" d="M255,154.94v0a.87.87,0,0,1,.09.11Z" transform="translate(-173.37 -131.33)"/>
    <path class="cls-1" d="M253.74,191.16a1.42,1.42,0,0,0,.37-.4C253.94,190.78,253.82,190.93,253.74,191.16Z" transform="translate(-173.37 -131.33)"/>
    <path class="cls-1" d="M250.1,213.35l0,0-.11-.09Z" transform="translate(-173.37 -131.33)"/>
    <path class="cls-1" d="M250.71,229a3.07,3.07,0,0,0,.16.31A.61.61,0,0,0,250.71,229Z" transform="translate(-173.37 -131.33)"/>
    <path class="cls-1" d="M255.51,228.34a1.17,1.17,0,0,0,.17.31Z" transform="translate(-173.37 -131.33)"/>
    <path class="cls-1" d="M252.11,245.25l.23.66A1,1,0,0,0,252.11,245.25Z" transform="translate(-173.37 -131.33)"/>
    <path class="cls-1" d="M254.4,230.08l.23.11A.19.19,0,0,0,254.4,230.08Z" transform="translate(-173.37 -131.33)"/>
    <path class="cls-1" d="M259.78,144.71v0H260Z" transform="translate(-173.37 -131.33)"/>
    <path class="cls-1" d="M257.24,143.2l-.16-.57A1.06,1.06,0,0,0,257.24,143.2Z" transform="translate(-173.37 -131.33)"/>
    <path class="cls-1" d="M256.28,181.53c.24-.18.53-.59.81-.41C256.73,180.79,255.87,180.84,256.28,181.53Z" transform="translate(-173.37 -131.33)"/>
    <path class="cls-1" d="M270.5,147.53a3.06,3.06,0,0,1-.59-.35C270.17,147.42,270.38,147.62,270.5,147.53Z" transform="translate(-173.37 -131.33)"/>
    <path class="cls-1" d="M269.91,147.18c-.12-.12-.26-.24-.39-.35A2.21,2.21,0,0,0,269.91,147.18Z" transform="translate(-173.37 -131.33)"/>
    <path class="cls-1" d="M270.45,185.71a.34.34,0,0,0-.24.21C270.44,185.88,270.49,185.81,270.45,185.71Z" transform="translate(-173.37 -131.33)"/>
    <path class="cls-1" d="M257.33,142.15c-.41-.09-1.39-2.57-1.51-.44-1.26,0-.64-1.34-1-1.89-.28.42-.82-.17-1.26,0,.16.28.54.59.47,1.06-.57.24-1-.45-.8-1-.63.71-1-.81-1.5.17.53,2,1.05,3.44,3,4.81-.35-1.16-.78-2.44-.32-3.42l1.1.36c-.9,1.12-.16,1.75-.22,2.82l.48-2.41c.85-1.16,1.09-.42,1.33.46C257.08,142.41,257.14,142.21,257.33,142.15Z" transform="translate(-173.37 -131.33)"/>
    <path class="cls-1" d="M266.94,143.38l0,0a.54.54,0,0,0-.12-.09Z" transform="translate(-173.37 -131.33)"/>
    <path class="cls-1" d="M274.13,245.36l.4.21C274.35,245.39,274.22,245.34,274.13,245.36Z" transform="translate(-173.37 -131.33)"/>
    <path class="cls-1" d="M261.73,145h0S261.75,145,261.73,145Z" transform="translate(-173.37 -131.33)"/>
    <path class="cls-1" d="M274.25,240.2l.1,0Z" transform="translate(-173.37 -131.33)"/>
    <path class="cls-1" d="M250.8,238.66l-.14,0C250.72,238.8,250.77,238.75,250.8,238.66Z" transform="translate(-173.37 -131.33)"/>
    <path class="cls-1" d="M274.15,240.2h0Z" transform="translate(-173.37 -131.33)"/>
    <path class="cls-1" d="M270.21,215.16a2.12,2.12,0,0,0-.37.21C269.94,215.42,270.06,215.37,270.21,215.16Z" transform="translate(-173.37 -131.33)"/>
    <path class="cls-1" d="M268.6,220.1l-.12.09Z" transform="translate(-173.37 -131.33)"/>
    <path class="cls-1" d="M251.41,182.79a1.58,1.58,0,0,0,.07.58A1.09,1.09,0,0,0,251.41,182.79Z" transform="translate(-173.37 -131.33)"/>
    <path class="cls-1" d="M274.35,240.23a2.43,2.43,0,0,1,.38.25A2,2,0,0,0,274.35,240.23Z" transform="translate(-173.37 -131.33)"/>
    <path class="cls-1" d="M264.65,207.68l.12.15a.47.47,0,0,1,.06-.09Z" transform="translate(-173.37 -131.33)"/>
    <path class="cls-1" d="M265.43,205.11a2.92,2.92,0,0,0,.37.17c-.46-.91,0-2.6-1.14-2.79,0,.31-.64,1.93-1.32,1.66.3.64-.51,1.59-.32,1.93.63-1.05,1-.12,1.38.58-.34.65-.94-.11-1.15.45l.14,1.49.15-1.3,1.11.38-.1-.13C264,205.36,266.17,207.35,265.43,205.11Z" transform="translate(-173.37 -131.33)"/>
    <path class="cls-1" d="M265.8,205.28a1.06,1.06,0,0,0,.27.35A.38.38,0,0,0,265.8,205.28Z" transform="translate(-173.37 -131.33)"/>
    <path class="cls-1" d="M267.53,196.28a2,2,0,0,0-.19-.39C267.39,196,267.44,196.13,267.53,196.28Z" transform="translate(-173.37 -131.33)"/>
    <path class="cls-1" d="M265.8,262.11c.33,0,1-1.3.18-1.29-.1.38-.2.76-.29,1.14Z" transform="translate(-173.37 -131.33)"/>
    <path class="cls-1" d="M262.07,171.93a2,2,0,0,0,0,.42l.14.08C262.32,172.34,262.16,172.07,262.07,171.93Z" transform="translate(-173.37 -131.33)"/>
    <path class="cls-1" d="M262.94,203.76a.77.77,0,0,0,.4.39A.76.76,0,0,0,262.94,203.76Z" transform="translate(-173.37 -131.33)"/>
    <path class="cls-1" d="M264.1,171.79a2.36,2.36,0,0,1,.93-.51c0-.37-.46-.62-.63-1A1.73,1.73,0,0,1,264.1,171.79Z" transform="translate(-173.37 -131.33)"/>
    <path class="cls-1" d="M264.39,170.26s0,0,0,0S264.39,170.27,264.39,170.26Z" transform="translate(-173.37 -131.33)"/>
    <path class="cls-1" d="M265.43,262.87a3.59,3.59,0,0,1,.17.34l-.23-.18-.27.87a1.78,1.78,0,0,1,.13.37.36.36,0,0,0-.22-.13l-.1.28c.87.71,1.48,2.47,2,3a3.62,3.62,0,0,1,.49,2c0-.48-.14-1.11-.63-.93-.53.95-2,1.38-.78,3.07v-1l1.85,2.23c-.81.75-.92-1.11-1.6-1.43.89,1.72-1.65,3.08,0,3.91-1,.09-2.62.23-2.55,1.35,1.13-.77.7.69,1.91.06.54.4-.39,1.24.34,1.32l-.4-.11c-1.6,1.86.81,2.55,1.58,3.39.33,2.3-.32,3.33-.22,5.2-.65.06-2.47.51-2.43,1.26.88.37,1.23,2.07,2.36,2.28.52-1.32-.92-1.12-1.15-1.93,1.21-.63,1.17,0,1.91-.91-.48.72.51,3.34-.63,4.11l-.15-.29c-.72,1.26-3.53,1.41-1.91,3.61l.66,1a2.46,2.46,0,0,0-.34-.09c-.18,1.66-1.45,1.16-.49,3-.08-.14-.21-.06-.28-.21-.67,1,.57,2.14.8,2.94-1,.45-.92-.15-1.6-.47-.44,1.83,1.1,3.89,2.21,5.08l-.61,1.17c-.36-.72-1.32-1.63-1.9-1.43.16.66.62.55.4,1.47a8.45,8.45,0,0,1-1.89-1.06c-1.09,1.87,2.13.52.22,1.78,0,.6.83,1,1.55,1.08l-1,1c.93.16.93,1.51,1,2.4.4.13,1-.67.68-1,.72.1,1,1.06,1,1.66-1.95.13.09,4-2.17,3.15.51,2.74.52,6.56,1.25,8.39-.57.56-.65,1.76-1.53,1-.11,2.19,1.82,3.42,1.17,5.55-.25.17,0-1-.62-.93.7,1.45-1,2.53-.56,4.75,0-.37-.42-.5-.62-.56.33,0,.63.94.91,1.52-.19.31-.21-.44-.47-.27-1.17,4.19,1.29,7.57.93,11.79.1-1.21-1.16-1.74-1.69-1.78l-.1,1.17c.62.5.56,1.38,1,2.16-.25.07-.53.42-.81,0-1.45,2.25,2.13,3.79,1.28,6.61L260.88,352l-1,.8-1.09-1.6c-.77.86.83,1.76-.15,1.8-.26-.21-.15-.66-.67-.71-.44.85.28,1,.43,1.63-1.88-1.85-1.64-5.23-2-7.08-.14-.29.46.28.66.34,0-.75.63-1.15.34-2.11-.8-.63-.64.41-.76.86-.73-.11-.67-.33-.75-.85,1-.06.52-2.79,1.75-3.39-.15-2.75-2.54.29-2-2.35l1.16-.74a9.25,9.25,0,0,1-1.1-5.39l0,.37c.46.27.78-.12,1-.28.55-1.3-.74-2.57.42-3.31a23.54,23.54,0,0,1-2.38-5.91c1.5-.39,1.14,2.32,2,3.09l.07-1.58c0,1,.51,1.39,1.32,2,.34-1.37-.93-1.89-1.24-3.22.4.12.65,0,.69-.64l-1-.22c.08,0,.16-.07.23-.25l-.48-2.36c-.44.47-1.3.45-1.34,1.05.58-.18.67.33.63.93-.61-.55-.57.56-1.09.53a12.25,12.25,0,0,0-.21-3.5l.91-.21c.29-1.14-.16-2.38.14-3.15l.47.27c.34-1.37-.17-2.75.76-3.94A43.64,43.64,0,0,0,254,309c-1.14-.59,1.61-3.55,0-5,.13-.09.84,1,1.26,1.48.21-.92-1.2-1.71,0-2-.49,2.05,1-.07,1.29.88a4.12,4.12,0,0,0-.58-2.5c-.05,1.57-1.66-.62-1.2,1a5,5,0,0,1-.86-4.42c.52,0,.78-.13,1-.67l-.75-.47c.17-.68.86,1.36,1.18,0-1.26-1.47.89-4.26-1.51-5,1-1.05.9,2.09,2.13.5.84,1-.21,2.25,1,2.61-.31-.94,1-.3,1.07-.9l-.71-1.07-.06.23c-1.08-1.78-.44-4.53-.56-6.76-1.15-1.92-2.88-3.27-2.68-5.53.69.69.74-1.85,2-.4a1.37,1.37,0,0,0-.59-2.11c-.21.91-.18.32-.46,1.08a1.79,1.79,0,0,1-.13-2.23c-.05.23.07.15.27.2.46-1.08-.62-.54-.87-1.34.9-.23.29-1.75.77-2.46l-1.25-1.08c.83.6.34-1,1.11-1.15-.57-.77-1.59-1.42-1.35-2.56.43.48.66-1,1.51-1,.85-1.95-2.26-3.3-1-5.14.2.06.75.45,1-.09a6,6,0,0,1-.19-1.64h0l0,0c-.05-.23-.15-.37-.35-.38a7.37,7.37,0,0,1-2.34-2.77c-1,.09-.63,1.4-.33,2l1,.51c-1.48.43.22,1.39-.28,1.74-1.71-1-1.23-3.62-2.26-5.23-1.38.95-1.63,3.06-1.5,4.91l.6-.8v1l1-.92a16.64,16.64,0,0,0,0,2.54c0-1,1.35-1.32,1.13-.78-1,1.06.6,1.14.52,2,.1-.46.13-1.06.68-.66-1.2,1.6-.45,2.06-1.73,3.51,1.63-.14.13,1.86,1.45,2.11l.15-.68,1,1.48c-1.36,1.31-1.32-1.23-2.31.8-.22,1.89,1.49,1.88,1.58,3.37a3.33,3.33,0,0,1-1.69-2.91l-.48.71c-.55-.39-.38-2.05-.31-2.87,1.08,1.39.35-.64,1.23-1.24-.93-.13-.8.75-1.53-.31a5.55,5.55,0,0,1-.3,2.34c.47-2.65-3.19-2.47-2.36-4.78.4,1.09,1.35-.34,1.81-.46a10.62,10.62,0,0,0-.53-2l-1.36.35c-.55-1.36,2.31-1.78.95-3.37-.8-.22-.3,1.37-.45,1.08-.8-2.15,1.38-2.88,2.43-4.77a3.62,3.62,0,0,1-2-.78c.81.22,1.23-.27,1.81.49.35-.63-.23-1.39-.54-2-.49,1.32-1.16-.56-1.64-.81.15-.68.81.22,1,.65.22-.55,1.42-1.19.21-1.52.85,0,2.22,1.58,2.43,2.6l.15-.68c.42.48.3.56.16,1.25a1.88,1.88,0,0,1,2-.42c-.13.09-.2-.05-.32,0-.23.55,0,1,.45.85,1.14.52.73-.75,1.3-1.11l-.21-.85-3.64-2.92c-.41-1.22.48-1.76,1-2.67l-1-.27c.12-1.06.44-2.06,1.68-1.36-.33,0-.26.17-.31.4a.75.75,0,0,1,.31.16l.17.05c-.3-1.14-.5-1.85-.54-1.92,1.4,2,1.78.12,3.52.46l-.54-2c-.57,1.18-.85,0-1.08-.41,1-.11,0-1.58.15-2.27l.2.06a3.69,3.69,0,0,0,0-2.54,20.17,20.17,0,0,1-2.89-1.49c-.37,1.35-.76.54-1.37.65.06-.14.07-.39-.05-.42-.28-.2-.37.26-.7.29.45,1.45.57,2.93,1.93,3.53.62-.44-.58-.76-.17-1.25.92.72.73,1.64.69,2.84l-.82.39.43,1.21c-.43-.51-1.29-.22-1.44-1.48-.77.15.16,1.25-.11,2l1.08.41c-.6-.16-.74,1.5-1.55.31l-.87-1.92-.75.52-.19-1.62.56.39c-.73-2.61,2.18-.75.91-3.38-1.32-.83-1.45-1.71-1.12-3.31.29,1.16.93.13,1.69.57.56-1.18-.53-1.59-1-2.21.7-.29,1.27-.51,1.16.55,1.46.14-.24-1.39,1.26-1.48,0-3.51-4.82-2.83-2.94-6.92l.6.16c-.75-2.61,0-4.11-.51-6.51l1.54-1.9c.23.42,1.39,1.56,2.13,1-1.56.93-1,1.91-1.85,2.91.41.1.7-.31,1-.49,0,.61-.71.91-.44,1.7.32,0,.71-.9.9-.25l-1,1.08c.46,1.44,2.29.71,1.86,2.41-.86-.32-2.1-1-2.31-1.62-.18.77-.51-1-1-.33,1.26,1.12.26,1.65,1.06,3.14-.18-.17-.43-.22-.51-.59l-.54,2.15c.75-.53.8,1.78,1.91,1.59.46-2.3-.19-1.62.43-4.24a4.8,4.8,0,0,0,2.4,2.15.19.19,0,0,0-.1.14c1.09.41,1.38,0,3.29,0-1.35-1.2-.24-2-1-3.41-1-.26-1.33.82-1.06,1.52l-.69-1.24.48.24.35-3.15c0,.6.66.8,1.11,1.11a3,3,0,0,1,.62-1.24c-1,.09-1.7,0-1.68-.36a5,5,0,0,1,2.27-3.92l-.07-.23c-1,.34-1.84-1.44-2.88-2.06,1,0,.63-1.05,1.17-1.64a5.22,5.22,0,0,0-3.88.83c1.11,1.37,1.12.76,2.69,1.41l1.05,2.2-1-.49c-.43,1.1.85,2.15-.41,2.07-.84-.58-.33-1.54-1.17-2.11l-.46.73c-1.24-1.28,1.19-.66.33-2.21-1.07.57-.08-.14-.8-.8-.74.53.31,2.72-1.51,2.26-.79-.8,2.13-2.72.32-3.78l.21.06c.23-1.58-.82-2.13-1.47-2.71.58-.67-.26-1.59-.33-2.32l.53,0-.23-1c1,.48,0,1.2.13,2.07l1-.11c-1.15,1,.62,1.68,1.47,2.47-.85-1.14.22-3.24-1.7-3.49l1-.72-.36-.33a1.45,1.45,0,0,1,2.14,1c-.24.17-.36.26-.57.21.44.47,1.21.91,1,2.06l-.52-.61c-.06,1.43.33,2.73,1.29,3.21a27.21,27.21,0,0,0,.41-6c-2.22-.56-3.47-1.23-5.54-1.5-.39-1.3-.69-3.06.06-4.19l.41.1a1.74,1.74,0,0,0-.15-1.49c.54-.58,1.09.39,1.38,0l-.71-1.85c.94.1,1,1.67,1,2.41-.08-.14-.24-.42-.36-.33-.38.87,1.22,2.47-.12,2.86.23.42-1-.84-1.07.58-.5,1,.72,1.26,1.12,1.36s.72-1.51,1.36-1c-.08-.74-.76-1-.26-2,.07.74,1.15,1.73.33,2.13,1,1.45,3.48,1.23,3.61.54-.77.17-1-2.66-2-.74-1-.85-1-2.42-1.66-3.54l.2.05-.26-1.39c.28.19.52.61,1.05.62l-1.44-1.92c1,1.08.65-.68,1.06-1.18-.81-.2-1.41-.95-1.86-.22s.44.47.51,1.21l-1.29-1,.13-.09-1.06-.62c.06-1.43,2.44.59,1.39-1.22l-1.42.25c.18-2.12,1.74-4.86,1.06-6.35a3,3,0,0,0,2.88,0,7.47,7.47,0,0,0,0,2.88c-.24.18-1.7-1.14-1.4-2.15-2.32.53,1.44,2.51-.92,2.67-.78,2.57,2.3,1.88.95,4.07,1.06,0,.52.61,1.46.72,1.71-.67-.11-2.91.47-4.34.08.14.24.42.44.47a2.22,2.22,0,0,0-.34-2.13l-.13.09c-1-1.22.78-.77,1.23-1.51-.16-.28.13-1.29-.64-1.12l1-1.33-1.18.09c-.08-.74.7-.92,0-1.58h-1.05l-.34,1.84c-.36-.92-1-.24-1.25-1.26,1.17,1.13.58-.82,1.55-.95l-.61-.74.29.19c.53-.61-.41-.7-.29-1.39-.57.82-1.29,1.37-.53,2.39a8.57,8.57,0,0,1-1.33-2.59c-.46-.79.33-1.36.43-2.1.45,1.41,3.18-.56,2.49,2.31-.21-.05-.17-.29,0-.38-1.34.41.12,1.71.65,2.32.77-.17,1,.47,1.38-.63-.49.37-1.75-.9-1.14-2l1.67.15.16-1.53.08.14c1-.59-.24-1.62.36-2.68-.61-.74-.2-3.66-1.91-2.37,1-1-.32-1.76-.56-2.78l-.65,1.3c-1.22-1.48-.45-1.07-2.36-2.23.45-.13.82-.41,1.3-.18.05-2,.42-4.94-1-6.09,0-1.43,2-1.71,1.15-3.7-.24-.41-1.54.38-1.1-1,.12-.09,1.27,1.25,1.09-.23-1.3-1,.64-2.5-.51-3.83.44-.74.22-2,1.24-1.76-.19,1.15.07,2.77.56,3-.62-.14-.57.83-1.06,0-.71,1.76.66,1.11.18,2.68.41.1,1.09-.83.72-1.16,1.38-.05.76,3,2.37,1.62.07-1.67-2.82-2.07-1.41-3.56.86.55.17,1.48,1.64,2.17l.52-1.2-1-.83.21,0c1.2-2.13-1.48-1.89-2.24-3.74-.92,1.12-2.4-.17-2.95.67-.22-1.25-.07-2.17,1.3-2.23,1.21,2.3,1.47.09,2.92,2.2.48-.37,2,.45,2.14-.84-1-1.42-1.13.47-1.64-1a.49.49,0,0,1,.45-.14c-.74-.65.23-.79-.59-1.57l.28.18c.8-1-1-1.05-.11-1.94-1,.38-.86-.55-1.51-1.06-.36.89-1.81,1.41-1.67,3.12.82.17,1.26,0,1.68.72l-.14-1.11a6.31,6.31,0,0,0,.53.63l-.38,1.08c-.63-1.33-1.47-.68-2.33-1.23.3-1.25-.26-1,0-1.8,1.19,0,1.94-2.46,2.66-3.92,0,.22,0,.51,0,.66.79,1,1-.75,1.29-.8l-.62-.73c.09.14.37.32.53,0-.26-1-1.43-.92-1.69-1.93.65-.1,1.67.73,2,.08.56-.25,2.06-1,1.42-2.34-.26-.09-.41-.43-.54-.84,0,.06.07.13.12.15l.67-.93c1.15.72-.46,1.58.69,2.31l1.07,0a2.53,2.53,0,0,0,1.08,1.76c.14-.93-.14-1.11-.41-2.13.67-.17,1.2.53,1.27.63l-.61-.12c-.82,1.26,1.09,1.79.95,3.32,0,.23-.12.1-.33,0,1.08,1.2-.29,2.47,1.11,3.62l-.57-.37c.48.8,1.58,2.36,2.64,3.93h.42c.24-.18.25.42.09.75h0c.54.78,1,1.54,1.4,2.16a1.41,1.41,0,0,0,.5-.78c-.5-.23-.15-1.72-1.24-1.48.64-.7-.36-1.76,0-2.28-.67.94-1.06-.59-1.67-.73.68-.33-.1-1.35.84-1.26.23-.19-.61.47,0,.84.9.92.7-1.78,1.57-.62-.71-1.49-.5-3.49-1.41-5l-.35.89c.11-.7-.16-2.33.29-2.47.13.51.14,1.11.35,1.76,1.05,0-.07-1.58.58-1.68l-1.82-1.84,0,.84c-.67-.5,0-2.28.12-3.58,1.48.68.12,1.95.76,3.29.59,1,1.37-.67,1.75.26a.78.78,0,0,0-.11-1.16l.24-.38c1.35.79,1.14,2.68,2.31,3.88a1.34,1.34,0,0,0-.45-.22,3.4,3.4,0,0,0,0,2.89c.4-.51.11-.7,0-1,.32-.05.49.83.86,1.16.35-.89.77-.19,1-.76a2.31,2.31,0,0,1,.14,1.73c-.48.37-.69-.28-1.34-.18.42.7-1.12,1.08-.34,2.1.23-1.4,1.43.32,1.88.78l0-.23c.78.41.82.78.14,1.11-.34-.56-.14-1.11-.91-.93a2.76,2.76,0,0,0,.34,1.17l-.57-.37.23,1.87a18.22,18.22,0,0,0,2.69,1c-.6.47-.06,1.07.19,1.49l-.29-.19c-.55.85,0,2.67.59,2.8-.52.61-4-4-3.28.11.05,1.58,1.95.92,2.65,1.81a.47.47,0,0,0-.33,0c-.12.7.62.75.95,1.31.28-.42.27-1,0-1.21.81.18,0,1.44.62,2-1.26-.66-.44,1.35-1.09.83-.76,1.41.27,2.85,1.2,3.55-1.53,1,.26,1.64-.42,3.18,0-.24-.21-.66-.05-1-1-.84-.47,1.59-1.41.28.16.28.52,0,.36-.28-.13-.51-.58-1-1-.84l-.84,1.26-.26-.42-1.16,1.9c.2,0,.45-.13.57-.23-.49,2.19.24,4.66.12,6.57,2.8.3,1.3,4.67,3.05,6.18a4.25,4.25,0,0,0-2.8-.33c-.13-.34-1.27-1-1.06-1.81.45-.13.94-1.1,1.46-.49-.36-2.15-1.21.31-2.27-.3.32,2.38,2,3.74,2.68,5.24l-.33,0,.64,1.13c.17-.93,1.75-.92,1.22.29l-.08-.14c-.66.69.15,2.1.06,3.17l.93.71c-.09,1.07-1.8,1.14-2.81,1.51-.1,1.67,1.31,2.62,2.16,3.8-.73.55-.87,3.06-1.79,1.74.67,1.51,4.65,1.16,2.46,3.78l-.72-.67c.17,2.48,1.63,6,.88,7.15-2.59-.89-2.6,3.12-5.12,3.57.57-.13.77.8,1.08.94-.29.2-.58.54-.06.9.51-1,2.63.67,1.6-1.17,1.74.92,3.09,2.13,3,4.18l-1.06,0,.32-1.62c-.78.16-.72-.67-1.08-1-.59,3-2.47-.39-2.33,2.69.69.3.41.11.68.91a.4.4,0,0,0-.78.16l.84.58c-1.75,1.08-1.14-1.78-2.38-.86-.83-1.18-1.27-3.24-2.62-2.85-.48,1.94,2.53,1.74,1.92,3.77l-.57.21c.39.71,1.31.83,1.87,1.22-.32,0-.56.22-.66.67,1.36,1.21,1.62,2,3.1,3.12-1.11-3,1-2.53,0-5.59.44.48.76,2.63,2.22,2.77l-1.06,0a4.16,4.16,0,0,1,.75,3.24l-.6-.77c.74,1.66-1.59,2.76.16,4.07a1.66,1.66,0,0,0-.1-1.13,4.17,4.17,0,0,1,.17,2.85l1.74,1.93c-.53,0-.57,1.2-1.4.61-.81,1.37.76,2,1,2.83-1.12,1.41-.49-1.23-1.94-1.37a6,6,0,0,0,.87,5.11c.21-.39.4-.58.65-.56-.33.06-.25.84-.26,1.28l.68.31c-.47.72-.87.61-1.38,0-.14.7,1.18,1.54.18,2.25-.81-1.2-.09-2.71-.6-3.33.66,2.49-2.1,2.48-1.27,5.63-.33,0-1-.5-1,.11.24,1.4,1.41.38,2.17.83-.42-1.09,0-1.59.88-2.21l.56.3c-.29,0-.32.72-.6.91l1.13.19c-1.25-.09-2.22,1-1.76,1.84.92-.85.87-.62,2.3-.84,1.34,1.22-1.35,1.35.07,2.71-.41-.1-.69-1.28-1-.27-.07.84.91.74,1.22,1.31-1-.65-1.82-.5-3.05-1.2a4.58,4.58,0,0,0-.42-2.07l-.9,1.22c-.15-1.26-1.18-.93-1.58-1-1.09,2.15,1.57,1.65,1.27,3,.71.68.17-1.31.91-.25-.17,1.3.68.31,1.11,1.78l-.47-.26c-.63.44.13.89.23,1.41.31.58,3.64-.59,3.68,1.75a1.7,1.7,0,0,0-.6-.16L266.91,253a34.74,34.74,0,0,1-.93,7.8c-1.73.61-1.38-2-2.16-1.82l.38-1.24c.73.08.17,2.61,1.48,1.51-.47-2.21.37-3.2-1.11-5.31-1.73.63.28,2.76-1.08,4.09a2.16,2.16,0,0,0-.3-1.52c-.24,1.27-.51,2.63-.79,4.07l.41.33a13.67,13.67,0,0,1,.43-1.73,2.21,2.21,0,0,0,2,2.51l.05-.23.39.48Zm-3.67,83.94a1.38,1.38,0,0,0-.42-.22C261.52,346.65,261.64,346.61,261.76,346.81Zm-.23-109.36c-.19,1.73-.55,3.46-.71,5.12,2.51-3,4.4-5.07,4.32-.06l.18.33a5.39,5.39,0,0,0,.18-2.84,33.49,33.49,0,0,0-4.39-3.63c-.69.3.06.75-.15,1.3Zm4.18-1.2c.28-1-.27-.76-.77-.91l.18,1A.56.56,0,0,1,265.71,236.25Zm-1.27-.86a.35.35,0,0,1-.1.26Zm-.82,19,0-.1-.12.7A1,1,0,0,0,263.62,254.43Zm1.24-2-.9-.24-.11.65A1.58,1.58,0,0,0,264.86,252.46Zm3.07-6.36c-1.08-.41-1.11-1.76-2.37-1.86-.32-.09-.45.2-.56.51l-.12,1.14a.91.91,0,0,1,.52.23c.16-.39.48-.66,1.25-.49-1.7,1,1.19.93.74,2C268.27,248,268.29,246.44,267.93,246.1Zm-4.14-84.88c.11,0,.38-.15.73-.32l.64.76c-.23,1.4-2,2.56-.41,3.77a4.38,4.38,0,0,1-1.87,1.25,3.51,3.51,0,0,1,.2-.79C260.71,162.46,265.43,164,263.79,161.22Zm-1.79,16a.46.46,0,0,0-.28-.18c2.37,3,3.1,5.58,3,7.25.91-.34,1.59-1.86,1.95-2.58l1.06.61-.81.41,1,1.08c.69-.32.53-1.2,1.05-1.81-.19,0-1.45-1.91-2.11-2.43l-.69,1.53c.29-.41,0-2.42-.28-3.21-.52,0-1.3,1.39-.16,1.54-.77.18-.82-1.4-1.63-.39-.85-1.16-.2-3.06.17-3.94l1.3-.18c.48-1-1.59-.61-.86-1.77.29,1.39,1.42-.27,1.55.84.48-.37,1.38,0,1.25-1.16-1.75-.89,1.05-1.21-.5-2,.52-.6,1.06.61,1.25-.55-.94-1.31-1.59-1.21-2.85-1.26-.31,1.25,1.68,1.35,1.4,2.37l-2.21-2a.86.86,0,0,0-.22.89,2,2,0,0,0-.92-1c-.25-.16-.46-.31-.65-.45,0,1.14,0,2.16-.51,2.35l-.61-.14c-.55.42-.09,1.06.36,1.35.1,1,1,2,.18,2.27l-.56-.38A15.24,15.24,0,0,1,262,177.21Zm-.84,41.19c2.23-.77,4.22-1.62,3.8-5.17l.16.28c1.38-1.81-1.89-3.49-.35-5.68.85,1,.78,1,2.71,2.15l-.64-1.13c1.22.31.58-.82.63-1.66l1.45.73c-.41.5-.55,1.8-.22,1.76-.16-.28-1.81,1.73-1.38,2.81,1-.12.56-2.41,2.17-1.39-.68-.9.3-1-.05-2,.68.9,1.34.21,2.05.88l-.34-1.54c.33,0,.74,2.25,1.94,1-.52-.62.11-2.28-.95-2.3l.33,0c.22-1.17-1.5-.5-.91-1.93-.53,0-.89.26-.78.77s1,.49,1.12,1.38c-.82.4.09-1.08-1.3-.45-.69.31.62,2.34-1,1.71l.22-1.16c-1.06,0-1-.86-1.86-.83-.39-.71.79-1.38-.13-2.1-.69-.29-1.95.24-1.41-1,1.56-.94,1.22-3.69,1-4.72l-.69-.89c-.64.08.12,1.72-.73,1.15l-.28-1.4.41.1c.08-.47-.36-.94-.6-1.36.77.43.48,1.45,1.57,1.23.21-.66.62-.77.4-1.37a.36.36,0,0,0,.34.22c.46-1.34-1.25-1.27-1.61-1.6-1.45-1.32-1.31,1.37-2.44,1.21l-.67-3.9c.36.33.72.66,1.17.52.5-1,.86,0,.78-1.38-1.5.12-1-1.68-1.84-2.62.61-.46.73-.55.76.42,1-.13.58-1.43.66-1.89-.24-.27-.4-.72-.62-1-.48.4-1.09.24-1.53-.59l-.2,0c-.24,1.39-1.27,3.56-.26,4.41l-.49-.24c-.82,1.61,1.81,3.45,0,4.22-.73-.06-.16.32-1.21.31l.84,1.16-.48-.23.27,2-.2-.05c1,.93,1.76,1.67,2.4,2.26.46,0,.6-.07.95.25a.86.86,0,0,1,.21.77h0c-.13.49-.78.83-1.05,1.44l-.13-1.86A1.87,1.87,0,0,0,261,201c0-.37-.65-.52-.73-.06.21,0,.51,1.22,1.13.76.3,1.77-1.73,4.65-.22,7.33-.91-1.93-1,1.55-1.37-.59-1.24,1.5,1.24,1.28,1.05,2.8-.44.14.06-.83-.83-1.17-.49,2.53,2.06,4.26,1.68,6.72l-1,.1C260.88,217.35,261,217.86,261.16,218.4Zm1.22,4.85.34,1.44a.8.8,0,0,1,0-.15l.78,1.42c.38-.87,1.45-1.44,2-.22-.4-.1-.89.25-1.13-.17-.58.82-1.15,2.61.33,2.14-1.4-1.57,1.87-.36.84-1.6,1,.67.52,1.32,1,1.95-.8-.65-1.82.15-2.2,1.13.24.42,0,1.58.39,2.29.9-.25,1.41.37,1.65-.79a1.72,1.72,0,0,1-.05,1.82c-.16-.3-.26-.81-.59-.77-.83.47-.8,1-1.15,1.33l.14.73a1,1,0,0,1,.31-.18l.79.82c-.42-1.08.42-.5.94-.48-1.05,0-.14.69-.11,1.06l1.12-.79c.56.39-.81,1.36.29,1.17a6.66,6.66,0,0,0-.05-3.91l-.87.62c-.6-1.74,1.49-1.07,1.46-3-.79-.82-.06-2.94-1.64-3,.48.24,1.4-1.22.69-1.89-1.45-.74-1.65-3-2.31-2.3,0,.61.78,1.42-.16,1.9l-.3-1.17-.79.77C264.31,223,263.54,223.06,262.38,223.25Zm-9,26.08,0,0a.07.07,0,0,0,0-.05Z" transform="translate(-173.37 -131.33)"/>
    <path class="cls-1" d="M259.89,144c-.38-.32-.35-1.16-1.12-1C259.62,143,259,144.54,259.89,144Z" transform="translate(-173.37 -131.33)"/>
    <path class="cls-1" d="M260.68,143c-.21-.05-.53,0-.58-.37l.26,1Z" transform="translate(-173.37 -131.33)"/>
    <path class="cls-1" d="M266.45,141.71c-.65-.51-1-.83-1-1.66,2.06-.4.63,1.34,2.59,1.64.13-1.54-1.71-1.94-1.94-3.18C265.26,139.17,264.87,141.73,266.45,141.71Z" transform="translate(-173.37 -131.33)"/>
    <polygon class="cls-1" points="95.73 10.95 95.23 10.11 95.11 10.2 95.61 11.04 95.73 10.95"/>
    <path class="cls-1" d="M251.73,161.29c-.65.09,0,.6.17.87C251.93,161.93,252.09,161.61,251.73,161.29Z" transform="translate(-173.37 -131.33)"/>
    <path class="cls-1" d="M249.4,327l.27,6.47C249.61,331.65,249.62,329.93,249.4,327Z" transform="translate(-173.37 -131.33)"/>
    <path class="cls-1" d="M256.52,182.55c-.65-1.71-1.78-2.46-2.11-4.22-1.25,2.35,2.11,3,.82,5Z" transform="translate(-173.37 -131.33)"/>
    <path class="cls-1" d="M251.33,182.05c1.22-.31,1.46,1.31,2.35,1-.32-1.16-1.17-.52-1.09-1.58Z" transform="translate(-173.37 -131.33)"/>
    <polygon class="cls-1" points="98 42.38 98.65 42.9 98.41 42.48 98 42.38"/>
    <polygon class="cls-1" points="79.2 58.57 78.92 58.39 78.54 59.26 79.2 58.57"/>
    <path class="cls-1" d="M252,189.54l.28.18Z" transform="translate(-173.37 -131.33)"/>
    <polygon class="cls-1" points="100.64 43 100.89 42.2 100.32 41.83 100.64 43"/>
    <path class="cls-1" d="M267.61,181.42l-.41-.69C267.28,180.87,266.8,181.84,267.61,181.42Z" transform="translate(-173.37 -131.33)"/>
    <polygon class="cls-1" points="78.76 63.88 79.24 64.72 79.36 64.63 78.88 63.79 78.76 63.88"/>
    <path class="cls-1" d="M271.1,186.86c.93-.51.28,1.4,1.09.38C272,186.35,271.55,186.72,271.1,186.86Z" transform="translate(-173.37 -131.33)"/>
    <path class="cls-1" d="M264.88,197.27a.48.48,0,0,0,.14.35A2,2,0,0,0,264.88,197.27Z" transform="translate(-173.37 -131.33)"/>
    <path class="cls-1" d="M264.88,197.27c0-.37.35-.75.07-1C264.53,196.74,264.69,196.91,264.88,197.27Z" transform="translate(-173.37 -131.33)"/>
    <path class="cls-1" d="M265.16,201.52l.06-.33c.47.33.4.17,0-.13,0-.36-.33-.33-.54-.37l-.36-.22.34.29C264.68,201.31,264.73,201.65,265.16,201.52Z" transform="translate(-173.37 -131.33)"/>
    <path class="cls-1" d="M249.42,217.39c.35-1.23.52-1.55,1.25-1.49.23-1.17-1-1-1.33-1.69C249.49,215.54,249.15,215.81,249.42,217.39Z" transform="translate(-173.37 -131.33)"/>
    <path class="cls-1" d="M249.34,214.21c0-.15,0-.29-.06-.46A.94.94,0,0,0,249.34,214.21Z" transform="translate(-173.37 -131.33)"/>
    <polygon class="cls-1" points="99.69 65.1 100.82 65.86 100.66 65.58 99.69 65.1"/>
    <path class="cls-1" d="M249.05,219.23c0-.23,0-.6.27-.78C248.58,218.39,249,219.46,249.05,219.23Z" transform="translate(-173.37 -131.33)"/>
    <path class="cls-1" d="M263.36,214.4c.45-.13.17-.93.34-1.25C263.61,213.61,262.27,214,263.36,214.4Z" transform="translate(-173.37 -131.33)"/>
    <path class="cls-1" d="M252.07,222.77a1,1,0,0,1,1.14-.43C252.85,222,251.56,221.55,252.07,222.77Z" transform="translate(-173.37 -131.33)"/>
    <polygon class="cls-1" points="89.86 85.33 90.11 85.16 89.64 84.31 89.86 85.33"/>
    <path class="cls-1" d="M274,213.58c-.87-1-2.09,1.53-2.84-.12-.89,2.14,1.24-.17,1.11,1.41A1.91,1.91,0,0,1,274,213.58Z" transform="translate(-173.37 -131.33)"/>
    <path class="cls-1" d="M272.27,214.87a1.21,1.21,0,0,0-.07.43A2.91,2.91,0,0,0,272.27,214.87Z" transform="translate(-173.37 -131.33)"/>
    <path class="cls-1" d="M266.77,228.38a1.32,1.32,0,0,0-.3-.32A1.49,1.49,0,0,0,266.77,228.38Z" transform="translate(-173.37 -131.33)"/>
    <path class="cls-1" d="M273,219.9l-1.31-1.44c.87,1,.82,3.38,2.12,3.23a2,2,0,0,0-.65-2.12Z" transform="translate(-173.37 -131.33)"/>
    <path class="cls-1" d="M249.34,236.3l-.51-.62-.16.76C248.87,236.23,249.82,236.63,249.34,236.3Z" transform="translate(-173.37 -131.33)"/>
    <path class="cls-1" d="M248.64,236.59l0-.15A.18.18,0,0,0,248.64,236.59Z" transform="translate(-173.37 -131.33)"/>
    <path class="cls-1" d="M266.14,225.67a1.73,1.73,0,0,0-.18-1.26C265.71,224.58,265.48,225.74,266.14,225.67Z" transform="translate(-173.37 -131.33)"/>
    <polygon class="cls-1" points="77.84 109.31 77.62 108.29 77.71 109.4 77.84 109.31"/>
    <polygon class="cls-1" points="75.58 114.03 75.33 114.2 75.79 115.05 76.03 114.87 75.58 114.03"/>
    <path class="cls-1" d="M274.64,239.36c.14-.7-1-1.25-1.28-1.07l.05,1.35c1-.33,0-.37.23-1.15Z" transform="translate(-173.37 -131.33)"/>
    <path class="cls-1" d="M250.18,280.58c-.68-.31-.24-1.76.41-1.82.28.2.52,1,.95.52l-1.65-1.21c1.09-1.51,2.18,1.23,2.75,2,.26-1.56-.83-2.06-.78-3.72a2.19,2.19,0,0,1-1,1c-1.18,0-.62-1.51-.68-2.62-.53.69-.95.27-1.4-.25a.42.42,0,0,0-.18-.21l-.16-.18v.14a1,1,0,0,0-.52.1c.32.94-.69,1.63-.72,2.22,1.94-.54.39,2.05,1,2.82l.17.88v.32c-.21.06-.47,0-.84-.54.37.42.2,1.8.82,1.69l-.06,3.15a1.07,1.07,0,0,1-.32.26.37.37,0,0,0,.31.12L247.93,299c.18-.67.63-1.24.87-1.93,1.24,1.09.27-1.14,1.47-.79a1.26,1.26,0,0,1-.05,1.57c.6.18,1.16-.39,1.89-.29.82-1.71-2.08-2.08-1.58-3.76.73.09,1.35.64,1.29-.47l.14.29c-.75-1.81,1.7-1.33-.26-2.52l1.05.07c-.77-.84-.72-2.41-.84-3.29l.21.06c-1.13-2.52-.2-1.4-.63-4.2l1.19,1.32c.54-.95-.79-1.21-.64-1.89.2.05,1-.08,1.15.57l-1.78-3.43C250.64,279.5,250.63,280.47,250.18,280.58Z" transform="translate(-173.37 -131.33)"/>
    <path class="cls-1" d="M251.86,276.36a1.37,1.37,0,0,0,.06-.62A4.79,4.79,0,0,0,251.86,276.36Z" transform="translate(-173.37 -131.33)"/>
    <path class="cls-1" d="M247.9,300l0-1A1.92,1.92,0,0,0,247.9,300Z" transform="translate(-173.37 -131.33)"/>
    <path class="cls-1" d="M249.69,271.46c-.56.57-.75-.46-1.15-.57l0,2.1c.41,0,.85.22,1.23.18Z" transform="translate(-173.37 -131.33)"/>
    <path class="cls-1" d="M247.72,273.57a1.87,1.87,0,0,1,.76.56l0-1.14A.79.79,0,0,0,247.72,273.57Z" transform="translate(-173.37 -131.33)"/>
    <polygon class="cls-1" points="96.02 142.55 96.05 142.93 96.35 143.5 96.02 142.55"/>
    <path class="cls-1" d="M267.45,279.7c.63-.43.19-1.3,0-1.58C267.48,279.1,267.26,278.67,267.45,279.7Z" transform="translate(-173.37 -131.33)"/>
    <polygon class="cls-1" points="100.71 147.33 101.03 148.29 101.16 148.2 100.71 147.33"/>
    <path class="cls-1" d="M251.76,307.28l.05.46A1.39,1.39,0,0,0,251.76,307.28Z" transform="translate(-173.37 -131.33)"/>
    <path class="cls-1" d="M251.08,299.22c-1.27,2.18-.93-1.5-2.47-.85l.46,1.23-.41-.12.07,1.48c.71-.28.77-.5,1.49-.41-.36,2-.89.59-1.87,2l0,2.21-.21-.19a.39.39,0,0,0,.22.35l.15,7.44c.52,1.38,1.34-.69,2.37.36.06-1.57.94-3.87-.51-4.06.19.06.59.18.78-.13l-1.16-1-.42.85c-1.16-1-.77-3.89,0-4.4.34,1.69,1.81.91.94,3.21.37-.08,1-.49,1.22,0C251.44,304.53,252.21,302.1,251.08,299.22Z" transform="translate(-173.37 -131.33)"/>
    <path class="cls-1" d="M250.56,326.68l-.13,0C250.5,326.7,250.55,326.72,250.56,326.68Z" transform="translate(-173.37 -131.33)"/>
    <path class="cls-1" d="M250.79,325.77l-1.37-1.41,0,2.09,1,.2c-.24-.2-.72-.95-.31-1.21Z" transform="translate(-173.37 -131.33)"/>
    <path class="cls-1" d="M248.63,322.78a1.28,1.28,0,0,0,2.13.53c.49,1-1.3.46-.08,1.2.85,0,.41-1.22.26-1.51Z" transform="translate(-173.37 -131.33)"/>
    <polygon class="cls-1" points="76.26 183.56 76.73 183.88 76.9 183.15 76.26 183.56"/>
    <path class="cls-1" d="M250.11,315.22l-.17.73a3.36,3.36,0,0,0,1-.18Z" transform="translate(-173.37 -131.33)"/>
    <path class="cls-1" d="M249.51,317.87a5.49,5.49,0,0,0-.24,1.07Z" transform="translate(-173.37 -131.33)"/>
    <path class="cls-1" d="M249.85,317l-.16,0-.18.81C249.62,317.57,249.73,317.31,249.85,317Z" transform="translate(-173.37 -131.33)"/>
    <path class="cls-1" d="M249.94,316c-.83.08-1.7.18-1.52,1.26l1.27-.15Z" transform="translate(-173.37 -131.33)"/>
    <polygon class="cls-1" points="99.28 154.17 99.72 155.04 99.85 154.95 99.41 154.08 99.28 154.17"/>
    <path class="cls-1" d="M271.74,290.4a2.61,2.61,0,0,0,.43.53A.94.94,0,0,0,271.74,290.4Z" transform="translate(-173.37 -131.33)"/>
    <path class="cls-1" d="M277.25,294.25c-.86,1-1.05-1.42-1.48.43-.78.13-1.75-.77-1.33-1.64.72.1.44.87,1.2.36-.83-.61-.25-.81-1.35-.65-.65-1-1.43-1.13-2.12-1.82.45,1.2-.77,3.64.59,5.19,1.29.87,3.11.44,5,.51C278.23,296.52,278.51,294.38,277.25,294.25Z" transform="translate(-173.37 -131.33)"/>
    <path class="cls-1" d="M279.21,292.73a1,1,0,0,0-.11-.89C278.44,291.89,279.19,292.36,279.21,292.73Z" transform="translate(-173.37 -131.33)"/>
    <path class="cls-1" d="M264.48,302.88c.27.1.57.95,1,.79l-.29-1.29C265.18,302.68,264.84,302.77,264.48,302.88Z" transform="translate(-173.37 -131.33)"/>
    <path class="cls-1" d="M265.11,301.82l.12.56A.89.89,0,0,0,265.11,301.82Z" transform="translate(-173.37 -131.33)"/>
    <path class="cls-1" d="M264.31,302.93l.17-.05A.13.13,0,0,0,264.31,302.93Z" transform="translate(-173.37 -131.33)"/>
    <path class="cls-1" d="M248.89,320.9c-.52,0-.24.53-.1.82C248.85,321.5,249,321.18,248.89,320.9Z" transform="translate(-173.37 -131.33)"/>
    <path class="cls-1" d="M249.82,342.13l-.45.47C249.63,342.44,249.76,342.36,249.82,342.13Z" transform="translate(-173.37 -131.33)"/>
    <path class="cls-1" d="M263.6,350.67a.57.57,0,0,1,.26.12A.45.45,0,0,0,263.6,350.67Z" transform="translate(-173.37 -131.33)"/>
    <path class="cls-1" d="M263.86,350.79c.42.37-.32,1.38.31,1.8l-.19-.06.34.73C264.31,352.59,264.47,351.21,263.86,350.79Z" transform="translate(-173.37 -131.33)"/>
  </g>
</svg>
