<svg id="Layer_1" data-name="Layer 1" xmlns="http://www.w3.org/2000/svg" viewBox="0 0 284.94 437.87"><defs><style>.cls-2{fill:#e9e9e9}.cls-3{fill:#fff}</style></defs><g opacity=".8"><path class="cls-2" d="M81.47 399.49c1.39-.75 2 1.21 3.18-.28a4 4 0 01.85 4.5l-1.66.9c-.76-1.77-2.84-3.3-2.37-5.12zM129.62 455.54c.48-.45 1.36 0 1.93.25a1.36 1.36 0 01-1.14 1.18c-.85-.11-.79-.88-.79-1.43zM128.32 426.49c1.15-.6 1.55-1.75 2.84-2.43 3 .46 4.75 3.42 5.2 6.14.17.83-.74 1.5-1.49 1.53-2.54-.33-5-.3-6.43-2.71-2.18-1.25 2.22-1.91-.12-2.53zM152.78 455.63l-1-.58c.47-.44 2.25.46 2.91-.26l-1.39-2c.66-.72 1.21.09 1.78.35.41-3.34 2.63-3.78 3.33-7.27l1.71 1.67c1.13-.59 1.26-2.11 2.33-2.49.95 2.79 3.33.09 5.29.72.7.73 2.6 2.12 3 3.75a10.23 10.23 0 014-1.7l-.53 1.18c1.07.72 2 .42 2.35-.48-.39 1.11 1.72 1.11 2.09 1.65 1.27-1.76.15-4.25 2.76-5.76 1.51-.59 3-.08 5 0-.46 1.85 1.67 3.84 1.28 4.95-2 .45-2.44 3.4-5.09 2.59a4.47 4.47 0 001.32 2.77c1.51-.05 1.1-2 2.6-2.06.26 2.58-.21 3.55-.43 6h1.36c-2.64 1.72-1.07 6.7-2.66 7.71-3.22 1.69-7.59 2.88-11.06 2.34-.41-2.51-3.7-1.14-4.91-1.77-.19-.82 1.22-1.57-.33-1.85-2.34.51.18 2.47-3.15 1.85-1.44-2.89-6.22-3.09-8.47-4.65-2.62-1.54 1.19-3.58-2.23-4.33-.38 1.67-.93-.24-1.83-.13-.81-.83-.6-1.34-.03-2.2zM165.63 418.22c.59-.85 1.65-.1 2.4-.11 2.06.24 1.24 2.46 1 3.5-1 .86-2.35.47-3.46-.06-1.8-.94-.57-2.49.06-3.33zM185.85 440.29c.67-.7 1.16-1.65 2.29-1.68 1.49.51 3 1 3.42 2.25-.26 1.57.28 2.92-1.83 3.45-2.27.6-4.98-2-3.88-4.02zM153.45 378.2c.92-2.81 3.17-1 5.29-.93.44 3.77 4-.29 4.53 3.06-.09.77-.24 1.75-1.42 2-2.55-2.58-4.55 3.31-6.89.45-1.5-.93-1.3-3.04-1.51-4.58zM168.41 401.4a2.58 2.58 0 013.25 0c1 .75.43 2.14 0 2.91a2.28 2.28 0 01-3.19-.25c-.87-.98-.19-1.69-.06-2.66zM178.44 412.56c.72-.36 1.08.19 1.83.18.92.82-.05 1.66-.21 2.28l-2 .09c-.51-1.02-.06-1.58.38-2.55zM173.92 400a4.17 4.17 0 013 .53c0 1.25.63 2.77-1.21 3.12-1 .5-1.53-.33-2.7-.66a2.93 2.93 0 01.91-2.99zM183.8 411.19a3.12 3.12 0 001.32-2.61c1.63.46 3-1.12 4.23-1.34-.35 1.79 2.33 1.57 3.56 2.59a5.05 5.05 0 01-3.94 6.4c-1.84-1.08-5.72-.08-5-3 .12-.73.57-1.49-.17-2.04zM202.06 433.67l2.2-3.21c2.67-.23 5.36 2.39 6.78 2.24.09 1.55-2.4 4 .34 5a4 4 0 01-2.7 4.36c-4.34 0-3.1-6.52-7.33-5.51 1.22-.44 1.48-1.45.71-2.88zM178.1 397.93a8.14 8.14 0 013.2-1.19c.24 1 1.14 1.79 1.61 2.83-1.07.69-2.3 2-3.92 1.53a2.05 2.05 0 01-.89-3.17zM182.57 390.73c2.37.49 1.11 2.36 1.85 3.8a2.8 2.8 0 01-1.91 1.45 3 3 0 01-2.64-1.79c-.01-1.79 2.13-1.93 2.7-3.46zM173.58 368.37c1-1.18 1.88 0 2.81.3a2 2 0 01-.73 2.5 1.75 1.75 0 01-2.08-2.8zM202.24 387.2c.78-.54 2.45.64 1.79 1.66l-2.22.32c.08-.75-.35-1.44.43-1.98zM135.57 230.48c.06-.19.29-.1.51 0l-.49.34c-.23-.1.06-.2-.02-.34zM193.3 319.91c2.18-.06 6.24 2.26 6.2-.73-1.41-3.82 2.91-4.6 3.31-7.78a2 2 0 003.26-1 1.44 1.44 0 00-.35-1.61c1.21.19 4.35 2.22 6.65 1.44 2.16 1.91 4.89 4.82 6.42 5.58.89 0-.19-1 .94-.92-1.16 1.53-.43 4.4-.65 6.59h.91c.91 2.24-1 3.94-2.18 5.13-.42.87 1.09 1.28 1.19 1.76-.36.34-3.78-.85-4.2 1.27l1.2 2.06c-1.22-.53-1.38-2.4-3.08-1.85-.72.66-1.21 1.4-1.64 1.59-1.82-1.87-5.15.63-7-1.59.33-2.27-2.28-2-3.63-2.15l1.76-.76c-2.35-.58-3.1-2.21-4.22-3.85l1-.44c-.92-2.41-4.41-1.43-5.89-2.74z" transform="translate(-81.4 -31)"/><path class="cls-2" d="M196.5 322.6l.07.15-1.72-.14c.28-.48 1.15.05 1.65-.01zM204.54 331.17c.22.08.66-.11.91.32-.45.19-.88.38-.91-.32zM240.15 426.69c1.46 1.07-.45 1.26-.84 1.79-.54-.8-.37-1.94.84-1.79zM209.27 331.42l.29-.12-.19.62c-.23-.08-.17-.29-.1-.5zM202.12 308.85c0 .35.85.88.1.85-.53-.31-.17-.64-.1-.85zM203.56 301.89c.15-.06.45-.19.53 0l-.52.39c-.23-.12-.07-.18-.01-.39zM213 307.46l.3-.12-.27.82c-.13-.29-.21-.43-.03-.7zM222.17 299.67c-1.77-1.56 1.65-2.59 1.08-4.63-.22.26 1.69 2.11 2.41.77.87-1.05-1.09-1.31.33-1.71-.57 1.28 1.2 2.84 2 3l.64-1.13c.14 2.57.76 5.64-1.83 6.86-2.22.9-2.36-1.32-4.52-1 1.65-.6-1.07-1.59-.11-2.16zM239.77 329.3c.34-.66 1.54-.46 1.8.3-.08 1.4-1.95 1.33-1.8-.3zM217.44 286.69c.36-.32.87-1.05 1.64-.31.4 1.07-.49 1.43-1.32 1.24a1.06 1.06 0 00-.32-.93zM252.06 271c-2-1.27-.32-4.81-3.33-6.52.57 1 2.68 1.15 2 2.16-.54-1.9 3.83-1.65 3.92-4.38a25.43 25.43 0 006.72 2 4.1 4.1 0 001.59 3.79l.51-.41c-.6 2.24-1.62 3.06.25 5.1h.53c-1.2.52-1-.46-2.35-.58.24.79-1.32 1.29-.4 2-1.85.63-4.12.52-5.42 2.14.92-3.3-5.97-2.86-4.02-5.3zM259.37 280c.54.31 1.08 1 .41 1.42a1.24 1.24 0 01-1.58-.57 1.45 1.45 0 011.17-.85z" transform="translate(-81.4 -31)"/><path class="cls-2" d="M173.03 230.31l-.37.33-.32-.56.69.23zM183.23 234.5l-.28.49-.01-.36.29-.13z"/><path class="cls-2" d="M264.4 255.41c.7-.71 1.34 1 1.86.93-.6-.08-1.18-.71-1.86-.93zM270.44 260.56c-.34-.58-1.24-.51-1.91-.37 2-1.36-1-2.64-1.66-3.78 2.21-2 1.57-5.37 2.78-8.28-.33-.2-.53.09-.66.16 2.71.07 3.37-2.56 5.21-3.93-.12 1.95 1.78.34 2.5-.05-1-1.33-.31-3.24.06-4.2l.2 2.15c1.12.52 1.78 1.87 3.12 1.5a1.07 1.07 0 01.72-1.35 1.59 1.59 0 010 1.3 2.72 2.72 0 003.47-1.38c.41 2.84 2.85 4.53 4.84 6.5l1.16-.67c-1.28.16-.66 2.14-1.22 2.86 2.71 1.57-1 5.1 1.05 7-2.86.79-2.5 3.12-4.09 5.09l.23.07c-2.83 3.57-7.61 1.83-10.86 3.77-.55-2.32-3.39-1.68-4-4.35h-2.27c.02-1.04 2.09-.39 1.33-2.04zM267.86 248.32l-.31-.78zM267.66 245.61l-.8-1.26z" transform="translate(-81.4 -31)"/><path class="cls-2" d="M235.61 295.47l-.08-.14 1.33-.53.08.14-1.33.53z"/><path class="cls-2" d="M312 315.27c.38 0 .84.55.92 1-.71.51-1.1-.58-.92-1zM270.82 235.32l-.2-.85zM277.39 235.73c.55.83-.87 1.88-.49 2.79.37-.97-.65-2.13.49-2.79z" transform="translate(-81.4 -31)"/><path class="cls-2" d="M198.74 208.54l-.17.66-.26-.41.43-.25z"/><path class="cls-2" d="M271.8 225.23c1.22-.53 1.14.47.77 1.06-.48-.1-1.37-.51-.77-1.06z" transform="translate(-81.4 -31)"/><path class="cls-2" d="M196.16 200.38l-.04 1.38-.15-.49.19-.89z"/><path class="cls-2" d="M303 229.25c.15-1.54 1.65-1.74 2.93-2 1.09.08 1.46 2.11 2.62 1.1-.31 1-.11 4.28-2.73 4.74-2.31.52-3.46-1.92-2.82-3.84zM299.62 218.68c-1.79.4-.26-2.06-2-1.06-1.24-2 .79-3.76-1.07-6.39 1.47.81 2.33-1.86 1-2.17 2.86-.39 4.14-1.73 6.8-1.59.94 1.2 1.3 3.87 3.5 2.89-.43 1.36-.65 3.84.91 4-1.87 2.23-2.75 3.65-5.27 5.38-1 .3-3.43-2.13-4.31.09.08-.5.6-.65.44-1.15zM352.53 291.87c1.33-.62 2-.59 3.61-1.43 1.71.62.49 2.46 2.2 3.1-1 2.73-1.33 4.23-3.91 4.71-1 0-1.46-1-2.22-1.37-1.53-1.58.45-3.42.32-5.01z" transform="translate(-81.4 -31)"/><path class="cls-2" d="M216.86 174.67l.26.85-.53-.66.27-.19z"/><path class="cls-2" d="M340.88 250.82c.73-.52 1.35-.53 1.94-1 1.55.86 3 1.57 2.26 4.29-.65.68-.76 2.3-2.15 2.4-.8-.3-2.19-.2-2.48-1.08-.12-1.62-.72-3.37.43-4.61zM333 232.65c-1.29-1-.83-2.85-1.32-4.21 1.46-1.29 1.65-2.29 3.55-2.63 3.34-.77 1.14 3.92 3.1 5.3a16.8 16.8 0 01-5.61 1.76zM278.5 165.44a1.05 1.05 0 01.6.15l-.74.39c-.1-.34.02-.43.14-.54zM362.1 267.39c1-1.37 3-2.21 3.74-.48 1 1.08.22 2.53 0 3.8a2.75 2.75 0 01-4 .4c-.16-1.21-.9-2.67.26-3.72zM303.9 177.57l1.13-.49zM316.24 185.94c.56.64 2.07 1.61 1.11 2.83-.63 1.36-2.08.15-2.94.19.74-.96.12-2.96 1.83-3.02zM219 373.9c-.68-1.11-.84-2.27-2.33-3.19.73-.33 1.9.38 1.82-.64-.12-2.6 1.11-5.42-1.45-7.82.94.65 1.35 2.22 2.94 2.41a4.81 4.81 0 001.87-3.29c.09 1.36 1.64 0 2.11.14 2.27-1.7.89-5.49 2.52-7.07.1 1.7-1.73 4.44.23 5.86 2.36.56 3.54-1.71 4.94-2.13.23.07-.48.72-.6 1.12 1.9.41 3.84 2.72 5.44.82 3 2 4.86 7.69 6.57 11.65-1.1 2.38-2.88 4.54-4.18 6.87a4.9 4.9 0 001.17.7c-3.19.18-6.67 2.58-7.48 4.52-1.76.43-.28-1.63-2.21-1.48-1.32-.63-2.37.35-3.55.53a47.22 47.22 0 00-7.93-4.72c3.35-.26-1.61-3.5.12-4.28zM282.82 151.61c.36.12.37-.09.49-.2l-4.06-3.41h1c-.82-2.51-1.16-4.13-1.85-6.93 1.07-3.94 5.71-5.71 7.14-9.18 2.28-.75.25 1.09 1.35 2.07.72-.22 2.55.78 1.8-.75 1.1 1.2 2.43 1.32 3.54 2.31l.94-1.09c1 1.55.88 2.75 3.06 3.44.84-1-.49-1.77.7-2.65-1.43 2.64 1.41 5 .18 7.86l1.57-.3c-.38 1.43-2.81 2-1.62 3.85l.85-.1c-1.48 2.42-4 3.78-5.88 6-3.33 2.47-6.03.06-9.21-.92zM326.91 193.91a1.56 1.56 0 011.51-.58 1.43 1.43 0 010 2.44c-1.27.36-1.73-1.03-1.51-1.86zM321.83 187.28c.17-.59.61-.07.86 0a.69.69 0 01-.93 1c-.46-.28-.07-.65.07-1z" transform="translate(-81.4 -31)"/><path class="cls-3" d="M307.23 160.42l-.46-.48z" transform="translate(-81.4 -31)"/><path class="cls-2" d="M305.58 155.7c1.21-.18 1.07 1.06.57 1.72a1.59 1.59 0 01-.57-1.72z" transform="translate(-81.4 -31)"/><path class="cls-3" d="M203.52 103.01l-.12-.11.83-.75.13.11-.84.75z"/><path class="cls-2" d="M219.28 113.77l-2.19 1.29 1.34-1.2.85-.09z"/><path class="cls-2" d="M283.53 129.58a.79.79 0 011.09.32c-.36.32-1.08.1-1.09-.32zM288.13 129.79l.33-1.42zM293 130.44c1.09.32.22-.89.35-1.21 1.82 1.2-.83 1.86.28 3.51-.52-.66-1.26-1.53-.63-2.3zM264.67 68.77c1.69-2.34-1-5.31.55-7.14.21.15.18.75.74.53-.87-3.22 4-1.48 3-4.68l.94 1.26c1.25-.21 1.33-1.06 1.71-1.87.15.41-.36 1 .09 1.44a7.69 7.69 0 014.73.56c-.19 0-.28.12-.45.3 1.66.87 2.38 1.23 3.16 3 .68 0 .91-.6 1-1-2.48 2.11 1.52 6.56-2.29 8.95 1.15 1.62-1.43 1.92-2.21 2.92-.86 1.26-1.92 1.26-3.39 1.12-3.25-1.02-6.25-2.46-7.58-5.39zM341.33 176.16c.54-.95 1.5-.65 2.2-.36.56 1.13-.34 1.94-1.22 2.25-.84-.17-.87-1.28-.98-1.89zM280.81 113.06l-.55-1.06zM322.49 149l.25-.22-.14.81c-.36-.15-.11-.38-.11-.59zM324.11 146.1h.25l-.74.69c-.12-.36.38-.58.49-.69zM329.28 147.7l.77-2.11c1.29 2 2 1.32 3.69 3-.86.81-.05 2.6-2 3.5a2.81 2.81 0 01-2.89-.77c-.09-1.32-1.97-4.13.43-3.62z" transform="translate(-81.4 -31)"/><path class="cls-2" d="M180.53 27.41l.34.39-.32-.22-.02-.17zM247.17 116.45l-.13.11-.35-.35.48.24zM104.12 6.67l.6.73-.56-.53-.04-.2z"/><path class="cls-2" d="M334.79 150.86l.26-.7zM266.63 58.63l-.2-1.51z" transform="translate(-81.4 -31)"/><path class="cls-2" d="M182.84 24.14l.19.74-.13-.24-.06-.5z"/><path class="cls-2" d="M263.33 52.69c.15-.35.39 0 .6.11-.28.11-.45.3-.6-.11zM274.56 57.43c.7.18-.16.35-.32.54-.13-.24.25-.28.32-.54zM278.77 58.56c-.49.73.59 1.66 0 1.88-.24-.66-1.62-1.64 0-1.88zM268.87 53.31l.23-1.21z" transform="translate(-81.4 -31)"/><path class="cls-2" d="M192.73 25.36l.93.51-.33.38-.86-.61.26-.28z"/><path class="cls-2" d="M337.88 139.18c1.69-1 1.7 1.89.49 1.66a1.19 1.19 0 01-.49-1.66zM335.93 136.35c1.21 0 .74 1.65-.23 1.42-.13-.59-.37-1.06.23-1.42zM341.74 138.23c1.09.11.25.71 0 1.19.01-.48-.84-.6 0-1.19zM354.56 139.88c.37 1.57 2.78 1.81 1.58 3.52a4.08 4.08 0 01-1.58-3.52zM356.86 140.72c-.36.12 1.09.37.24.73z" transform="translate(-81.4 -31)"/><path class="cls-2" d="M274.49 108.27l.25.73-.24-.49-.01-.24zM275.7 107.78l.49.97-.62-.85.13-.12z"/><path class="cls-2" d="M356.28 129.57c.72-.25 1.1.59.39.84-.37-.11-.26-.48-.39-.84zM279.52 32.14L281 31c1.79.63 1.27 3 .64 3.69-1.81.53-2.1-1.58-2.12-2.55zM319.62 53.44c.62 0 .46.73.41 1.3-.75.86-2.09-1.12-.41-1.3z" transform="translate(-81.4 -31)"/><path class="cls-2" d="M224.77 6.85l-.56 1.17-.05-1.2.61.03z"/></g></svg>