<svg id="Layer_1" data-name="Layer 1" xmlns="http://www.w3.org/2000/svg" viewBox="0 0 142 514.76"><defs><style>.cls-2,.cls-5{fill:#f3f3f3}.cls-3,.cls-4,.cls-6{fill:#fff}.cls-4,.cls-5{opacity:.3}.cls-6{opacity:.4}</style></defs><g opacity=".85"><path class="cls-2" d="M276.75 496.05c-4.86-.58-9.8.85-14.42-2.55-4.64-4.21-7.19-11-11.28-13.89-.49-1.11 3.91-.85 2.24-3.56-.91-1.25-3-1.1-2.15-3 .71.48 1.74-.09 2.36 0-.17-2.17 1.18-4.58-1-6.22 3.18.88 3.85-3.42 6.68-3.88.74-1.71-1.91-2.08-1.55-3.74 1.71-.26 4.05 4.33 5.44.52.13-1-.78-2.27-.22-3.15 1.61.14 1.6 3.92 3.41 1.84.75-.92-.54-3.7 1.21-3 2.48 3.59 5.5-3.07 9.43.08 1.18-.79 1.17-2.38 2.44-2.78 1.1 1.22.07 2.57-.26 3.61 3.42 1.84 7.67 2.34 10.83 2.42l-1.44 2.81c.86 1 1.91 2.86 3.37 3.22 1.66.32 1.64-2.84 3.44-2 1.56.74-3.38 2.93-1.63 4.44 1.82 1.68 1.46 4.9 4.43 5 .83 2.43-1.53 3.22-2.31 4.73.67 1.07 2.41 1 2.44 2.57-4 5-4.43 7.87-8.61 12.93-4.73.03-10.09 5.12-12.85 3.6zM225.7 482.19c-2.47-2-1.56-5.37-.59-7.74 2.17.05 5.08-2.43 6.51.14a13.43 13.43 0 011.66 6.54c-1.52 2.45-4.8 4.2-7.58 1.06z" transform="translate(-166.56 3)"/><path class="cls-3" d="M237.76 489.15l-.47-.32zM262.14 511.74c0 .08 0-.14-.06-.21a1.74 1.74 0 00-.32-.55 1.68 1.68 0 01.31.55c.05.05.07.29.07.21z" transform="translate(-166.56 3)"/><path class="cls-3" d="M262.14 511.74v-.1a2.05 2.05 0 00-.08-.2v-.06.11a1 1 0 010 .1v.11zM264.45 508.92c-.14.1-.27.23-.41.33a9.05 9.05 0 011.06-.76c-.2.13-.44.27-.65.43z" transform="translate(-166.56 3)"/><path class="cls-2" d="M241.32 431.59c-1.42 3.65-5.43-1.54-6.54 2.34-3.25-3.2-10.21-2-11.19-5.92.34-.18 1-.29.71-.78-.59-1.88-1.8-.51-3.11-1.09 1.08-1.9-.57-3.9-2.41-4 .54-.48 1.75-.27 1.69-1.05 0-2.65-3.62-1.56-4.05-3.35.84-.26 2.63.66 2.9-.83.72-2.91-4.83-2.85-3.66-5.54.5-1.14 1.84 1.17 3 .06 1.93-1.61.32-4-.37-5.76.73-1.3 1.56.56 2.13.73 1-2.27 2.53-5.55 1.23-8.25 1.15 0 3.08 2.57 4.21 1.35 2.19-1.65 0-3.7 1-6 1.24.87-.07 2.4 1.37 2.44.77 0-.47-1.38.51-1.14.48 1 .67 2.82 2 2.48 1.56-.5-.06-2.89 1.29-3.22a3.52 3.52 0 01.46 3c2.68 2 3.46-1.18 3.87-2.17.9.53.46 3 2 2.22.81-.39-.35-1.92.62-2.2 1.47 1.23-1.29 6.39 2.55 4.62 0-.65.58-.75 1.22-.84-.42 2 0 4.34 2.07 5.34s1-3.43 2.78-1.85c-.4 1.5-2.12 2.95-1 4.89.83 1.31 3.24-1.55 2.58 1.05-2.59 2.64 4.17 1.22.61 4.12.4 1.13 1.47-.36 2 .75-.56.88-2.12 1.9-1.59 3s2.56-.65 2.37 1.22c-1.7 1.05-1.23 3.48-2.57 4.86-.81.92 1.5 1.35 1 2.08s-2.22.47-2.19 1.66c.19 1.29 2.35.56 1.88 1.82-2-1.15-2.55.66-3.74 1.11l.44 1.77c-1.72-.13-3.5-.51-4.64.59l.53 1.64c-.9 0-1.06-1.17-1.96-1.15zM228.3 361.45c-1.44 2.72-2.34-2.83-3.69-.26-.36-2.73-4.5-3.84-5.09-5.35.46-.2 2-1.33.71-2.48s-3.18-2.06-2.51-3.6c1.66-.63 1.18-4.4.74-6.31a2 2 0 002.74-2.1 14.79 14.79 0 00-5.08-8.68c.42-.45 1.82 1.21 2.16-.15-3.82-2.12 2.28-3.62-1.36-6 .62.44 1.45 1.25 2.3 1 .4-1.63-.4-4 1.46-4.95l.58.32c1-.54.3-2.15.19-3.19 1.59.18.38 3.38 2.41 2.7 1.32-.44 2.29-2.41 1.66-3.52.57.85.43 1.93 1 2.77 1.24-.16 3-1.19 2.6-2.73.33.89-.49 3 1.25 3.25 1.05.13.34-1.89 1.34-2 .28.61-.64 1.67.4 2.31.44-.33 1.27-1.23 1.82-.51 1.89 2.11.53 6.9 3.53 6.49-.23 4.76-2.65 10.49-2.82 13.68 1.25.35.34-1.89 1.74-.91 0 1.31-.71 3.13.53 4l1.2-.95c-1.31 4.92 2.82 8.81-.95 13.15-1.19 2.15-3.54 3.14-5.34 4.85-1.21-1.42-2.58 1.02-3.52-.83z" transform="translate(-166.56 3)"/><path class="cls-4" d="M62.91 326.21l-.13.01-.14-.63.13-.03.14.65z"/><path class="cls-2" d="M209.7 307c-1.78.1-4 .4-5.46-.86a30.2 30.2 0 01-6-12.82c.52.59 1.92.53 2-.14.09-2.52-1.43-5.37-1.28-7.65.79.7 1.81 2.43 2.83 1.76.91-.51-.61-2.17-1.06-3 1.42-.57 1.17 2.36 2.85 1.22 1-.78-.55-1.91-.15-3 .71.3.79 2.41 2.33 1.82 2.14-.81-.15-3 1.06-4 .78 1.22.1 2.76 1 3.84 1.95-2.23 5.42 3 6.31-.56-1.26 4.78 7.69 2.18 5.75 6.25l.92-1.7c.11 3.42 1.66 6.38-.43 9.81-1.18 4-4.47 6.65-7.26 9.13-1.21-.63-2.11-.1-3.41-.1zM214.66 268.22c-1.94-1.85-4.52-3.11-6.15-5.29-2.24-3.28-.19-3.93-2.52-7.59l1.07.78c.06-2.11 1.05-4.08.84-6.3.9 0 1.53-1.9 2.47-.43 2.54-.18.3-2.94 1.37-4 .81.83-.32 2.81 1.23 2.88s1.15-2.51 2.69-1.9c.78 1.22 1.87 1.6 2.51.34 2.91 1.63 3.07 6.6 6.63 5.78.06.91-2 1.56-.86 2.6a2.34 2.34 0 011-.25c1.53 1.79-2.54 4.39.84 5.16-1.1 2.1-2 5.51-3.5 6.48-2.82.75-4.78 1.79-7.62 1.74z" transform="translate(-166.56 3)"/><path class="cls-4" d="M55.16 260.35l.07.91-.17-.77.1-.14z"/><path class="cls-2" d="M167.75 254.47c-.05.4.85-.25.92.68zM166.81 252.46c.85-.24-.2.28-.2.28-.15-.11.05-.39.2-.28zM217.47 232.86c-3-.17-4-4.92-5.72-6.55-4.12-4.27-2.17-9.89-4.91-14.59l3.09.7c.64-1.92 2.21-3.68.89-5.75.75.56 1.82 2 2.91 1.11.66-.6-.1-1.82.63-2.05.72.45.2 1.69 1.14 1.84 1.28 0 .38-1.87 1.49-2.14-.29 2.4 2.7 3.24 4.17 4.12 1-.76-.09-1.69.23-2.65 1.57.75.16 2.75 1.46 3.4 1 .52.56-1.65 1.57-1.11 1.68.72.17 4.05 2.25 3.55.61-.21 0-1.44.9-1.29-.17 1.07.52 2.57-.17 3.57.51.6 1.93 0 2.66-.17.24 1.15-1.65 2-1.48 3.45s2.51 1 1.35 2.85c-.37 1.88-2.68 4.39-.7 5.86-3 .48-2.49 3.44-3.51 4.75a12.85 12.85 0 01-8.25 1.1z" transform="translate(-166.56 3)"/><path class="cls-4" d="M52.19 233.34l-.12.02-.15-.65h.14l.13.63zM57.94 216.38l.58.32-.5.06-.08-.38z"/><path class="cls-4" d="M223.67 213.08c.9 0 .15-1.19.55.2-.22.16-.22-.11-.55-.2z" transform="translate(-166.56 3)"/><path class="cls-2" d="M268.18 371.21c-5.16-1.58-5.69-8.7-8.56-13l1.25.45c.64-1.43-.77-3.35-1.09-4.21l2.19.85c0-2.74 1.16-5.28-.45-8.09 2.19.16 1.22 4.56 3.52 2.91.81-.65-.76-2-.32-2.91.63-.06 1.5-.59 2.43.09a18.62 18.62 0 01.72-2.28l.69 1.45c.67-1 .1-2.5.39-3.82.26.33.16 1.45.71 1.83l.79-1.05c-.14 2.37 1.37 4.25 2.77 6.15a2.06 2.06 0 001.25-2.28c.55 1.74-.42 3.41.48 5.05.41.7 1.13-.2 1.22-.64.31 3.19.82 6.59 1 9.82.4 3.44-1.23 6.41-3.16 8.64-1.33 1.31-4.16 1.22-5.83 1.04z" transform="translate(-166.56 3)"/><path class="cls-4" d="M52.32 213.34l-.13.02-.1-.52.12-.01.11.51zM102.17 372.54l-.13.03-.23-.61.11-.04.25.62z"/><path class="cls-4" d="M265.37 366.43c0 1 .77-.09 1 .81-.56.3-.8-.31-1-.81z" transform="translate(-166.56 3)"/><path class="cls-4" d="M98.99 367.87l.12.65-.92-.67.8.02z"/><path class="cls-4" d="M264.15 365.71c-.86-.84.91-.42.65-.06-.29-.05-.43.27-.65.06zM266.13 364.29l-.35.1c1.25-.53.27-1.32.9-2.47l1.1 2.13c-.19.2-1.58-.61-1.65.24zM273.69 361.44c.29.05.5.26.35.57zM262.86 363.77c.07-1.53-.92-4.11-2-4.2 2.77-.43.29-3.37 2.21-5.33-.29.64.46.13.64.63.81-.66-.55-.38-.43-1.11l.51.26c.71-.9-1.1-2.14-.35-2.63 1.92.52.6 4.35 2.8 2.45-.46 1.92-2.78-.67-2.6 1.88 1.09.77 1-1.67 1.43-.43.38 1-1.58.06-1.39 1.24.77-.78 1.22 1.4 1.55.22l-.64-.64c2.05 1.17-.62 1.84 1.26 2.91 0-.28-.69-.75-.62-.22 1.19 1 .54.38.78 1.69-.05-.81-1.81.13-1.81-1.25-.1 1.13 1.47 2.44.25 3.09l-.76-.6c-.87 1.91 2.79 2 .49 3.3a1.11 1.11 0 00-1.32-1.26zM275 360.24c-.14.32-.73.21-.32.91.11-.32-.68-1.31.32-.91zM268.11 362.17c.05-.56.09.24.22.21-.2.19-.19-.08-.22-.21z" transform="translate(-166.56 3)"/><path class="cls-4" d="M108.02 362.26l.36-.11-.05.56-.4-.71.09.26z"/><path class="cls-4" d="M267.26 360c.45.13 0 .68-.27 1.05-.33-.22.11-.77.27-1.05z" transform="translate(-166.56 3)"/><path class="cls-5" d="M263.41 362.08l-.16-.76z" transform="translate(-166.56 3)"/><path class="cls-5" d="M97 363.4l1.05.64-.99-.12-.06-.52z"/><path class="cls-2" d="M219.15 199c-4.7-1.7-7.47-6.41-10.63-10.12 1-5.51 3.09-11.66 7-16 1-.36 1.39.51 1.69 1.41a6.34 6.34 0 003.73-5.14c-.57 3 1.84 4.13 2.83 6.52 1.88.45 1.22-1.58 2.25-2.21.41 1.4-1 2.86-.19 4.22.75-.07.4-1.22 1.21-1 1.54 2.72 2.16 3.83 1.46 6.79 1 .55 2.51-.26 2.89-.31-2 1.65-1.35 4.21-1.42 6.45l1.51-.17c-3.12 2.43-1.4 8.94-7 9.3-2.48-.74-3.11 1.08-5.33.26z" transform="translate(-166.56 3)"/><path class="cls-5" d="M96.5 363.82l-.29.64-.32-.46.61-.18z"/><path class="cls-4" d="M274 356.57c-1.28-3.31-1.51-1.47-2.35-5 .71.46 1.45.66 1.36-.27l-1.39-.13.14-.32c-.25 1-1.52-.5-2 1l.33.17c-1.33 0-.14-1-.32-1.54l.18.5c.82-.66-.52-1.35.15-2.39-.93 0-2-.07-1.93.86 0-.8-.09-3 .58-2.64-.51 1.12.24.61 1.52 1.88.71-.22.29-1.32-.4-1.39 1.57.62 1.86 1.36 2.78 2.73h-.12c0 .8 1.29.57 1 0 0 .81-.41.68-.95.29 2.21 1.26 2.68 6.6 3.25 4.63.33 2.23-1.07 1-1.3 2.86-.53-.43-.28-.81-.53-1.24zM273.28 357.6c-.44 1 .31-.91.78.3-.24.1-.41-.69-.78-.3zM271.85 356c-.34.51-.34-.17-.36-.57.38.29.85 1.52 1.38 2.17-.87.4-.6-1.22-1.02-1.6z" transform="translate(-166.56 3)"/><path class="cls-5" d="M262.1 359.74c.22-.48.51.26.67.35-.24.07-.05-.81-.67-.35z" transform="translate(-166.56 3)"/><path class="cls-5" d="M96.76 362.1l-.17.59-.16-.76.33.17z"/><path class="cls-4" d="M272.3 355.42c-.08.16 1.19.33.54 1.08-.31-.5-.84-.56-.54-1.08z" transform="translate(-166.56 3)"/><path class="cls-5" d="M273.28 355.54c.08-.84.62.22 1.14.2-.58.58-.66-.34-1.14-.2z" transform="translate(-166.56 3)"/><path class="cls-4" d="M98.99 360.61l.47.52-.09-.22-.38-.3z"/><path class="cls-5" d="M107.92 356.13l.48.54-.24.07-.24-.61zM107.58 356.64l-.26.35-.19-.5.45.15z"/><path class="cls-4" d="M270.52 353.9l-1-.8 1.12.49c.16-1 1.36.97-.12.31zM269.25 353.74c-.71-.47.5.26.69.75-.13-.36-.94-.11-.69-.75zM265.88 355.72v-.4z" transform="translate(-166.56 3)"/><path class="cls-5" d="M274 353.16l-.53-.68z" transform="translate(-166.56 3)"/><path class="cls-4" d="M271.45 353.21l.07-.84zM267.94 352.76l-.09-.25 1 .66c-.34.38-.46-.27-.91-.41zM270.33 352.05c-.21-.21-.07-.53.34-.51-.26.35.49.94-.34.51z" transform="translate(-166.56 3)"/><path class="cls-5" d="M271.44 350.08c.57.09-.1-.94-.22-1.59.86.83 0 1.65 1 2.17.03-.56-.45-.41-.78-.58z" transform="translate(-166.56 3)"/><path class="cls-4" d="M101.63 353.64l.02 1.09-.16-.78.14-.31z"/><path class="cls-5" d="M103.89 352.27l.46.82-.74-.19.28-.63z"/><path class="cls-4" d="M102.89 353.12l-.12.03-.18-.48.11-.04.19.49zM101.23 352.93l-.01.69-.13-.37.14-.32zM97.5 353.65l.24.6-.23.09-.01-.69z"/><path class="cls-4" d="M227.72 188.08c0 .13.76.57.18.9zM266.52 349.08c.31-.23.62.22.72.47-.17-.09-.62-.22-.72-.47z" transform="translate(-166.56 3)"/><path class="cls-4" d="M99.87 352.53l-.27.35-.33-.18.6-.17z"/><path class="cls-4" d="M270.87 347.22l-.55-.37zM269.32 346.32c.19-.19.22-.48.62-.46-.24.07-.05 1.26-.62.46z" transform="translate(-166.56 3)"/><path class="cls-2" d="M240.48 163l-4.09-3.85c-1.86-2.78.08-4.37-2.19-7.18 2.06-.54.88-5.54.14-8.09.95.85 1.38 2.51 2.67 2.45a6.08 6.08 0 00.68-5.34c1.4-.1-.09 2.46 1.68 2.27.66 0 1.61-.67 1.19-1.52 1.09-.29.76 1.84 2.05 1.37.8-.34.25-1.56.85-2.13.62.67-.61 2.07.81 2.38.59-1 .89-2.4 2.17-2.87-2.17 5.18 3.63 4.49 3.56 8.86.58 3.23-.13 6.13-.81 9.16-.53 2.32-2.67 3.69-2.89 5-2.16.49-3.59-.18-5.82-.51z" transform="translate(-166.56 3)"/><path class="cls-6" d="M76.4 185.75l.35.49-1.18-.13.83-.36z"/><path class="cls-6" d="M243.2 182.06c.78-.6-.44.32.21.38-.18-.24-.53-.08-.21-.38z" transform="translate(-166.56 3)"/><path class="cls-4" d="M246.11 160.66c.74-.19.61-.16.13.38z" transform="translate(-166.56 3)"/><path class="cls-6" d="M72.95 184.55l-.25.68.05-.4.2-.28z"/><path class="cls-4" d="M226.56 182.83l-.37.7c.19-.28-.03-.78.37-.7zM246 159.48l.16-.72a2.2 2.2 0 01-.38 1.59l-.11-1z" transform="translate(-166.56 3)"/><path class="cls-6" d="M239.91 181c.21.36.69.17.38.6-.15-.11-.45-.34-.38-.6zM238.91 181.76l-.33-.36zM237.33 181.53c.92-.48-.25-1.28-.38-1.92 1.51.49.93.82.65 2z" transform="translate(-166.56 3)"/><path class="cls-4" d="M247 158.13c.22.62-.4.38-.42 1.06-.3-.75-.51-.97.42-1.06z" transform="translate(-166.56 3)"/><path class="cls-6" d="M238.46 179.45c.77 0 .8.82 1.28 1.29-.28-.74-1.43-.74-1.28-1.29z" transform="translate(-166.56 3)"/><path class="cls-6" d="M76.24 181.71l-.12.02-.13-.64.13-.02.12.64zM69.91 181.49l-.16.54-.27-.11.43-.43z"/><path class="cls-6" d="M238.83 177.44c.25-.68.55.2.83.31a.57.57 0 01-.83-.31zM236.34 177.19c-.3-.22-.55.45-.77.61.47-.83 1.18-1.19-.51-1.92.43.88 1.38.51 1.53.62v-.65c-.09 1.46.66 1.38-.47 2.15-.05-.26.14-.54.22-.81zM240.61 175.43c.4.73 1.68.07.76 1.22-.2-.38-.21-1.04-.76-1.22zM238.23 176.33c.82-.36 0-1.31.54-1.76-.5.05-1.67.58-.83 1-.74-.57.51-1.36-.6-1.77.46 1 1.71.22 2 1-.31-.23-.5.05-.58.31.55.87 1.43.11 1.11 1.07l-.06-.26c-.66.57-.58.96-1.58.41z" transform="translate(-166.56 3)"/><path class="cls-4" d="M248.14 152c1.73 1.18-1.06-.4-.14 1.12.07-.58-.34-1.01.14-1.12z" transform="translate(-166.56 3)"/><path class="cls-6" d="M75.61 177.87h-.13l-.12-.63.12-.02.13.65z"/><path class="cls-4" d="M248.54 151.61c-.41-.44.37.3.65.37-.44.24-.45-.16-.65-.37z" transform="translate(-166.56 3)"/><path class="cls-6" d="M235.12 174.83c.6-.19.24-.68-.24-.5.25-.68.7-.34 1-.11-.52-.07-.37.71-.76.61zM242.51 173.38h-.65z" transform="translate(-166.56 3)"/><path class="cls-6" d="M73.08 176.7l-.13.01-.16-.77h.13l.16.76z"/><path class="cls-4" d="M246.67 151.13l-.09-.64z" transform="translate(-166.56 3)"/><path class="cls-6" d="M236.69 172.44c.2.37 1.08.28.78.7z" transform="translate(-166.56 3)"/><path class="cls-4" d="M246.55 148.86c.62.66 1.43.73.59 1.75zM248 150c.33.19.48-.53.53 0z" transform="translate(-166.56 3)"/><path class="cls-6" d="M70.91 174.83l-.13.02-.08-.39.13-.02.08.39z"/><path class="cls-4" d="M246.87 146.33c.32.19.72-.19 1 .16l-.53 1.9c-.89-.59.91-1.46-.47-2.06z" transform="translate(-166.56 3)"/><path class="cls-6" d="M237.46 170.52c.22-1.45-.83-1 .38-2-.93.48.88 1.87-.38 2z" transform="translate(-166.56 3)"/><path class="cls-4" d="M246 146.83l.24-.06.18 1.31c-.42-.44.06-.97-.42-1.25z" transform="translate(-166.56 3)"/><path class="cls-6" d="M240.75 168.35l-.22-.51zM236.25 168.3l.15-.55zM240.89 167.14v-.51z" transform="translate(-166.56 3)"/><path class="cls-6" d="M73.25 168.57l-.06.92-.16-.77.22-.15z"/><path class="cls-2" d="M224.84 141.43c-2.73-.66-2-2.76-4.24-4.36-1.9-4-.14-8.56-1.11-12.26.78.76 0 2 1.24 2.53 1.13-1-1-2.6.17-3.44.09.66.54 2 1.54 1.52 0-1.23-.64-3.11 0-4 .05.94-.42 2.29.6 3 1-.94 2.45-1.72 2.84-2.5.62 1.07-.54 2.32.88 3 1.33-.76-.88-2.64.7-3a49.8 49.8 0 002.51 7.11l1.2-.72c.69 4 1.7 8.14 0 11.71-.63 1.24-1.91 3.23-3.68 2.32-1.02-.34-1.94.41-2.65-.91z" transform="translate(-166.56 3)"/><path class="cls-6" d="M64.31 154.06l.24.63-.15-.12-.09-.51zM64.91 153.21l-.7.34-.06-.26.76-.08z"/><path class="cls-2" d="M263.76 120.71c-.35.9.82 1.29 1.35 1.29l-1.78-.24zM265.19 121.84c0-.29.31-.22.56-.28-.28-.07-.27.34-.56.28z" transform="translate(-166.56 3)"/><path class="cls-2" d="M94.97 122.51l1.23 2.13-1.03-1.5-.2-.63z"/><path class="cls-6" d="M64.11 151.72l-.12.66-.45-.34.57-.32z"/><path class="cls-2" d="M266.3 120.47v-.68z" transform="translate(-166.56 3)"/><path class="cls-2" d="M94.88 119.16l-.12 2.75-.08-2.56.2-.19zM99.94 119.77l-.11.04-.3-.88.11-.02.3.86z"/><path class="cls-6" d="M62.24 148.65l-.13.01-.11-.65.12-.01.12.65zM61.57 147.13l-.43.45-.07-.4.5-.05z"/><path class="cls-2" d="M99.23 117.66l-.12.03-.08-.26.11-.03.09.26zM94.89 117.66l-.26.36-.13-.38.39.02zM96.9 115.81l-.44.64.08-.56.36-.08z"/><path class="cls-2" d="M232.73 113.81c-1.19-.8-3.49-1-4.92-2.16-3.16-4-1.59-6.67-2.79-10.73 2.38.48.92-1.6.83-2.65l1.58.83c1.66-1 1.23-3.85 1.82-4.82.25.75.14 2 1.27 2.27.68-.72-.13-2 0-3.13.54 1.63 2.49 2.77 3.78 1.9.32-.62-.22-1.42.39-1.58.81.88-.68 2.74.58 3 1.66.27-.22-2.25 1.16-2.46.34 1.81-.22 3.72 1 5.33.61-.16.64-.84 1.25-1 .27 4.82 1.6 10.32-2.52 13.67-1.05 1.2-2.32.57-3.43 1.53z" transform="translate(-166.56 3)"/><path class="cls-4" d="M68.8 110.56l-.08.57-.05-.54.13-.03z"/><path class="cls-4" d="M235.15 107.34l.12-.43zM230.83 104.22c-.36.5 2.07.7.86 1.42z" transform="translate(-166.56 3)"/><path class="cls-4" d="M68.32 103.21l.41.44-.49.12.08-.56z"/><path class="cls-2" d="M76.97 98.47l-.28.35-.25.04.53-.39zM76.83 95.66l.33 2.23-.16-1.74-.17-.49zM74.96 94.37l.11-.45.78.35-.78-.35-.11.45z"/><path class="cls-2" d="M266.4 74c.57.54.56-.67 1.1.14-.41-.04-.85.19-1.1-.14zM264.74 72.52c.17.5.41 1.24 1 1.37-.92.11-.59-.89-1-1.37z" transform="translate(-166.56 3)"/><path class="cls-2" d="M101.89 72.85l.33.6-.2-.22-.13-.38z"/><path class="cls-2" d="M264.42 70.3l-.08-.65zM268.29 69l-.29-.47z" transform="translate(-166.56 3)"/><path class="cls-4" d="M75.25 78.16l-.12.02-.13-.37.12-.03.13.38zM77.14 76.74l-.08.16-1.14.14 1.22-.3z"/><path class="cls-2" d="M98.62 70.41l-.52 1.22.08-.98.44-.24z"/><path class="cls-4" d="M243.66 72.81c.4-.37.56.12.68.5z" transform="translate(-166.56 3)"/><path class="cls-4" d="M67.97 76.68l.52.41-.44-.15-.08-.26zM76.29 74.11l-.12.03-.17-.51.12-.02.17.5zM66.96 76.38l-.13.05-.23-.77.11-.02.25.74z"/><path class="cls-4" d="M239.2 69.15c.29-1.16.53.41.69.52-.44.24-.32-.2-.69-.52z" transform="translate(-166.56 3)"/><path class="cls-4" d="M74.02 71.14l.56.53-.44-.15-.12-.38zM71.31 70.46l-.68 1.51.16-1.12.52-.39z"/><path class="cls-3" d="M241.15 49.31c0-.53-.25-1.57.32-1.83.93.46.09 1.46.65 2 .09.66-.97.24-.97-.17z" transform="translate(-166.56 3)"/><path class="cls-2" d="M227.33 49.79l-.28-.88c.24.77 1.5 1 1.34 2.12l-1.7-1.62zM225.27 47.43c.88-.47.57 1 1.08 1.38-.47-.3-.68-.93-1.08-1.38z" transform="translate(-166.56 3)"/><path class="cls-4" d="M237.18 34.85c.29.07-.08.56-.16.72-.21-.23-.02-.41.16-.72z" transform="translate(-166.56 3)"/><path class="cls-4" d="M71.38 80.19l-.28.75.16-.71.12-.04zM70.18 80.09l.07.24-.41-.03.34-.21zM71.68 76.74l.61.25-.24.06-.37-.31z"/><path class="cls-4" d="M230 73.72c.28-.34.85.61.81.89-.12-.39-.32-1.01-.81-.89z" transform="translate(-166.56 3)"/><path class="cls-4" d="M62.15 76.36l-.04.69-.2-.64.24-.05z"/><path class="cls-4" d="M230.53 71.7l.15.5c-1-1-.73-1-.2-1.86-.28 1.15.4 1.26.9 2.36-.49-.29-.13-.78-.85-1zM230.92 71.32z" transform="translate(-166.56 3)"/><path class="cls-2" d="M236.19 52.82a3.49 3.49 0 011.4-4.55c1.74-1.09 3.59-3.43 5.42-1-.52 2-1.2 4.76-3.06 5.89-.95.61-2.95 1.63-3.76-.34zM286.21 14a3.52 3.52 0 01-.57-3c.39-1.86 3.85-1.29 3.6-2.91.61 1.79 1.69 4.72-.76 6.25a1.66 1.66 0 01-2.27-.34zM308.56 19.57l-.32-.17zM292.06 13c.13 0 .16-.06.21-.12-.11.02.04.26-.21.12zM292 12.34v-.11z" transform="translate(-166.56 3)"/><path class="cls-4" d="M287.64 12.49c.08 0 0 .1-.05.06-.32-.23.38-.21.29-.31v.11c.06-.6.79.07.88-.43-.48.6-.17.57-1.12.57zM289 12.06c.25 0 .25 0 .12.19a.31.31 0 01-.12-.19zM286.42 12.05c.43-.22-.22-.69.19-1l.4.44c-.28.13-.27-.46-.56-.1.77.18.41.65.62.74-.26.57-.15-.13-.65-.08z" transform="translate(-166.56 3)"/><path class="cls-4" d="M122.14 14.6l.03.11-.19.03.16-.14z"/><path class="cls-4" d="M288.28 11.5c-.11-.15-.25 0-.34-.07.09.1.41-.31.52 0-.12-.11-.33.4-.18.07zM287.4 11.12c.13 0-.08.16-.13.23s.02-.16.13-.23zM288.5 11c-.15-.3.07 0 .14 0s-.1-.07-.14 0zM289.06 10.77l.11-.27zM288.34 10.48c.2-.18.09.09.13.2zM287.91 10v-.16z" transform="translate(-166.56 3)"/><path class="cls-2" d="M269.53 9.46c0-.23.08-.41-.19-.67 0 .75-.75.27-1.19.5a2.68 2.68 0 01.85-3.74c.26.55.41 1.33.68 1.81.48-.57.84-1.35 1.8-1.5a7.94 7.94 0 01.77-2.19l.14-.26.07-.13v-.06L247.63.67l-2-.24c-.63-.1-1.08-.15-1.6-.25A18.57 18.57 0 01239.78-1a3.94 3.94 0 01-1.58-1v-.05.05l-.2-.82c0-.21 0-.1-.09 0a1.4 1.4 0 01-.51.46c-.14.09-.12 0 .15 0a1.63 1.63 0 011 .11s.08.08.07.06v-.06a1.09 1.09 0 010-.51.85.85 0 000 .39.4.4 0 000 .18.82.82 0 00-.25-.14 2 2 0 00-1 0 1.72 1.72 0 00.44-.32c.24-.22.22-.46.22-.27V-3a.2.2 0 010 .08.5.5 0 01-.08.12 1.21 1.21 0 01-.19.2 1.1 1.1 0 00.33-.44.31.31 0 000 .1l.22.81v-.05.18l-.31-.82c-.06-.15.05-.19-.14.1a1.53 1.53 0 01-.54.44 2 2 0 011 0 1.83 1.83 0 00-.77 0 .78.78 0 00-.21 0s-.07 0 0 0 .64-.45.65-.64v.09c-.19-.72.27 1 .22.81 0-.08 0-.11 0 0a3 3 0 001.05.8 12.87 12.87 0 002.89 1 40 40 0 005.16.85l32.1 3.29v.74a6.46 6.46 0 010 .88 4.77 4.77 0 01-4.41 4.65c-.81.05-1.38-.79-2.15-1.26-.15.81-.62 1.84-1.61 1.92-.73.04-1.4-.73-1.71-1.39zM248.33 36.29c-1.36-2.22-.85-4.94-.22-7.1.16 1.15-.31 2.37-.21 3.29h-.14c.07.64-.48 1.16.29 1.59-.09.09-.19 0-.28-.08a3.25 3.25 0 001.1 2.62c1.42.6 0-.8 1.07-.91l.46.63c-.05-.39.56-.73.16-1h.07c1-1.64 0-4.16-.69-6.11h-.12v-.92c.73 2.79 2.77 6.55.18 8.62-.45.36-1.26.08-1.67-.63z" transform="translate(-166.56 3)"/><path class="cls-2" d="M248.81 36.19c-.18-.36 0-.08.15 0a.34.34 0 00-.15 0zM250.64 34.57l-.47-.22z" transform="translate(-166.56 3)"/><path class="cls-2" d="M82.22 32.7l.12.17-.07-.04-.05-.13zM82.59 32.43l.14.23-.18.03.04-.26z"/><path class="cls-2" d="M248.62 29.4zM308.21 17.17l-.44-.39zM305.55 17.11l.29-.51zM306.5 16l.43.3-.85.2c-.03-.2.34-.29.42-.5z" transform="translate(-166.56 3)"/></g></svg>