<svg id="Layer_1" data-name="Layer 1" xmlns="http://www.w3.org/2000/svg" viewBox="0 0 1937 362">
  <defs>
    <style>
     
    </style>
  </defs>
  <title>waveFlipped</title>
  <path class="wave" d="M563,333c-17.91-3.95-61.25-14-99-49-66-61.08-32.74-122-82.25-161.75-59.29-47.58-134.56,17.67-252.46-17.33C69,87,26.42,51.47,1,26L0,388l1937-2q-1.07-92.17-2.12-184.36C1586.4,330,1352.47,333.51,1201,311c-149.11-22.16-285.62-79.54-431-16C733.19,311.09,654.21,353.1,563,333Z" transform="translate(0 -26)"/>
  <path class="wave" d="M1922,361.21c9.31-1.12,3-.51.42-.08l-.53.09Z" transform="translate(0 -26)"/>
</svg>
